<?xml version="1.0" encoding="utf-8"?>
<!-- Generator: Adobe Illustrator 16.0.0, SVG Export Plug-In . SVG Version: 6.00 Build 0)  -->
<!DOCTYPE svg PUBLIC "-//W3C//DTD SVG 1.1//EN" "http://www.w3.org/Graphics/SVG/1.1/DTD/svg11.dtd">
<svg version="1.1" id="Layer_1" xmlns="http://www.w3.org/2000/svg" xmlns:xlink="http://www.w3.org/1999/xlink" x="0px" y="0px"
	 width="265px" height="338px" viewBox="0 0 265 338" enable-background="new 0 0 265 338" xml:space="preserve">
<g id="Layer_5">
	<path fill="#E2B73B" stroke="#999999" stroke-width="0.25" stroke-linejoin="round" stroke-miterlimit="10" d="M46.639,195.497
		c0.047,0.058,0.12,0.119,0.201,0.093c0.066-0.021,0.06-0.082,0.094-0.134c0.029-0.042,0.063-0.103,0.123-0.11
		c0.041-0.007,0.057,0.03,0.092,0.028c0.078,0,0.055-0.003,0.14-0.037c0.076-0.03,0.225-0.067,0.155,0.108
		c-0.024,0.063-0.121,0.051-0.122,0.136c-0.001,0.101,0.097,0.12,0.163,0.09c0.101-0.048,0.076-0.116,0.214-0.106
		c0.065,0.004,0.098,0.021,0.158,0.043c0.021,0.01,0.051,0.052,0.076,0.063c0.009,0.004,0.033-0.024,0.041-0.021
		c0.095,0.043,0.186,0.109,0.255,0.162c0.083,0.063,0.146,0.11,0.214,0.143c0.082,0.04,0.174,0.113,0.255,0.088
		c0.057-0.02,0.075-0.075,0.135-0.095c0.138-0.044,0.135,0.024,0.191,0.079c0.092,0.088,0.209,0.17,0.275,0.266
		c0.051,0.073,0.14,0.23,0.245,0.143c0.037,0.035,0.142,0.039,0.194,0.051c-0.065,0.096,0.057,0.029,0.096,0.072
		c0.058,0.063-0.007,0.176,0.031,0.26c0.06,0.132,0.252,0.108,0.341,0.22c0.082,0.103,0.093,0.282,0.12,0.399
		c0.062,0.269,0.131,0.572,0.327,0.779c0.118,0.126,0.255,0.284,0.407,0.367c0.109,0.059,0.215,0.033,0.329,0.063
		c0.125,0.033,0.256,0.136,0.377,0.186c0.116,0.049,0.226,0.141,0.344,0.201c0.213,0.111,0.211-0.188,0.39-0.149
		c0.126,0.025,0.045,0.15,0.097,0.22c0.043,0.059,0.151,0.019,0.183,0.068c0.001,0.002,0.005,0.188,0.005,0.189
		c-0.014,0.097-0.055,0.08-0.021,0.162c0.041,0.097,0.104,0.096,0.09,0.221c-0.009,0.076-0.068,0.15-0.069,0.229
		c-0.002,0.104,0.037,0.103-0.015,0.213c-0.029,0.063-0.084,0.135-0.077,0.199c0.019,0.165,0.26,0.118,0.383,0.147
		c0.069,0.018,0.194,0.071,0.198,0.132c0.004,0.054-0.101,0.12-0.102,0.186c0,0.037,0.042,0.16,0.062,0.192
		c0.049,0.084,0.073,0.063,0.178,0.081c0.056,0.01,0.174,0.001,0.229,0.021c0.097,0.033,0.022,0.056,0.036,0.133
		c0.009,0.053,0.093,0.121,0.094,0.138c0.004,0.069-0.129,0.096-0.11,0.169c0.025,0.092,0.151-0.006,0.169,0.102
		c0.005,0.033-0.088,0.1-0.066,0.164c0.008,0.023,0.129,0.099,0.152,0.144c0.031,0.06,0.06,0.121,0.041,0.185
		c-0.028,0.092-0.093,0.096-0.091,0.192c0.001,0.056,0.05,0.13,0.086,0.179c0.052,0.068,0.143,0.106,0.127,0.188
		c-0.017,0.089-0.128,0.068-0.163,0.103c-0.054,0.056-0.074,0.116-0.015,0.188c0.05,0.063,0.117,0.031,0.189,0.082
		c0.052,0.039,0.075,0.111,0.091,0.168c-0.122,0.064-0.09,0.177-0.244,0.127c-0.116-0.036-0.215-0.108-0.301-0.18
		c-0.158-0.131-0.389-0.201-0.571-0.272c-0.101-0.04-0.178-0.065-0.295-0.071c-0.151-0.006-0.107,0.006-0.179,0.076
		c-0.039,0.039-0.08,0.109-0.132,0.127c-0.069,0.023-0.251-0.025-0.194,0.139c0.025,0.071,0.079,0.043,0.123,0.096
		c0.031,0.041,0.02,0.113,0.02,0.154c0,0.039,0.007,0.152-0.005,0.192c-0.017,0.056-0.088,0.067-0.118,0.123
		c-0.015,0.026,0.012,0.082,0,0.11c-0.01,0.029-0.048,0.039-0.061,0.062c-0.02,0.041-0.06,0.103-0.071,0.146
		c-0.025,0.097,0.099,0.291-0.015,0.393c-0.087,0.075-0.234,0.038-0.319,0.011c-0.091-0.028-0.242-0.089-0.333-0.065
		c-0.066,0.016-0.089,0.066-0.163,0.07c-0.042,0.004-0.098-0.023-0.143-0.029c-0.061-0.008-0.081,0.013-0.153-0.021
		c-0.04-0.018-0.094-0.076-0.138-0.07c-0.064,0.01-0.161,0.156-0.204,0.215c-0.09,0.121-0.128,0.15-0.254,0.203
		c-0.104,0.043-0.209,0.102-0.296,0.164c-0.11,0.08-0.156,0.09-0.306,0.08c-0.209-0.014-0.508-0.117-0.695-0.013
		c-0.122,0.067-0.177,0.149-0.324,0.155c-0.125,0.004-0.177,0.021-0.291,0.048c-0.08,0.019-0.165,0.003-0.244,0.038
		c-0.095,0.043-0.191,0.098-0.291,0.145c-0.155,0.07-0.313,0.256-0.496,0.176c-0.084-0.037-0.118-0.095-0.22-0.123
		c-0.126-0.034-0.327-0.041-0.435-0.114c-0.081-0.054-0.14-0.161-0.235-0.224c-0.033-0.021-0.08-0.026-0.111-0.062
		c-0.036-0.036-0.034-0.093-0.067-0.13c-0.06-0.063-0.275-0.137-0.362-0.141c-0.117-0.009-0.181,0.073-0.306,0
		c-0.182-0.109-0.291-0.451-0.265-0.654c0.015-0.113,0.107-0.221,0.102-0.33c-0.004-0.092-0.051-0.155-0.041-0.25
		c0.013-0.114,0.081-0.207-0.01-0.301c-0.087-0.09-0.204-0.061-0.26-0.198c-0.036-0.089-0.031-0.171-0.081-0.259
		c-0.033-0.057-0.057-0.125-0.087-0.184c-0.034-0.066-0.054-0.101-0.084-0.179c-0.021-0.056-0.072-0.144-0.084-0.192
		c-0.025-0.107,0.065-0.211,0.048-0.33c-0.01-0.076-0.028-0.231-0.059-0.289c-0.048-0.096-0.144-0.129-0.178-0.242
		c-0.028-0.094-0.066-0.189-0.092-0.293c-0.033-0.135,0-0.188-0.113-0.282c-0.099-0.081-0.191-0.115-0.228-0.251
		c-0.039-0.146-0.005-0.359-0.005-0.512c0-0.067,0.025-0.168,0.015-0.233c-0.01-0.067-0.06-0.138-0.081-0.209
		c-0.064-0.22-0.075-0.483-0.067-0.716c0.009-0.219,0.124-0.32,0.164-0.527c0.043-0.225,0.039-0.443,0.03-0.678
		c-0.009-0.271,0.022-0.52-0.102-0.756c-0.085-0.162-0.064-0.324-0.122-0.493c0.044-0.007,0.157,0,0.184-0.024
		c0.042-0.039,0.051-0.24,0.059-0.295c0.018-0.115,0.049-0.307,0.137-0.393c0.113-0.107,0.286-0.014,0.409-0.086
		c0.109-0.064,0.127-0.178,0.28-0.211c0.18-0.037,0.168,0.121,0.309,0.141c0.175,0.025,0.079-0.214,0.219-0.24
		c0.102-0.02,0.277,0.092,0.368,0.135c0.162,0.074,0.166,0.129,0.243,0.28c0.062,0.121,0.161,0.403,0.312,0.218
		C46.754,195.866,46.645,195.62,46.639,195.497"/>
	<path fill="#E2B73B" stroke="#999999" stroke-width="0.25" stroke-linejoin="round" stroke-miterlimit="10" d="M49.075,191.064
		c0.195,0.096,0.204,0.196,0.27,0.385c0.058,0.162,0.167,0.234,0.331,0.275c-0.029,0.039-0.052,0.092-0.025,0.123
		c0.066,0.082,0.064-0.041,0.076-0.052c0.022-0.019,0.08-0.096,0.102-0.106c0.052-0.026,0.111-0.006,0.158-0.029
		c0.033-0.02,0.03-0.055,0.046-0.066c0.013-0.01,0.063-0.044,0.082-0.061c0.075-0.072,0.147-0.11,0.244-0.123
		c0.054-0.008,0.093,0.005,0.143-0.01c0.04-0.015,0.11-0.071,0.133-0.071c0.002,0,0.134,0.083,0.163,0.091
		c0.057,0.02,0.1,0.02,0.156,0.044c0.073,0.034,0.084,0.08,0.172,0.095c0.044,0.008,0.085-0.021,0.135-0.016
		c0.058,0.006,0.105,0.063,0.148,0.071c0.13,0.032,0.291-0.042,0.423-0.087c0.101-0.033,0.136,0.006,0.24,0.064
		c0.149,0.09,0.389,0.172,0.565,0.158c0.106-0.008,0.192-0.057,0.291-0.005c0.036,0.019,0.07,0.067,0.102,0.081
		c0.054,0.021,0.086-0.003,0.142,0.006c0.206,0.027,0.438,0.229,0.642,0.137c0.08-0.035,0.062-0.105,0.153-0.039
		c0.014,0.01,0,0.092,0.021,0.111c0.001,0.001,0.105,0.023,0.112,0.029c0.053,0.033,0.137,0.133,0.183,0.174
		c0.046,0.041,0.019,0.063,0.087,0.097c0.101,0.052,0.2-0.028,0.249,0.089c0.03,0.068-0.034,0.133-0.02,0.191
		c0.028,0.117,0.034,0.068,0.147,0.104c0.103,0.028,0.182,0.158,0.266,0.133c0.041-0.016,0.01-0.107,0.107-0.104
		c0.124,0.007,0.059,0.124,0.081,0.208c0.036,0.129,0.183,0.126,0.205,0.229c0.003,0.02-0.053,0.146-0.062,0.174
		c-0.024,0.068-0.04,0.098-0.081,0.162c-0.066,0.104-0.124,0.18-0.102,0.297c0.01,0.054,0.05,0.109,0.071,0.162
		c0.035,0.088,0.037,0.131,0.051,0.225c0.016,0.107,0.096,0.223,0.082,0.337c-0.016,0.121-0.142,0.218-0.122,0.354
		c0.029,0.218,0.248,0.436,0.331,0.623c0.022,0.051,0.056,0.09,0.066,0.144c0.007,0.039-0.022,0.097-0.015,0.14
		c0.014,0.092,0.132,0.19,0.239,0.168c0.065-0.017,0.217-0.132,0.278-0.172c0.135-0.094,0.213-0.21,0.283-0.35
		c0.054-0.11,0.064-0.119,0.183-0.092c0.087,0.019,0.133,0.033,0.224,0.039c0.153,0.012,0.262,0.039,0.368,0.164
		c0.138,0.162-0.02,0.143-0.041,0.295c-0.012,0.086,0.027,0.074,0.05,0.098c0.004,0.004,0.043-0.008,0.056,0.005
		c0.03,0.029,0.021,0.063,0.041,0.099c0.062,0.104,0.079,0.177-0.025,0.278c-0.13,0.134-0.38,0.151-0.571,0.146
		c-0.151-0.006-0.217-0.014-0.357,0.046c-0.056,0.022-0.118,0.008-0.142,0.065c-0.007,0.018,0.038,0.154,0.046,0.18
		c0.04,0.113,0.135,0.175,0.046,0.3c-0.078,0.106-0.166,0.058-0.276,0.123c-0.029,0.017-0.067,0.063-0.102,0.086
		c-0.042,0.028-0.074,0.007-0.112,0.056c-0.077,0.1,0.038,0.164,0,0.266c-0.037,0.101-0.172,0.129-0.234,0.176
		c-0.01,0.007-0.005,0.049-0.021,0.061c-0.022,0.018-0.049,0.004-0.071,0.021c-0.029,0.021-0.09,0.05-0.112,0.08
		c-0.065,0.092-0.023,0.166,0.02,0.267c0.043,0.099,0.053,0.156,0.061,0.267c0.007,0.071,0.011,0.199-0.01,0.266
		c-0.044,0.136-0.15,0.104-0.255,0.178c-0.222,0.161-0.154,0.438-0.142,0.674c0.002,0.041-0.002,0.088,0.01,0.127
		c0.017,0.055,0.085,0.099,0.097,0.145c0.034,0.136-0.119,0.15-0.209,0.214c-0.087,0.06-0.202,0.156-0.265,0.244
		c-0.053,0.071-0.072,0.188-0.143,0.243c-0.061,0.049-0.163,0.048-0.234,0.099c-0.071,0.05-0.141,0.11-0.225,0.158
		c-0.076,0.043-0.154,0.118-0.234,0.151c-0.022,0.011-0.106,0.02-0.123,0.03c-0.033,0.025-0.017,0.078-0.05,0.112
		c-0.066,0.066-0.178,0.023-0.265,0.01c-0.162-0.027-0.151-0.021-0.194-0.173c-0.012-0.042-0.042-0.067-0.041-0.113
		c0.002-0.04,0.076-0.104,0.082-0.132c0.022-0.118-0.096-0.154-0.227-0.184c-0.238-0.053-0.404-0.03-0.273-0.315
		c0.059-0.129,0.039-0.168,0.051-0.296c0.012-0.124,0.094-0.198,0.021-0.32c-0.024-0.041-0.087-0.074-0.092-0.106
		c-0.007-0.041,0.045-0.082,0.051-0.123c-0.001,0.006-0.011-0.136-0.01-0.134c-0.024-0.073-0.004-0.034-0.072-0.08
		c-0.037-0.023-0.075-0.006-0.107-0.047c-0.033-0.043,0.011-0.141-0.035-0.188c-0.099-0.104-0.188,0.049-0.265,0.102
		c-0.076,0.054-0.044,0.084-0.148,0.059c-0.027-0.008-0.125-0.086-0.158-0.107c-0.167-0.107-0.368-0.229-0.561-0.295
		c-0.175-0.062-0.309-0.033-0.468-0.164c-0.19-0.152-0.381-0.32-0.48-0.55c-0.142-0.329-0.094-0.851-0.448-1.021
		c-0.072-0.034-0.132-0.039-0.168-0.116c-0.033-0.069,0.02-0.142-0.005-0.209c-0.029-0.081-0.176-0.046-0.122-0.122
		c-0.051-0.014-0.158-0.018-0.194-0.053c-0.017,0.017-0.131,0.02-0.174-0.01c-0.072-0.048-0.047-0.132-0.091-0.184
		c-0.048-0.059-0.118-0.084-0.174-0.152c-0.032-0.043-0.092-0.121-0.137-0.141c-0.143-0.064-0.168,0.059-0.26,0.089
		c-0.071,0.024-0.102,0.001-0.163-0.03c-0.12-0.063-0.191-0.09-0.285-0.174c-0.089-0.078-0.196-0.121-0.301-0.176
		c-0.083-0.043-0.245-0.141-0.362-0.094c-0.079,0.029-0.156,0.218-0.255,0.086c-0.091-0.121,0.074-0.133,0.102-0.204
		c0.113-0.283-0.21-0.056-0.249-0.05c-0.103,0.012-0.12-0.103-0.225,0.005c-0.042,0.04-0.042,0.146-0.104,0.183
		c-0.121,0.07-0.186-0.074-0.227-0.138c-0.091-0.14-0.082-0.146-0.051-0.306c0.01-0.056,0.047-0.094,0.023-0.149
		c-0.019-0.047-0.078-0.035-0.104-0.074c-0.053-0.079-0.015-0.567,0.107-0.616c0.095-0.039,0.205,0.045,0.311,0.012
		c0.055-0.018,0.102-0.074,0.164-0.079c0.054-0.005,0.098,0.049,0.155,0.05c0.157,0.003,0.091-0.13,0.169-0.221
		c0.097-0.111,0.181-0.019,0.266,0.039c0.107-0.153,0.1-0.217-0.084-0.278c-0.098-0.034-0.359-0.032-0.426-0.084
		c-0.166-0.128,0.392-0.563,0.52-0.597c0.079-0.018,0.13,0.025,0.211-0.028c0.065-0.044,0.112-0.138,0.157-0.205
		c0.098-0.146,0.108-0.287,0.14-0.457c0.031-0.167,0.102-0.329,0.124-0.497c0.021-0.163,0.101-0.205,0.143-0.347
		c0.043-0.146,0.049-0.347,0.182-0.446c0.073-0.057,0.117-0.023,0.2-0.01C48.979,191.176,48.985,191.174,49.075,191.064"/>
	<path fill="#E2B73B" stroke="#999999" stroke-width="0.25" stroke-linejoin="round" stroke-miterlimit="10" d="M51.979,185.988
		c0.196,0.063,0.383,0.387,0.571,0.087c0.074-0.119-0.057-0.265,0-0.343c0.034-0.049,0.147-0.016,0.199-0.041
		c0.071-0.035,0.109-0.104,0.188-0.144c0.136-0.067,0.277-0.087,0.418-0.021c0.163,0.074,0.086,0.117,0.13,0.246
		c0.025,0.072,0.091,0.078,0.13,0.131c0.037,0.049,0.031,0.123,0.066,0.174c0.078,0.107,0.168,0.027,0.268,0.087
		c0.277,0.159,0.005,0.335,0.165,0.519c0.045,0.051,0.128,0.057,0.174,0.107c0.032,0.039,0.108,0.174,0.117,0.219
		c0.019,0.1-0.113,0.264-0.013,0.348c0.05,0.043,0.085,0.006,0.135,0.017c0.048,0.011,0.103,0.056,0.143,0.062
		c0.097,0.017,0.024,0.031,0.102-0.028c0.045-0.036,0.087-0.099,0.132-0.136c0.038-0.027,0.072-0.023,0.099-0.071
		c0.028-0.048-0.008-0.11,0.034-0.142c0.067-0.049,0.107,0.065,0.163-0.057c0.038-0.083-0.057-0.168,0.097-0.139
		c0.141,0.029,0.25,0.229,0.392,0.275c0.092,0.03,0.214-0.045,0.273,0.047c0.135,0.207-0.298,0.088-0.191,0.278
		c0.062,0.112,0.212,0.035,0.28,0.031c0.048-0.003,0.018-0.017,0.076,0c0.006,0.001,0.133,0.063,0.138,0.069
		c0.058,0.054,0.075,0.179,0.148,0.221c0.041,0.021,0.105-0.004,0.143,0.023c0.033,0.026,0.038,0.099,0.066,0.133
		c0.011,0.017,0.127,0.104,0.137,0.104c0.035-0.003,0.043-0.064,0.072-0.081c0.043-0.024,0.09-0.012,0.129-0.039
		c0.138-0.094,0.032-0.323,0.207-0.358c0.086-0.018,0.106,0.058,0.199,0.015c0.032-0.017,0.115-0.147,0.148-0.183
		c0.071-0.075,0.129-0.073,0.203-0.127c0.058-0.041,0.067-0.105,0.148-0.144c0.06-0.026,0.128-0.035,0.184-0.071
		c0.044-0.027,0.058-0.084,0.099-0.111c0.074-0.051,0.087-0.02,0.161-0.024c0.042-0.005,0.123-0.037,0.163-0.026
		c0.182,0.056,0.092,0.293,0.346,0.123c0.102-0.066,0.147-0.178,0.224-0.254c0.001-0.002,0.115-0.08,0.123-0.082
		c0.062-0.021,0.148-0.012,0.219,0.01c0.109,0.033,0.241,0.111,0.341,0.186c0.106,0.076,0.122,0.064,0.275,0.064
		c0.124,0,0.252,0.08,0.377,0.088c0.075,0.004,0.083-0.016,0.164,0.041c0.067,0.046,0.122,0.105,0.198,0.143
		c0.103,0.047,0.294,0,0.372,0.041c0.106,0.057,0.062,0.21,0.159,0.28c0.045,0.032,0.106,0.006,0.137,0.056
		c0.027,0.045,0.019,0.145,0.051,0.194c0.075,0.114,0.159,0.082,0.285,0.104c0.114,0.022,0.298,0.106,0.408,0.057
		c0.124-0.057,0.194-0.225,0.194-0.336c0-0.151-0.001-0.143,0.112-0.229c0.222-0.173,0.105-0.556,0.173-0.796
		c0.043-0.147,0.018-0.187,0.183-0.219c0.051-0.013,0.128-0.001,0.164-0.013c0.056-0.015,0.072-0.049,0.122-0.074
		c0.105-0.059,0.223-0.039,0.321-0.059c0.053-0.008,0.082-0.041,0.153-0.029c0.036,0.007,0.121,0.078,0.16,0.078
		c0.076,0.002,0.153-0.049,0.232-0.059c0.047-0.005,0.12,0,0.174,0c0.08,0.001,0.152,0.027,0.233,0.033
		c0.123,0.011,0.17-0.023,0.266-0.084c0.077-0.049,0.186-0.21,0.275-0.163c-0.064,0.127-0.058,0.167-0.071,0.306
		c-0.005,0.053-0.034,0.104-0.041,0.153c-0.017,0.128,0.013,0.112,0.094,0.192c0.087,0.088,0.084,0.123,0.049,0.256
		c-0.027,0.099-0.067,0.216-0.128,0.293c-0.06,0.076-0.114,0.076-0.096,0.176c0.029,0.159,0.087,0.088-0.041,0.188
		c-0.037,0.029-0.067,0.069-0.102,0.1c-0.039,0.027-0.117,0.057-0.153,0.091c-0.107,0.101-0.089,0.235-0.051,0.349
		c0.082,0.236,0.071,0.475,0.077,0.729c0.002,0.117,0.114,0.23,0.096,0.361c-0.017,0.123-0.172,0.27-0.254,0.354
		c-0.054,0.058-0.079,0.044-0.103,0.123c-0.015,0.056,0.007,0.116-0.01,0.173c-0.018,0.063-0.09,0.122-0.147,0.18
		c-0.194,0.188-0.4,0.344-0.535,0.592c-0.069,0.125-0.154,0.246-0.215,0.371c-0.065,0.137-0.04,0.215-0.051,0.348
		c-0.006,0.084-0.082,0.161-0.091,0.244c-0.008,0.068,0.043,0.1,0.043,0.158c0.001,0.076-0.097,0.125,0.018,0.168
		c-0.112,0.068-0.111,0.223-0.194,0.297c-0.091,0.08-0.242,0.027-0.234,0.201c0.008,0.172,0.329,0.314,0.102,0.438
		c-0.068,0.036-0.155,0.011-0.214,0.062c-0.067,0.059-0.049,0.184-0.061,0.256c-0.018,0.102-0.068,0.131-0.102,0.225
		c-0.048,0.128,0.068,0.241-0.067,0.342c-0.086,0.063-0.241,0.028-0.31,0.106c-0.069,0.077-0.026,0.248-0.143,0.313
		c-0.092,0.051-0.226-0.007-0.301-0.074c-0.055-0.051-0.066-0.112-0.107-0.168c-0.04-0.056-0.058-0.049-0.102-0.092
		c-0.087-0.082-0.117-0.172-0.224-0.215c-0.105-0.043-0.139-0.035-0.217-0.138c-0.06-0.079-0.115-0.151-0.242-0.147
		c-0.036,0.002-0.085,0.029-0.112,0.03c-0.057,0.002-0.091-0.028-0.143-0.03c-0.135-0.002-0.218,0.021-0.362-0.029
		c-0.085-0.03-0.318-0.174-0.41-0.129c-0.205,0.104,0.144,0.481-0.165,0.541c-0.149,0.027-0.305,0.056-0.474,0.063
		c-0.049,0.002-0.082-0.004-0.128-0.011c-0.019-0.003-0.019-0.036-0.043-0.04c-0.029-0.006-0.038,0.017-0.058,0.015
		c-0.089-0.006-0.169-0.006-0.255,0.005c-0.228,0.03-0.281,0.197-0.408,0.362c-0.117,0.149-0.236,0.222-0.428,0.214
		c-0.195-0.008-0.391-0.074-0.581-0.092c-0.143-0.014-0.232-0.001-0.214-0.143c0.02-0.162,0.076-0.121-0.031-0.229
		c-0.142-0.146-0.345-0.269-0.519-0.382c0.012,0.008-0.116-0.057-0.092-0.049c-0.058-0.02-0.022-0.086-0.092,0.002
		c-0.041,0.053-0.07,0.275-0.069,0.337c0.001,0.042,0.037,0.082,0.038,0.128c0.003,0.063-0.034,0.117-0.04,0.178
		c-0.011,0.104,0.017,0.18-0.026,0.27c-0.052,0.111-0.092,0.123-0.102,0.246c-0.008,0.104-0.042,0.191-0.053,0.297
		c-0.015,0.133,0.027,0.074,0.15,0.109c0.068,0.021,0.109,0.065,0.168,0.146c0.131,0.173,0.148,0.358-0.015,0.534
		c-0.098,0.104-0.364,0.317-0.499,0.32c-0.096,0.002-0.184-0.06-0.202-0.15c-0.005-0.025,0.01-0.072,0.008-0.104
		c-0.004-0.06-0.019-0.07-0.031-0.121c-0.045-0.191-0.187-0.3-0.275-0.479c-0.052-0.106-0.084-0.214-0.058-0.321
		c0.024-0.104,0.096-0.172,0.099-0.279c0.002-0.096-0.066-0.188-0.082-0.279c-0.01-0.057,0.011-0.121-0.005-0.174
		c-0.017-0.059-0.075-0.119-0.097-0.18c-0.072-0.203,0.093-0.301,0.154-0.479c0.028-0.086,0.099-0.2,0.04-0.273
		c-0.013-0.018-0.096-0.031-0.122-0.063c-0.066-0.07-0.025-0.109-0.051-0.198c-0.019-0.063,0.001-0.103-0.082-0.106
		c-0.09-0.005-0.063,0.075-0.102,0.092c-0.111,0.049-0.09-0.051-0.183-0.102c-0.136-0.072-0.226,0.034-0.234-0.152
		c-0.003-0.052,0.046-0.103,0.02-0.164c-0.046-0.108-0.111-0.039-0.216-0.069c-0.143-0.045-0.209-0.222-0.319-0.312
		c-0.029-0.024-0.076,0.004-0.102-0.021c-0.015-0.014-0.007-0.082-0.016-0.086c-0.096-0.051-0.041-0.023-0.142,0.021
		c-0.103,0.046-0.12,0.04-0.235,0.007c-0.107-0.028-0.21-0.084-0.316-0.108c-0.07-0.017-0.161,0.012-0.224-0.011
		c-0.075-0.022-0.105-0.106-0.188-0.123c-0.089-0.012-0.173,0.012-0.25,0.019c-0.167,0.013-0.318-0.063-0.469-0.117
		c-0.07-0.026-0.142-0.104-0.209-0.12c-0.086-0.021-0.252,0.098-0.372,0.109c-0.107,0.012-0.123-0.021-0.214-0.052
		c-0.052-0.017-0.106-0.019-0.158-0.022c-0.12-0.011-0.146-0.031-0.26-0.089c-0.038-0.021-0.068-0.021-0.107-0.03
		c-0.045-0.013-0.145-0.072-0.173-0.076c-0.045-0.006-0.139,0.063-0.209,0.076c-0.134,0.023-0.228,0-0.347,0.123
		c-0.018,0.02-0.071,0.104-0.092,0.111c-0.053,0.021-0.101-0.018-0.152,0.01c-0.023,0.014-0.055,0.079-0.072,0.104
		c0.012-0.016-0.079,0.088-0.05,0.076c-0.101,0.043-0.105-0.039-0.052-0.117c-0.161-0.041-0.278-0.113-0.331-0.276
		c-0.06-0.188-0.077-0.291-0.27-0.386c0.124-0.088-0.074-0.277-0.141-0.346c-0.142-0.142-0.099-0.137-0.001-0.303
		c0.042-0.072,0.102-0.001,0.009-0.113c-0.038-0.047-0.085-0.067-0.142-0.084c-0.028-0.011-0.065,0.016-0.091,0.006
		c-0.017-0.004-0.027-0.033-0.034-0.035c-0.056-0.012-0.081-0.043-0.155,0.006c-0.053,0.033-0.183,0.335-0.252,0.311
		c-0.062-0.022,0.14-0.338,0.16-0.386c0.052-0.126,0.073-0.246,0.15-0.37c0.061-0.102,0.135-0.21,0.185-0.303
		c0.081-0.15,0.126-0.256,0.247-0.369c0.116-0.109,0.123-0.221,0.278-0.311c0.068-0.039,0.148-0.096,0.219-0.127
		c0.04-0.02,0.154-0.024,0.18-0.043c0.027-0.021,0.008-0.065,0.031-0.104c0.042-0.073,0.087-0.132,0.143-0.196
		c0.1-0.115,0.205-0.218,0.305-0.32c0.078-0.079,0.133-0.234,0.225-0.334c0.019-0.021,0.027-0.049,0.047-0.066
		c0.019-0.02,0.076-0.004,0.084-0.018c0.027-0.034,0.042-0.113,0.066-0.161c0.079-0.156,0.184-0.302,0.261-0.459
		c0.088-0.185,0.129-0.33,0.163-0.529c0.015-0.092,0.031-0.18,0.127-0.209c0.128-0.04,0.143,0.047,0.199,0.104
		c0.045,0.05,0.073,0.084,0.16,0.104c0.125,0.028,0.124,0.011,0.242-0.079C51.846,186.251,52,186.141,51.979,185.988"/>
	<path fill="#E2B73B" stroke="#999999" stroke-width="0.25" stroke-linejoin="round" stroke-miterlimit="10" d="M53.172,170.598
		c0.121-0.261,0.188-0.416,0.025-0.666c-0.096-0.146-0.233-0.274-0.127-0.477c0.106-0.198,0.4-0.095,0.584-0.13
		c0.083-0.015,0.276,0.006,0.344-0.053c0.098-0.086-0.009-0.109,0.01-0.194c0.022-0.1,0.149-0.109,0.214-0.193
		c0.06-0.078,0.057-0.176,0.112-0.255c0.132-0.188,0.373-0.287,0.58-0.193c0.194,0.087,0.266,0.288,0.419,0.418
		c0.195,0.167,0.242,0.062,0.408-0.081c0.085-0.074,0.152-0.104,0.165-0.231c0.015-0.144-0.045-0.235,0.005-0.378
		c0.068-0.195,0.242-0.429,0.469-0.431c0.256-0.002,0.193,0.266,0.181,0.453c-0.02,0.309-0.002,0.486,0.245,0.704
		c0.115,0.1,0.285,0.374,0.443,0.198c0.059-0.064,0.029-0.157,0.092-0.215c0.093-0.083,0.222-0.012,0.326-0.03
		c0.181-0.031,0.354-0.29,0.561-0.173c0.097,0.056,0.106,0.194,0.173,0.275c0.062,0.075,0.162,0.103,0.219,0.147
		c0.158,0.123,0.125,0.339,0.168,0.515c0.023,0.093,0.057,0.148,0.122,0.217c0.04,0.037,0.102,0.062,0.133,0.109
		c0.027,0.045,0.01,0.131,0.041,0.164c0.049,0.053,0.234,0.055,0.296,0.029c0.154-0.061,0.09-0.154,0.244-0.07
		c0.205,0.11,0.307,0.08,0.53,0.086c0.171,0.006,0.396,0.09,0.56,0.066c0.043-0.006,0.082-0.059,0.113-0.061
		c0.051-0.008,0.094,0.02,0.142,0.02c0.109-0.001,0.153-0.021,0.204-0.122c0.024-0.046,0.027-0.165,0.056-0.192
		c0.049-0.049,0.047,0.008,0.097,0c0.125-0.021,0.269-0.069,0.398-0.063c0.185,0.014,0.328,0.066,0.469,0.184
		c0.027,0.022,0.033,0.064,0.072,0.088c0.038,0.021,0.097,0.017,0.139,0.029c0.072,0.024,0.123,0.065,0.187,0.1
		c0.183,0.103,0.327,0.149,0.417,0.354c0.04,0.093-0.013,0.152,0.102,0.214c0.109,0.062,0.17,0.026,0.237,0.172
		c0.021,0.047,0.067,0.135,0.079,0.176c0.013,0.045,0.029,0.043,0.025,0.098c-0.003,0.037-0.068,0.008-0.066,0.066
		c0.004,0.123,0.211,0.146,0.234,0.273c0.022,0.12-0.134,0.223-0.203,0.316c-0.042,0.055-0.015,0.046-0.077,0.087
		c-0.069,0.045-0.16-0.005-0.188,0.106c-0.031,0.12,0.153,0.338,0.205,0.43c0.189,0.34,0.378,0.679,0.566,1.018
		c0.125,0.227,0.246,0.455,0.377,0.678c0.081,0.135,0.213,0.232,0.299,0.354c0.122,0.169,0.205,0.364,0.301,0.528
		c0.114,0.195,0.137,0.389,0.229,0.58c0.039,0.084,0.056,0.123,0.143,0.164c-0.06,0.082-0.028,0.211-0.077,0.313
		c-0.047,0.098-0.096,0.135-0.183,0.188c-0.037,0.021-0.088,0.045-0.123,0.074c-0.009,0.01-0.083,0.098-0.086,0.098
		c-0.103,0.043-0.236-0.061-0.337,0c-0.112,0.067-0.019,0.127-0.02,0.226c-0.001,0.124-0.102,0.158-0.148,0.25
		c-0.065,0.13-0.011,0.43,0.143,0.487c0.105,0.041,0.126-0.021,0.224,0.066c0.087,0.075,0.135,0.149,0.133,0.26
		c-0.001,0.049-0.031,0.1-0.034,0.152c-0.003,0.082,0.019,0.072-0.002,0.139c-0.038,0.116-0.088,0.2-0.17,0.281
		c-0.13,0.133-0.219,0.385-0.411,0.383c-0.138-0.005-0.247-0.104-0.367-0.113c-0.137-0.012-0.31-0.002-0.428,0.082
		c-0.083,0.059-0.264,0.16-0.265,0.285c-0.001,0.109,0.11,0.145,0.194,0.209c0.024,0.02,0.08,0.07,0.102,0.082
		c0.051,0.021,0.092,0.004,0.142,0.016c0.072,0.016,0.153,0.081,0.204,0.163c0.102,0.161,0.028,0.206-0.041,0.344
		c-0.025,0.05-0.093,0.251-0.038,0.313c0.041,0.047,0.093,0,0.151,0.006c0.086,0.01,0.09,0.037,0.157,0.076
		c0.105,0.061,0.236,0.129,0.355,0.154c0.031,0.01,0.082-0.021,0.109-0.008c0.093,0.053,0.024,0.184,0.054,0.243
		c0.039,0.082,0.134,0.051,0.196,0.139c0.059,0.083,0.037,0.167,0.099,0.245c0.085,0.105,0.183,0.227,0.232,0.357
		c0.026,0.072-0.006,0.168,0.046,0.231c0.046,0.058,0.134,0.103,0.184,0.144c0.05,0.041,0.12,0.098,0.163,0.144
		c0.071,0.078,0.044,0.119,0.066,0.229c0.032,0.164,0.173,0.144,0.316,0.179c0.069,0.017,0.146,0.032,0.214,0.056
		c0.05,0.02,0.126,0.067,0.163,0.071c0.08,0.01,0.107-0.032,0.163-0.093c0.024,0.08,0.09,0.214,0.153,0.275
		c0.101,0.103,0.182,0.063,0.183,0.233c0.002,0.112-0.026,0.206-0.051,0.306c-0.022,0.094-0.031,0.244-0.071,0.326
		c-0.028,0.061-0.133,0.171-0.184,0.204c-0.036,0.024-0.084,0.021-0.122,0.051c-0.047,0.039-0.053,0.108-0.091,0.153
		c-0.062,0.074-0.163,0.091-0.225,0.143c-0.068,0.059-0.134,0.125-0.168,0.209c-0.049,0.122,0.031,0.133,0.021,0.25
		c-0.01,0.105-0.152,0.163-0.179,0.256c-0.016,0.056,0.02,0.099,0.011,0.144c-0.011,0.049-0.06,0.103-0.077,0.151
		c-0.045,0.136-0.032,0.181-0.143,0.295c-0.097,0.104-0.129,0.228-0.237,0.313c-0.042,0.034-0.144,0.074-0.176,0.114
		c-0.048,0.063-0.021,0.136-0.051,0.203c-0.043,0.102-0.104,0.084-0.183,0.164c-0.051,0.051-0.126,0.119-0.204,0.152
		c-0.184,0.077-0.453-0.033-0.652-0.007c-0.063,0.011-0.112,0.056-0.178,0.054c-0.019-0.002-0.102-0.051-0.128-0.059
		c-0.1-0.029-0.121,0.021-0.204,0.031c-0.09,0.012-0.142-0.025-0.234,0.01c-0.087,0.032-0.124,0.075-0.194,0.092
		c-0.062,0.016-0.158-0.008-0.224,0.025c-0.105,0.052-0.07,0.087-0.102,0.197c-0.061,0.211-0.035,0.357-0.072,0.6
		c-0.019,0.129-0.023,0.16-0.122,0.229c-0.065,0.045-0.114,0.058-0.122,0.133c-0.013,0.123,0.036,0.176-0.041,0.273
		c-0.059,0.077-0.112,0.141-0.214,0.146c-0.104,0.011-0.2-0.034-0.3-0.055c-0.059-0.014-0.182,0.002-0.23-0.021
		c-0.071-0.034-0.105-0.131-0.132-0.204c-0.034-0.089,0.024-0.057-0.051-0.109c-0.024-0.021-0.081-0.018-0.112-0.041
		c-0.063-0.053-0.046-0.146-0.082-0.203c-0.062-0.104-0.089-0.065-0.194-0.063c-0.126,0.004-0.225-0.024-0.316-0.092
		c-0.107-0.077-0.134-0.134-0.254-0.144c-0.075-0.008-0.145,0.002-0.235-0.031c-0.134-0.051-0.177-0.014-0.295-0.029
		c-0.136-0.021-0.238-0.188-0.418-0.245c-0.057-0.019-0.198-0.065-0.276-0.04c-0.057,0.021-0.125,0.105-0.157,0.139
		c-0.106,0.1-0.269,0.383-0.439,0.219c-0.029-0.027-0.018-0.084-0.066-0.111c-0.059-0.032-0.175-0.014-0.235-0.005
		c-0.104,0.016-0.101,0.046-0.178,0.106c-0.077,0.062-0.164,0.075-0.249,0.121c-0.049,0.025-0.071,0.051-0.113,0.082
		c-0.02,0.018-0.011,0.047-0.035,0.063c-0.028,0.019-0.061,0.004-0.09,0.021c-0.09,0.061-0.155,0.217-0.236,0.264
		c-0.101,0.057-0.18-0.047-0.27,0.021c-0.081,0.06-0.055,0.2-0.102,0.274c-0.035,0.055-0.229,0.176-0.266,0.174
		c-0.089-0.004-0.142-0.189-0.198-0.229c-0.056-0.037-0.104-0.019-0.158-0.066c-0.055-0.051-0.075-0.129-0.123-0.174
		c-0.009-0.01-0.161-0.104-0.168-0.104c-0.044-0.005-0.099,0.074-0.168,0.071c-0.046-0.004-0.152-0.05-0.163-0.103
		c-0.019-0.095,0.059-0.074,0.102-0.104c0.044-0.027,0.07,0.015,0.102-0.041c0.038-0.064-0.016-0.131-0.066-0.152
		c-0.057-0.023-0.143,0.022-0.209,0c-0.112-0.037-0.212-0.146-0.306-0.214c-0.048-0.034-0.114-0.11-0.173-0.062
		c-0.056,0.045,0.014,0.115-0.011,0.162c-0.044,0.084-0.092,0.006-0.137,0.033c-0.064,0.039-0.018,0.073-0.061,0.146
		c-0.04,0.063-0.116,0.059-0.168,0.106c-0.084,0.076-0.046,0.146-0.153,0.129c-0.033-0.004-0.059-0.054-0.092-0.063
		c-0.034-0.01-0.075,0.016-0.102,0.005c-0.112-0.03-0.137-0.052-0.117-0.185c0.015-0.105,0.038-0.12,0.01-0.219
		c-0.012-0.041-0.043-0.115-0.066-0.152c-0.064-0.102-0.176-0.109-0.23-0.215c-0.081-0.156,0.066-0.188-0.045-0.342
		c-0.054-0.072-0.086-0.108-0.163-0.133c-0.125-0.035-0.131,0.038-0.209-0.105c-0.05-0.092-0.072-0.106-0.133-0.184
		c-0.07-0.089-0.011-0.146-0.051-0.226c-0.088-0.179-0.38-0.149-0.524-0.085c-0.104,0.048-0.158,0.128-0.259,0.164
		c-0.172,0.062-0.132-0.01-0.119,0.171c0.013,0.178-0.105,0.389-0.318,0.312c-0.06-0.021-0.121-0.093-0.171-0.127
		c-0.019-0.015-0.053-0.035-0.066-0.053c-0.04-0.047-0.001-0.048-0.026-0.092c-0.066-0.117-0.128-0.174-0.265-0.184
		c-0.135-0.01-0.25,0.018-0.367,0.082c-0.088,0.049-0.194,0.156-0.232-0.002c-0.018-0.076,0.063-0.187,0.105-0.254
		c0.125-0.201,0.282-0.371,0.428-0.557c0.128-0.161,0.265-0.454,0.433-0.564c0.03-0.021,0.047,0.002,0.077-0.021
		c0.075-0.053,0.05-0.039,0.096-0.104c0.033-0.043,0.04-0.088,0.077-0.133c0.061-0.074,0.154-0.104,0.239-0.162
		c0.102-0.07,0.19-0.166,0.276-0.257c0.141-0.149,0.268-0.339,0.478-0.334c0.093,0.001,0.163,0.019,0.224-0.053
		c0.073-0.083,0.035-0.202,0.082-0.29c0.052-0.098,0.167-0.169,0.234-0.26c0.072-0.096,0.136-0.209,0.197-0.313
		c0.115-0.19,0.144-0.491,0.313-0.646c0.126,0.127,0.038,0.317,0.051,0.47c0.021,0.235,0.259,0.151,0.387,0.03
		c0.097-0.092,0.131-0.377,0.041-0.5c-0.092-0.125-0.323-0.147-0.438-0.265c-0.304-0.306,0.311-0.659,0.494-0.853
		c0.122-0.127,0.069-0.262,0.148-0.383c0.105-0.159,0.272-0.297,0.386-0.453c0.039-0.055,0.115-0.192,0.18-0.204
		c0.095-0.017,0.049,0.1,0.158,0.087c0.049-0.006,0.124-0.109,0.183-0.135c0.074-0.03,0.16-0.045,0.235-0.061
		c0.174-0.035,0.32-0.037,0.489-0.041c0.184-0.002,0.263-0.144,0.367-0.273c0.053-0.066,0.096-0.1,0.163-0.155
		c0.03-0.024,0.007-0.062,0.051-0.08c0.042-0.021,0.047,0.017,0.061,0.013c0.136-0.035,0.168-0.117,0.183-0.285
		c0.014-0.146,0.092-0.242,0.106-0.365c0.011-0.094-0.095-0.168,0.039-0.229c0.115-0.051,0.117,0.054,0.202,0.095
		c0.218,0.104,0.166-0.191,0.163-0.328c-0.002-0.088,0.022-0.205,0-0.282c-0.01-0.037-0.066-0.04-0.074-0.079
		c-0.012-0.063,0.035-0.075,0.034-0.119c-0.006-0.271-0.201,0.083-0.266,0.152c-0.079,0.085-0.051,0.093-0.099,0.01
		c-0.035-0.061-0.038-0.209-0.05-0.275c-0.026-0.137-0.265-0.906-0.024-0.951c0.053-0.012,0.025,0.045,0.069,0.057
		c0.073,0.02,0.173,0.021,0.252,0c0.126-0.034,0.128-0.112,0.25-0.139c0.106-0.021,0.321,0.006,0.412-0.051
		c0.172-0.104-0.086-0.06-0.117-0.113c-0.032-0.059,0.135-0.176,0.153-0.231c0.02-0.063,0.046-0.06-0.04-0.14
		c-0.033-0.029-0.078-0.016-0.107-0.057c-0.026-0.035-0.052-0.266-0.036-0.295c0.035-0.068,0.173-0.035,0.26-0.092
		c0.061-0.04,0.086-0.089,0.17-0.113c0.107-0.033,0.173,0.004,0.199-0.127c0.018-0.094-0.009-0.144,0.026-0.236
		c0.022-0.062,0.064-0.15,0.109-0.187c0.027-0.021,0.105-0.038,0.138-0.057c0.044-0.021,0.081-0.056,0.127-0.076
		c0.1-0.044,0.231-0.056,0.326-0.071c-0.001,0.002,0.005-0.027,0.021-0.029c0.021-0.004,0.063,0.02,0.082,0.016
		c0.083-0.018,0.137-0.003,0.193-0.098c0.011-0.019,0.079-0.203,0.077-0.215c-0.029-0.108-0.072,0.02-0.107,0.041
		c-0.097,0.063-0.081,0.076-0.192,0c-0.059-0.041-0.137-0.109-0.176-0.172c-0.104-0.168,0.116-0.187,0.245-0.123
		c0.053,0.024,0.108,0.137,0.161,0.141c0.086,0.006-0.028-0.075-0.028-0.078c-0.006-0.053-0.06-0.027-0.023-0.085
		c0.044-0.067,0.14,0.016,0.178-0.099c0.041-0.123-0.096-0.203-0.186-0.205c0.099,0.086-0.076,0.156-0.152,0.149
		c-0.066-0.005-0.129-0.024-0.193-0.026c-0.021-0.002-0.057,0.021-0.083,0.021c-0.035,0.003-0.061-0.04-0.095-0.036
		c-0.139,0.015-0.079,0.103-0.119,0.155c-0.019,0.027,0.026,0.051-0.025,0.063c-0.037,0.008-0.012-0.058-0.036-0.057
		c-0.085,0.001-0.085-0.053-0.153,0.04c-0.035,0.049-0.042,0.162-0.077,0.222c-0.088,0.15-0.236,0.105-0.382,0.172
		c-0.135,0.062-0.229,0.215-0.368,0.28c-0.088,0.041-0.15,0.035-0.223,0.086c-0.021,0.017-0.013,0.063-0.038,0.076
		c-0.032,0.019-0.05-0.021-0.064-0.017c-0.042,0.02-0.093,0.006-0.133,0.063c-0.023,0.034,0.01,0.127-0.045,0.173
		c-0.106,0.091-0.276-0.11-0.434-0.062c-0.031,0.012-0.045,0.059-0.093,0.066c-0.025,0.004-0.107-0.033-0.14-0.035
		c-0.044-0.002-0.088,0.016-0.133,0.02c0.047,0.143-0.229-0.032-0.337,0.021c-0.114,0.059-0.076,0.09-0.183,0.057
		c-0.053-0.016-0.088-0.074-0.143-0.064c0.003,0.014,0.008,0.024,0.01,0.041c-0.101-0.002-0.155-0.084-0.234-0.113
		c-0.067-0.022-0.109,0.006-0.173-0.051c-0.039-0.033-0.071-0.125-0.102-0.168c-0.065-0.09-0.14-0.123-0.224-0.199
		c-0.085-0.076-0.04-0.139-0.072-0.233c0.039-0.015,0.147,0.008,0.158,0c0.068-0.042,0.039-0.126,0.071-0.19
		c0.043-0.091,0.149-0.109,0.077-0.205c-0.07-0.094-0.219-0.053-0.298-0.096c-0.138-0.072-0.055-0.092-0.202-0.054
		c-0.119,0.03-0.053,0.063-0.102-0.021c-0.06-0.105,0.044-0.201-0.009-0.354c0.136,0.063,0.161-0.107,0.137-0.229
		c-0.023-0.115-0.102-0.173-0.036-0.281c0.038-0.063,0.086-0.051,0.112-0.127c0.023-0.066-0.026-0.105,0.031-0.178
		c0.053-0.068,0.165-0.106,0.242-0.135c0.101-0.034,0.176-0.066,0.196,0.071c0.07-0.097,0.026-0.216,0.133-0.041
		c0.079-0.104-0.049-0.245,0.199-0.185c0.081,0.021,0.181,0.135,0.249,0.127c0.092-0.01,0.035-0.043,0.072-0.105
		c0.009-0.018-0.053-0.034-0.041-0.051c0.027-0.037,0.054-0.002,0.091-0.025c0.032-0.021,0.075-0.05,0.113-0.064
		c0.085-0.037,0.185-0.041,0.25-0.088c0.033-0.022,0.06-0.095,0.097-0.125c0.053-0.045,0.183-0.078,0.183-0.146
		c-0.001-0.069-0.111-0.023-0.082-0.086c0.031-0.063,0.184-0.02,0.189-0.158c0.004-0.146-0.053-0.001-0.097,0.021
		c-0.064,0.033-0.213,0.049-0.224-0.056c-0.013-0.116,0.152-0.099,0.224-0.116c0.12-0.033,0.111-0.061,0.163-0.145
		c0.011-0.02,0.044-0.1,0.051-0.104c0.033-0.023,0.117-0.017,0.122-0.021c0.068-0.051,0.027-0.14-0.081-0.146
		c-0.079-0.002-0.2,0.086-0.275,0.014c0.028-0.014,0.039-0.037,0.071-0.051c-0.147-0.12-0.511,0.067-0.673,0.041
		c-0.03-0.006,0.034-0.07-0.066-0.036c-0.047,0.017-0.096,0.169-0.171,0.084c-0.092-0.103,0.285-0.253,0.212-0.39
		c-0.08-0.147-0.192,0.149-0.25,0.219c-0.084,0.101-0.216,0.328-0.357,0.354c-0.114,0.021-0.175-0.089-0.295-0.038
		c-0.052,0.021-0.069,0.067-0.117,0.096c-0.039,0.023-0.062-0.021-0.098,0.008c-0.042,0.031-0.036,0.091-0.061,0.132
		c-0.027,0.047-0.065,0.085-0.081,0.128c-0.011,0.029,0.029,0.046,0.017,0.075c-0.02,0.053-0.071,0.071-0.083,0.11
		c-0.022,0.066-0.003,0.129-0.021,0.174c-0.003,0.011-0.055,0.041-0.066,0.065c-0.045,0.099,0.007,0.072,0.01,0.126
		c0.005,0.096-0.033,0.151-0.051,0.247c-0.016,0.091,0.046,0.162-0.076,0.185c-0.035,0.006-0.039-0.074-0.077-0.062
		c-0.052,0.019-0.093,0.222-0.105,0.265c-0.047,0.155-0.07,0.426-0.186,0.543c-0.178,0.181-0.281-0.055-0.338-0.189
		c-0.071-0.171-0.206-0.313-0.278-0.475c-0.069-0.154,0.028-0.262-0.173-0.274c-0.015-0.001-0.002,0.047-0.041,0.04
		c-0.042-0.006-0.057-0.038-0.092-0.063c-0.093-0.06-0.173-0.141-0.267-0.201c-0.21-0.137-0.37-0.244-0.423-0.504
		c-0.015-0.074-0.044-0.211-0.014-0.287c0.031-0.075,0.109-0.096,0.159-0.157c0.107-0.13,0.042-0.128,0-0.246
		C53.25,170.759,53.289,170.598,53.172,170.598"/>
	<path fill="#E2B73B" stroke="#999999" stroke-width="0.25" stroke-linejoin="round" stroke-miterlimit="10" d="M33.398,207.372
		c0.072,0.137-0.082,0.386-0.138,0.51c-0.099,0.222-0.269,0.442-0.13,0.692c0.049,0.087,0.128,0.145,0.186,0.225
		c0.07,0.096,0.098,0.191,0.215,0.245c0.096,0.043,0.179,0.038,0.27,0.097c0.094,0.062,0.179,0.131,0.26,0.209
		c0.233,0.225,0.299,0.448,0.326,0.733c0.011,0.127,0.024,0.254-0.051,0.396c-0.054,0.104-0.286,0.105-0.097,0.256
		c0.091,0.072,0.165,0.057,0.24,0.148c0.132,0.164,0.295,0.625,0.086,0.781c-0.061,0.045-0.151,0.025-0.209,0.059
		c0.002-0.002-0.085,0.098-0.082,0.092c-0.037,0.063-0.04,0.035,0,0.1c0.031,0.045,0.132,0.121,0.184,0.154
		c0.245,0.172,0.522,0.246,0.775,0.385c0.258,0.139,0.309,0.479,0.374,0.732c0.062,0.244,0.108,0.412,0.278,0.605
		c0.12,0.139,0.413,0.467,0.138,0.607c-0.176,0.088-0.704,0.045-0.449,0.408c0.112,0.156,0.603,0.449,0.538,0.66
		c-0.027,0.088-0.258,0.246-0.329,0.313c-0.109,0.104-0.241,0.203-0.326,0.328c-0.152,0.229-0.173,0.488-0.071,0.729
		c0.077,0.185,0.126,0.438,0.395,0.396c0.114-0.021,0.078-0.075,0.135-0.101c0.038-0.041,0.044-0.116,0.081-0.151
		c0.026-0.026,0.13-0.063,0.163-0.082c0.151-0.075,0.252-0.071,0.291-0.256c0.013-0.062-0.015-0.045,0.02-0.11
		c0.015-0.027,0.07-0.048,0.087-0.07c0.033-0.049,0.026-0.121,0.051-0.174c0.031-0.065,0.093-0.113,0.122-0.185
		c0.024-0.06,0.006-0.108,0.021-0.174c0.015-0.068,0.073-0.101,0.061-0.173c-0.013-0.073-0.098-0.082-0.057-0.159
		c0.05-0.091,0.296-0.115,0.347-0.039c0.041,0.062-0.056,0.133,0.056,0.096c0.06-0.021,0.084-0.104,0.128-0.143
		c0.074-0.062,0.259-0.099,0.259-0.24c0.001-0.084-0.086-0.103-0.091-0.179c-0.008-0.11,0.047-0.063,0.117-0.092
		c0.026-0.01,0.081-0.047,0.107-0.051c0.012,0,0.102,0.006,0.102,0.006c0.043-0.021,0.052-0.062,0.092-0.099
		c0.068-0.063,0.186-0.104,0.265-0.162c-0.011,0.103-0.043,0.193-0.036,0.289c0.007,0.103,0.043,0.183,0.025,0.291
		c-0.017,0.104-0.028,0.19-0.01,0.308c0.012,0.069,0.01,0.276-0.081,0.213c0.058,0.207-0.145,0.324-0.122,0.562
		c0.016,0.183,0.13,0.336,0.122,0.522c-0.007,0.154-0.1,0.236-0.113,0.396c-0.011,0.156-0.024,0.308,0.011,0.459
		c0.039,0.175,0.031,0.291,0.005,0.47c-0.041,0.266,0.091,0.528,0.073,0.795c-0.005,0.084-0.02,0.262-0.058,0.336
		c-0.04,0.08-0.19,0.205-0.285,0.185c-0.082-0.019-0.124-0.142-0.245-0.172c0.075-0.097-0.029-0.093-0.104-0.121
		c-0.089-0.035-0.109-0.076-0.181-0.136c-0.108-0.088-0.178-0.162-0.255-0.274c-0.05-0.071-0.018-0.092-0.036-0.157
		c-0.029-0.109-0.023-0.074-0.127-0.086c-0.033-0.005-0.056,0.018-0.092,0.01c-0.026-0.004-0.067-0.063-0.082-0.062
		c-0.082,0.006-0.037,0.09-0.091,0.121c-0.161,0.092-0.198-0.201-0.296-0.183c-0.037,0.006-0.091,0.117-0.122,0.142
		c-0.031,0.026-0.137,0.133-0.168,0.147c-0.108,0.055-0.281-0.022-0.413,0.037c-0.073,0.03-0.12,0.063-0.194,0.09
		c-0.055,0.021-0.131,0.035-0.188,0.063c-0.137,0.063-0.195,0.172-0.372,0.172c-0.069,0-0.116-0.028-0.184-0.028
		c-0.019,0-0.131,0.021-0.153,0.028c-0.049,0.021-0.077,0.084-0.101,0.097c-0.017,0.008-0.026,0.026-0.052,0.039
		c-0.009,0.002-0.045-0.062-0.061-0.054c-0.085,0.039-0.045,0.045-0.05,0.103c-0.009,0.086,0.008,0.086,0.009,0.17
		c0.002,0.082,0.028,0.05-0.038,0.117c-0.088,0.09-0.105,0.021-0.13,0.144c-0.003,0.019,0.039,0.075,0.038,0.094
		c0.001-0.016-0.04,0.029-0.045,0.046c-0.131,0.409-0.139,0.903-0.204,1.329c-0.045,0.298-0.09,0.595-0.135,0.892
		c-0.021,0.136-0.007,0.416-0.082,0.531c-0.02,0.032-0.125,0.102-0.147,0.026c-0.012-0.035,0.118-0.144,0.101-0.218
		c-0.008-0.038-0.056-0.049-0.055-0.047c-0.003-0.017,0.022-0.133,0.023-0.133c-0.038-0.072-0.085-0.004-0.141-0.065
		c-0.018-0.021,0.029-0.072,0.01-0.093c-0.038-0.039-0.074,0.009-0.122-0.01c-0.051-0.021-0.109-0.099-0.173-0.111
		c-0.03-0.008-0.171,0.007-0.178-0.006c-0.023-0.034,0.091-0.137,0.091-0.188c0-0.144-0.095-0.071-0.127-0.103
		c-0.064-0.06-0.031-0.104-0.148-0.125c-0.184-0.032-0.415,0.004-0.603,0.004c-0.077,0-0.183,0.019-0.258,0
		c-0.014-0.004-0.013-0.053-0.051-0.051c-0.053,0-0.063,0.039-0.031,0.092c-0.084-0.006-0.099,0.021-0.173-0.021
		c-0.039-0.021-0.112-0.086-0.133-0.127c-0.031-0.063-0.007-0.152-0.071-0.158c-0.025-0.002-0.051,0.031-0.071,0.041
		c-0.067,0.033,0.017,0.041-0.051,0.029c-0.011-0.002-0.046-0.076-0.061-0.104c0.016,0.027-0.024-0.057-0.021-0.049
		c0-0.004-0.047-0.067-0.051-0.072c-0.06-0.057-0.097-0.045-0.092-0.152c0.006-0.105,0.064-0.104,0.011-0.162
		c-0.019-0.021-0.071-0.018-0.092-0.041c-0.017-0.021-0.016-0.076-0.031-0.104c-0.019-0.033-0.138-0.096-0.051-0.152
		c-0.024-0.006-0.01-0.009-0.03,0c-0.021-0.043-0.03-0.068-0.01-0.104c-0.024,0.008-0.031,0.002-0.051,0.014
		c0.009-0.068,0.042-0.111-0.021-0.154c-0.055-0.037-0.123,0.01-0.132,0.041c-0.044-0.021-0.022-0.049-0.051-0.082
		c-0.026-0.027-0.077-0.053-0.097-0.076c-0.057-0.064-0.068-0.111-0.199-0.137c0,0.055-0.033,0.076-0.081,0.08
		c0.013-0.059-0.012-0.137-0.092-0.111c0.004-0.053,0-0.043-0.031-0.07c-0.002,0.012,0.004,0.027,0,0.041h-0.02
		c-0.017-0.074,0.004-0.127-0.041-0.174c0.021-0.039,0.025-0.045-0.03-0.061c0.005-0.025-0.074-0.238-0.143-0.186
		c-0.062-0.033-0.063-0.133-0.102-0.152c-0.061-0.033-0.182,0.053-0.143-0.012c-0.051,0.029-0.078,0.006-0.142-0.041
		c-0.034-0.021-0.047-0.063-0.082-0.086c-0.034-0.021-0.054,0.01-0.076-0.004c-0.129-0.09-0.103-0.313-0.331-0.287
		c-0.139,0.02-0.245,0.104-0.311-0.051c-0.026-0.061-0.012-0.139-0.057-0.176c-0.046-0.035-0.119-0.002-0.168-0.033
		c-0.063-0.043-0.078-0.191-0.114-0.266c-0.07-0.137-0.148-0.104-0.288-0.146c0.035-0.072-0.022-0.27-0.133-0.268
		c0.062-0.055,0.265-0.148,0.179-0.232c-0.029-0.027-0.127,0.006-0.148-0.012c-0.059-0.047-0.022-0.109,0.071-0.102
		c-0.001-0.004-0.001-0.029,0-0.031c-0.219,0.01-0.029,0.156-0.03,0.203c-0.003,0.09-0.209,0.156-0.286,0.072
		c-0.105-0.115,0.087-0.186,0.143-0.225c0.048-0.033,0.07-0.096,0.143-0.092c0.017,0,0.05,0.061,0.05,0.061
		c0.058-0.016,0-0.035,0.031-0.07c0.042-0.049,0.044-0.08,0.082-0.154c0.028-0.055,0.087-0.107,0.163-0.061
		c-0.002-0.051-0.002-0.055,0.01-0.102c-0.032,0.033-0.047,0.031-0.071,0.021c-0.054,0.033-0.127,0.058-0.174,0.103
		c-0.049,0.045-0.054,0.123-0.163,0.11c-0.057-0.006-0.142-0.077-0.209-0.092c-0.094-0.021-0.165,0.021-0.234,0.021
		c-0.255,0-0.533-0.455-0.515-0.724c0.011-0.164,0.077-0.075,0.153-0.162c0.073-0.084-0.126-0.12-0.031-0.194
		c-0.085-0.021-0.146-0.092-0.142-0.203c-0.102,0.017-0.109,0.039-0.184,0.021c-0.02-0.006-0.025-0.061-0.061-0.053
		c-0.025,0.006-0.022,0.07-0.041,0.082c-0.143,0.08-0.24,0.053-0.295-0.07c-0.056-0.125-0.136-0.254-0.224-0.348
		c-0.103-0.109-0.327-0.033-0.153,0.051c0.041,0.021,0.168,0.016,0.142,0.094c-0.021,0.063-0.122,0-0.152-0.021
		c-0.121-0.082-0.15-0.223-0.235-0.316s-0.237-0.225-0.336-0.283c-0.105-0.064-0.239-0.084-0.367-0.113
		c-0.169-0.037-0.24-0.066-0.296-0.244c-0.041-0.129-0.162-0.275-0.153-0.416c0.058,0.066,0.207,0.143,0.153-0.063
		c-0.026-0.102-0.177-0.096-0.194-0.205c-0.025-0.164,0.348-0.316,0.459-0.377c0.142-0.074,0.306-0.109,0.387-0.326
		c0.02,0.152,0.206-0.221,0.229-0.264c0.036-0.064,0.102-0.264,0.169-0.176c0.011-0.01,0.039-0.037,0.051-0.051
		c-0.014,0.006-0.027,0.016-0.041,0.021c-0.025-0.113,0.076-0.21,0.128-0.281c0.073-0.104,0.103-0.076,0.198-0.147
		c0.07-0.051,0.057-0.149,0.133-0.203c0.099-0.069,0.17-0.088,0.244-0.157c0.137-0.127,0.225-0.214,0.347-0.353
		c0.06-0.068,0.093-0.144,0.153-0.203c0.045-0.047,0.147-0.076,0.204-0.106c0.08-0.045,0.16-0.101,0.219-0.158
		c0.069-0.067,0.21-0.159,0.311-0.243c-0.038,0.016-0.057,0.008-0.092,0.01c0.073-0.062,0.24-0.112,0.326-0.092
		c-0.003,0.026-0.01-0.007-0.02,0.01c0.004,0.008,0.022,0.021,0.02,0.031c-0.043,0.014-0.05,0.024-0.092,0.028
		c-0.003,0.015,0.011,0.019,0.011,0.03c-0.008,0.007-0.029,0.003-0.041,0.011c0.029,0.039-0.035-0.004-0.061,0.041
		c-0.01-0.006-0.015-0.013-0.01-0.03c-0.006,0.014-0.011,0.02-0.021,0.021c0.061,0.059,0.204,0.027,0.214,0.072
		c0.185,0.027,0.1,0.238-0.02,0.225c0.087,0.088,0.131-0.104,0.214-0.07c0.093,0.037-0.072,0.221-0.092,0.273
		c0.022,0.01,0.183-0.146,0.132,0.012c0.018,0.004,0.044,0.006,0.062,0c-0.115-0.121,0.113-0.377,0.214-0.336
		c0.041,0.018,0.01,0.092,0.102,0.102c0.091,0.008,0.107-0.043,0.04-0.092c0.14-0.002,0.453-0.148,0.316-0.275
		c-0.002,0.002,0.001,0.027,0,0.031c-0.014-0.01-0.018-0.02-0.03-0.031c0.011,0.025-0.02,0.014,0.01,0.02
		c-0.002,0.014,0.001,0.02,0.01,0.021c-0.021-0.008-0.04-0.012-0.061-0.021c0.015,0.027,0.003,0.016,0.021,0.031
		c-0.018,0.072-0.07,0.031-0.133,0.051c0.052-0.096,0.225-0.186,0.336-0.174v0.021c-0.113-0.004-0.009,0.1-0.051,0.152
		c-0.014-0.012-0.018-0.014-0.03-0.021c-0.001,0.03-0.005,0.061-0.011,0.092c0.138,0.096-0.077,0.146-0.145,0.152
		c-0.117,0.01-0.152,0.01-0.232,0.092c0.116,0,0.157,0.076,0.031,0.133c0.092-0.061,0.177,0.092,0.275,0.094
		c-0.017-0.02-0.269-0.17-0.101-0.152c0.059,0.006,0.05,0.055,0.101,0.102c0.048,0.045,0.26,0.09,0.153,0.182l0.02,0.021
		c0.032-0.012,0.054-0.029,0.082-0.041c-0.027-0.156-0.235-0.197-0.046-0.342c0.15-0.113,0.259,0.084,0.117,0.107
		c0.021-0.002,0.04-0.008,0.062-0.012c-0.008,0.006-0.024,0.021-0.031,0.031c0.017-0.006,0.026-0.013,0.041-0.021
		c0.005,0.022,0.018,0.049,0.02,0.071c-0.009-0.063-0.004-0.139,0.051-0.163l-0.02-0.011c0.062-0.028,0.066,0.017,0.089,0.074
		c0.019,0.047,0.004,0.104,0.022,0.151c0.024,0.063,0.076,0.117,0.104,0.179c0.025,0.053,0.127,0.237,0.055,0.241
		c-0.06,0.004-0.115-0.104-0.158-0.127c0.081,0.099,0.23,0.179,0.163,0.301c-0.068,0.128-0.398,0.041-0.398,0.179
		c0.116-0.033,0.39-0.086,0.398,0.112h0.02c-0.003-0.021-0.007-0.041-0.01-0.062c0.046-0.047,0.107-0.161,0.204-0.143
		c-0.098-0.021-0.03-0.406-0.051-0.521c-0.018-0.101-0.082-0.289,0.041-0.296c0.03-0.002,0.071,0.052,0.081,0.072
		c0.049,0.086,0.027,0.146,0.102,0.203c0.017,0.012,0.088,0.034,0.102,0.051c0.035,0.041,0.004,0.058-0.051,0.031
		c0.028,0.08,0.1,0.063,0.133,0c0.025-0.054-0.03-0.188,0.01-0.222c0.069-0.051,0.074,0.123,0.087,0.158
		c0.028,0.079,0.16,0.19,0.178,0.271c0.026,0.117-0.087,0.111-0.123,0.219c0.103,0,0.23-0.021,0.212-0.176
		c-0.01-0.092-0.135-0.197-0.171-0.248c-0.051-0.072-0.09-0.201,0.061-0.197c-0.008-0.01-0.01-0.002-0.02-0.012
		c0.046-0.141,0.123-0.057,0.235-0.029c0.064,0.016,0.118-0.008,0.163,0.021c0.048,0.029,0.078,0.17,0.132,0.162
		c-0.038-0.047-0.032-0.117,0-0.152c-0.089-0.037,0.012-0.152,0.082-0.152c0.058,0,0.163,0.055,0.265,0.051
		c0.189-0.008,0.348-0.088,0.509-0.082c0.109,0.006,0.162,0.066,0.194,0.145c-0.101-0.02-0.184,0.02-0.286-0.012
		c0.013,0.059,0.063,0.068,0.092,0.117c0.033,0.059,0.043,0.098,0.071,0.141c0.088,0.125,0.016,0.328,0.011,0.498
		c0.001,0.002,0.035,0.021,0.03,0.021c-0.002-0.104,0.04-0.304,0.082-0.384c0.038-0.073,0.108-0.104,0.184-0.065
		c0.1,0.049,0.281,0.19,0.305,0.295c0.038,0.162-0.136,0.138-0.234,0.236c0.075-0.041,0.173-0.05,0.219-0.072
		c0.042-0.021,0.082-0.051,0.107-0.082c0.023-0.028,0.044-0.092,0.071-0.11c0.055-0.041,0.111,0.019,0.122-0.072
		c-0.265,0.031-0.125-0.264-0.132-0.432c-0.004-0.111-0.033-0.218,0.066-0.24c0.055-0.015,0.108,0.015,0.148,0
		c0.002,0,0.079-0.069,0.097-0.082c0.05-0.03,0.035-0.063,0.117-0.03c0.054,0.022,0.036,0.075,0.122,0.071
		c-0.073-0.041-0.07-0.104-0.168-0.133c-0.053-0.017-0.088,0.026-0.127-0.011c-0.037-0.034-0.044-0.178-0.041-0.226
		c0.002-0.032,0.05-0.053,0.051-0.081c0.001-0.021-0.032-0.033-0.031-0.056c0.004-0.039-0.006-0.078,0.011-0.117
		c0.041-0.094,0.089-0.118,0.112-0.239c0.028-0.144,0.099-0.132,0.132-0.22c-0.113,0.007-0.149,0.076-0.194-0.041
		c-0.004-0.012,0.009-0.077,0.006-0.098c-0.009-0.046-0.03-0.07-0.036-0.121c-0.009-0.082,0.045-0.164,0.01-0.254
		c-0.012-0.035-0.157-0.134-0.081-0.209c0.099-0.104,0.124,0.096,0.245,0.002c0.075-0.062,0.12-0.152,0.05-0.218
		c0.181-0.041,0.005-0.414,0-0.533c-0.006-0.176-0.071-0.367-0.117-0.521c-0.039-0.134-0.052-0.119-0.015-0.25
		c0.022-0.082,0.045-0.166,0.071-0.224c0.039-0.089,0.031-0.244,0.092-0.367c0.018-0.036,0.052-0.042,0.071-0.092
		c0.012-0.031-0.007-0.07,0.005-0.106C33.225,207.449,33.299,207.367,33.398,207.372"/>
	<path fill="#E2B73B" stroke="#999999" stroke-width="0.25" stroke-linejoin="round" stroke-miterlimit="10" d="M37.486,223.577
		c-0.024-0.072-0.243-0.386-0.082-0.408c-0.007-0.019-0.011-0.033-0.02-0.051c0.069-0.054,0.033-0.119-0.031-0.152
		c-0.006-0.004-0.047,0.027-0.076,0.011c-0.061-0.037-0.001-0.035-0.025-0.065c-0.035-0.043-0.072-0.068-0.107-0.121
		c-0.04-0.062-0.02-0.092-0.016-0.17c-0.066,0.032-0.101-0.035-0.158-0.056c0.029,0.011-0.103,0.037-0.071,0.035
		c0.025,0,0.012-0.076-0.041-0.056c-0.063,0.022-0.019,0.162-0.071,0.203c-0.052,0.041-0.203-0.017-0.138,0.096
		c-0.084,0.031-0.062-0.061-0.155-0.079c-0.074-0.017-0.142,0.075-0.201,0.021c0.032,0.139-0.091,0.104-0.138,0.103
		c-0.047-0.003-0.172,0.028-0.23,0.071c-0.086,0.063-0.044,0.117-0.112,0.192c-0.04,0.046-0.096,0.089-0.163,0.134
		c-0.198,0.127-0.244-0.218-0.484-0.106c0.021-0.011-0.082,0.122-0.066,0.092c-0.022,0.043-0.077,0.004-0.015,0.092
		c0.031,0.043,0.232,0.074,0.122,0.193c-0.045,0.049-0.253-0.013-0.296-0.074c-0.027-0.039-0.029-0.121-0.043-0.17
		c-0.016-0.056-0.098-0.113-0.003-0.117c-0.008-0.053,0.02-0.063,0.038-0.125c0.003-0.008-0.002-0.075-0.007-0.067
		c0.023-0.028,0.05-0.021,0.046-0.017c0.002-0.002,0.034,0.026,0.056,0.011c0.038-0.029-0.002-0.037,0.01-0.065
		c0.026-0.06,0-0.07-0.005-0.106c-0.018-0.119-0.075-0.14-0.168-0.188c-0.036-0.021-0.008-0.107-0.074-0.033
		c-0.034,0.033-0.005,0.109-0.028,0.137c-0.045,0.049-0.09-0.006-0.133,0.021c-0.047,0.027-0.034,0.087-0.076,0.115
		c-0.012,0.01-0.105,0.012-0.117,0.006c0.01,0.006-0.069-0.01-0.061-0.008c0.014,0.002-0.017-0.07-0.021-0.074
		c-0.013-0.01-0.05,0.041-0.066,0.021c-0.013-0.016-0.023-0.051-0.036-0.064c-0.012-0.02,0.024-0.059,0.011-0.076
		c-0.015-0.021-0.059-0.014-0.082-0.029c-0.157-0.117-0.089,0.031-0.24,0.057c-0.17,0.025-0.051-0.174-0.157-0.199
		c0.016,0.004-0.187,0.035-0.143,0.01c-0.06,0.035-0.05,0.105-0.102,0.144c0.096-0.625,0.191-1.252,0.287-1.877
		c0.042-0.272,0.04-0.616,0.134-0.88c0.003-0.01,0.044-0.094,0.043-0.07c0.002-0.035-0.055-0.117-0.026-0.18
		c0.042-0.088,0.151-0.045,0.168-0.152c0.014-0.084-0.018-0.084-0.025-0.134c0,0.002-0.005-0.127-0.01-0.121
		c0.063-0.075,0.118,0.013,0.183-0.021c0.006-0.004,0.021-0.078,0.041-0.092c0.034-0.023,0.076-0.002,0.112-0.012
		c0.056-0.014,0.105-0.027,0.163-0.029c0.086-0.004,0.173,0.025,0.275,0c0.11-0.029,0.141-0.107,0.245-0.152
		c0.09-0.041,0.184-0.039,0.275-0.082c0.095-0.047,0.166-0.1,0.285-0.102c0.138-0.004,0.14,0.027,0.245-0.053
		c0.081-0.063,0.143-0.146,0.214-0.193c0.125-0.084,0.073,0.023,0.163,0.102c0.029,0.025,0.068,0.041,0.115,0.039
		c0.091-0.004,0.026-0.016,0.084-0.059c0.048-0.035,0.008-0.061,0.076-0.061c0.009-0.002,0.085,0.057,0.123,0.061
		c0.056,0.006,0.099-0.063,0.153,0c0.051,0.061-0.021,0.076-0.011,0.133c0.012,0.063,0.106,0.188,0.153,0.244
		c0.063,0.072,0.163,0.166,0.245,0.225c0.067,0.048,0.296,0.043,0.204,0.164c0.118,0.031,0.138,0.123,0.214,0.162
		c0.089,0.047,0.203-0.043,0.265-0.112c0.084-0.093,0.065-0.177,0.082-0.296c0.034-0.256-0.066-0.512-0.062-0.771
		c0.003-0.183,0.057-0.322,0.026-0.5c-0.027-0.156-0.047-0.297-0.036-0.459c0.005-0.064,0.001-0.142,0.02-0.203
		c0.021-0.066,0.068-0.101,0.092-0.164c0.058-0.15-0.035-0.357-0.071-0.498c-0.048-0.184-0.052-0.287,0.041-0.443
		c0.054-0.092,0.069-0.158,0.04-0.26c0.104,0.068,0.091-0.182,0.082-0.262c-0.015-0.135,0.01-0.215,0.02-0.342
		c0.011-0.127-0.04-0.216-0.02-0.343c0.008-0.05,0.007-0.123,0.028-0.173c0.029-0.066,0.081-0.057,0.114-0.105
		c0.031-0.045,0.008-0.129,0.052-0.162c0.057-0.045,0.099,0.022,0.153-0.021c0.04-0.033,0.072-0.287,0.096-0.347
		c0.052-0.132,0.078-0.263,0.015-0.377c-0.046-0.086-0.17-0.166-0.145-0.271c0.011-0.045,0.076-0.119,0.095-0.168
		c0.015-0.039,0.058-0.119,0.086-0.17c0.022-0.041,0.096-0.15,0.056-0.197c-0.036-0.043-0.14,0.039-0.193-0.041
		c0.053-0.008,0.161-0.072,0.203-0.111c0.041-0.037,0.056-0.117,0.092-0.162c0.045-0.059,0.109-0.119,0.143-0.01
		c0.034,0.109-0.06,0.26-0.021,0.387c0.037,0.119,0.148,0.199,0.169,0.326c0.021,0.131-0.031,0.191,0.161,0.201
		c0.109,0.006,0.174-0.029,0.236-0.08c0.052-0.041,0.087-0.125,0.158-0.143c0.106-0.025,0.172,0.072,0.265-0.031
		c0.071-0.076,0.042-0.295,0.133-0.346c0.088-0.049,0.212,0.092,0.31,0.133c0.172,0.07,0.309-0.063,0.47-0.102
		c0.193-0.051,0.393,0.01,0.586-0.041c0.18-0.047,0.24-0.252,0.427-0.205c0.068,0.018,0.129,0.053,0.194,0.07
		c0.027,0.01,0.067-0.002,0.092,0.012c0.036,0.018,0.049,0.045,0.086,0.064c0.112,0.063,0.25,0.158,0.372,0.182
		c0.133,0.021,0.288-0.107,0.388-0.189c0.117-0.096,0.203-0.213,0.336-0.291c0.108-0.063,0.098-0.061,0.153-0.168
		c0.045-0.086,0.095-0.143,0.161-0.217c0.285-0.318,0.577,0.021,0.874-0.154c0.058-0.035,0.099-0.111,0.155-0.156
		c0.054-0.043,0.109-0.063,0.156-0.119c0.032-0.039,0.056-0.088,0.091-0.127c0.016-0.018,0.043,0.006,0.066-0.021
		c0.018-0.021,0.01-0.068,0.031-0.087c0.052-0.045,0.253-0.131,0.331-0.123c0.047,0.005,0.094,0.044,0.153,0.041
		c0.025,0,0.023-0.051,0.051-0.051c0.019,0,0.041,0.033,0.061,0.031c0.039-0.007,0.065,0.021,0.102,0.01
		c0.02-0.006,0.015-0.043,0.031-0.051c0.034-0.021,0.104-0.05,0.132-0.082c0.069-0.08,0.096-0.197,0.184-0.254
		c0.031-0.021,0.119-0.048,0.137-0.063c0.042-0.035,0.034-0.084,0.072-0.134c0.043-0.056,0.201-0.125,0.291-0.103
		c-0.004,0,0.105,0.121,0.081,0.185c-0.009,0.021-0.11,0.05-0.133,0.062c-0.052,0.029-0.069,0.054-0.112,0.082
		c-0.125,0.09-0.413,0.11-0.377,0.295c0.002,0.015,0.055,0.052,0.061,0.095c0.006,0.038-0.013,0.106-0.041,0.131
		c-0.089,0.078-0.195-0.035-0.285-0.039c-0.089-0.006-0.173,0.053-0.245,0.08c-0.083,0.032-0.142,0.03-0.234,0.041
		c-0.131,0.014-0.466,0.094-0.438,0.274c0.006,0.041,0.056,0.072,0.071,0.11c0.017,0.046,0.016,0.091,0.026,0.14
		c0.025,0.131,0.047,0.158-0.016,0.274c-0.055,0.104-0.096,0.147-0.224,0.097c-0.004,0.142,0.012,0.271-0.104,0.369
		c-0.093,0.079-0.204,0.096-0.273,0.2c-0.074,0.115,0.011,0.293-0.082,0.397c-0.12,0.138-0.204-0.032-0.3-0.106
		c-0.08-0.062-0.164-0.104-0.26-0.065c-0.077,0.031-0.157,0.144-0.163,0.226c-0.005,0.063,0.053,0.112,0.03,0.185
		c0.227,0.008,0.214,0.271,0.377,0.336c0.107,0.043,0.127-0.048,0.224-0.041c0.118,0.01,0.131,0.104,0.184,0.185
		c0.09,0.139,0.231,0.194,0.347,0.338c0.045,0.056,0.091,0.144,0.112,0.224c0.027,0.104-0.029,0.144,0.051,0.185
		c0.026,0.014,0.075-0.011,0.122,0.012c0.041,0.017,0.037,0.069,0.092,0.069c0.006,0,0.098-0.049,0.112-0.051
		c0.05-0.012,0.087,0.019,0.143-0.01c-0.018,0.094,0.039,0.229,0.091,0.319c0.117,0.198,0.243-0.06,0.296,0.006
		c0.055,0.065-0.097,0.108-0.122,0.162c-0.036,0.076,0.009,0.08,0.02,0.151c0.024,0.149-0.084,0.19-0.092,0.291
		c-0.015,0.19,0.149,0.047,0.245,0.129c0.089,0.074,0.011,0.065-0.036,0.103c-0.05,0.037-0.099,0.054-0.148,0.132
		c-0.081,0.131-0.015,0.073-0.005,0.188c0.007,0.071-0.025,0.098-0.051,0.174c-0.018,0.056-0.008,0.129-0.046,0.179
		c-0.065,0.088-0.071,0.021-0.152,0.041c-0.098,0.022-0.316,0.153-0.367,0.243c-0.027,0.048-0.058,0.146,0.005,0.179
		c0.068,0.035,0.114-0.09,0.178,0.017c-0.077,0.098-0.121,0.37-0.265,0.389c0.035,0.049,0.07,0.062,0.099,0.125
		c0.013,0.024,0.078,0.181,0.08,0.205c0.003,0.065-0.053,0.125-0.067,0.188c-0.011,0.054-0.006,0.125-0.017,0.187
		c-0.055,0.281-0.277,0.404-0.533,0.467c-0.027,0.007-0.117,0.045-0.143,0.031c-0.058-0.037,0.008-0.099-0.01-0.14
		c-0.055-0.123-0.171-0.084-0.286-0.075c-0.145,0.008-0.163-0.072-0.285-0.134c-0.095-0.049-0.227-0.041-0.331-0.069
		c-0.045-0.015-0.114-0.056-0.163-0.041c-0.09,0.021-0.05,0.092-0.138,0.103c-0.066,0.006-0.097-0.043-0.152-0.062
		c-0.073-0.025-0.165-0.004-0.225-0.054c0,0.056,0.017,0.158-0.02,0.193c-0.053,0.053-0.113-0.021-0.184-0.011
		c-0.1,0.019-0.406,0.298-0.234,0.379c-0.039,0.052-0.098,0.048-0.143,0.087c-0.054,0.045-0.118,0.137-0.163,0.198
		c0.156,0.115,0.175,0.343,0.153,0.515c-0.024,0.19-0.023,0.392,0,0.627c0.014,0.147,0.02,0.297,0.071,0.418
		c0.042,0.101,0.037,0.172,0.051,0.233c0.02,0.082,0.109,0.131,0.163,0.188c0.102,0.108,0.065,0.142-0.005,0.25
		c-0.069,0.108-0.081,0.104-0.209,0.076c-0.137-0.029-0.106,0.021-0.229,0.058c-0.107,0.03-0.144-0.033-0.25-0.029
		c-0.106,0.002-0.136,0.084-0.204,0.131c-0.049,0.037-0.133,0.029-0.183,0.063c-0.033,0.021-0.027,0.045-0.061,0.063
		c-0.035,0.016-0.089,0.004-0.122,0.02c-0.105,0.055-0.047,0.125-0.098,0.234c-0.022,0.049-0.05,0.053-0.071,0.088
		c-0.01,0.018-0.044,0.018-0.056,0.045c-0.011,0.027,0.02,0.059,0.01,0.082c-0.055,0.137-0.203,0.148-0.355,0.203
		c-0.385,0.143-0.77,0.283-1.156,0.424C38.721,223.126,38.103,223.352,37.486,223.577"/>
</g>
<path fill="#E2B73B" stroke="#999999" stroke-width="0.25" stroke-linejoin="round" stroke-miterlimit="10" d="M41.175,196.385
	c-0.032,0.17,0.094,0.313,0.143,0.453c0.065,0.189-0.043,0.438,0.071,0.616c0.041,0.063,0.128,0.094,0.143,0.174
	c0.017,0.091-0.068,0.19-0.112,0.254c-0.114,0.169-0.163,0.31-0.112,0.521c0.035,0.148,0.268,0.277,0.081,0.414
	c-0.095,0.068-0.13-0.012-0.163,0.127c-0.007,0.026,0.019,0.06,0.011,0.093c-0.012,0.043-0.062,0.063-0.072,0.104
	c-0.021,0.07-0.008,0.139,0.076,0.188c0.111,0.066,0.079-0.014,0.179-0.045c0.096-0.032,0.21,0.031,0.275,0.091
	c0.035,0.032,0.062,0.03,0.082,0.077c0.027,0.064-0.04,0.119,0.015,0.188c0.082,0.104,0.17,0.075,0.173,0.234
	c0.002,0.089-0.062,0.164-0.066,0.244c-0.009,0.166,0.098,0.138,0.206,0.191c0.141,0.067,0.072,0.108,0.105,0.217
	c0.026,0.086,0.118,0.134,0.168,0.203c0.033,0.047,0.044,0.106,0.112,0.151c0.004,0.003,0.071-0.004,0.102,0.021
	c0.045,0.035,0.04,0.063,0.061,0.111c0.031,0.069,0.066,0.123,0.092,0.193c0.029,0.082,0.031,0.23,0.092,0.301
	c0.051,0.061,0.087,0.014,0.122,0.098c0.016,0.039-0.033,0.047-0.02,0.082c0.025,0.068,0.073,0.137,0.101,0.203
	c0.038,0.086,0.021,0.103,0.113,0.157c0.087,0.056,0.147,0.067,0.216,0.153c0.109,0.135,0.199,0.259,0.315,0.387
	c0.118,0.128,0.012,0.305,0.087,0.484c0.066,0.16,0.205,0.281,0.319,0.408c0.056,0.062,0.105,0.127,0.138,0.203
	c0.015,0.034,0.021,0.075,0.035,0.11c0.021,0.051,0.076,0.103,0.092,0.146c0.09,0.229-0.148,0.237-0.234,0.387
	c-0.036,0.061-0.014,0.177-0.031,0.244c-0.023,0.095-0.071,0.174-0.107,0.266c-0.079,0.199-0.109,0.311,0.025,0.488
	c0.068,0.09,0.105,0.119,0.147,0.218c0.043,0.103,0.058,0.209,0.146,0.282c0.126,0.104,0.371,0.104,0.523,0.162
	c0.158,0.063,0.319,0.139,0.449,0.246c0.168,0.139,0.388,0.33,0.468,0.539c0.024,0.063,0.011,0.147,0.041,0.184
	c-0.042,0.145,0.15,0.365,0.275,0.244c0.015,0.039,0.172,0.099,0.22,0.106c0.056,0.013,0.08-0.024,0.145,0
	c0.061,0.024,0.091,0.093,0.145,0.128c0.208,0.139,0.413,0.213,0.607,0.375c0.149,0.127,0.304,0.241,0.509,0.317
	c0.221,0.082,0.457,0.022,0.668,0.081c0.148,0.041,0.227,0.126,0.389,0.014c0.163-0.111,0.101-0.253,0.171-0.391
	c0.02-0.039,0.096-0.092,0.128-0.135c0.036-0.049,0.024-0.092,0.092-0.109c0.1-0.029,0.238,0.087,0.346,0.014
	c0.066-0.047,0.032-0.109,0.122-0.15c0.072-0.031,0.07-0.012,0.138,0.006c0.051,0.013,0.089,0.033,0.158,0.041
	c0.044,0.004,0.104,0.012,0.142,0.021c0.095,0.019,0.174,0.067,0.281,0.07c0.043,0.001,0.178-0.002,0.183-0.063
	c0.001-0.004-0.113-0.113-0.125-0.138c-0.05-0.104-0.067-0.262-0.071-0.375c-0.001-0.024-0.029-0.045-0.028-0.067
	c0.002-0.03,0.056-0.055,0.051-0.071c-0.01-0.039-0.07-0.048-0.082-0.093c-0.037-0.151,0.057-0.303-0.035-0.471
	c-0.038-0.068-0.089-0.115-0.084-0.195c0.003-0.061,0.062-0.051,0.048-0.158c-0.006-0.047-0.008-0.08-0.041-0.112
	c0.044-0.089,0.127-0.084,0.143-0.174c0.02-0.108-0.076-0.09-0.107-0.157c-0.02-0.044,0.019-0.063,0.01-0.104
	c-0.008-0.036-0.039-0.084-0.046-0.129c-0.006-0.041,0.026-0.065,0.02-0.109c-0.003-0.033-0.048-0.068-0.05-0.105
	c-0.009-0.168,0.242-0.205,0.367-0.271c0.153-0.081,0.215-0.233,0.356-0.337c0.038-0.025-0.002-0.063,0.061-0.07
	c0.045-0.008,0.07,0.041,0.102,0.057c0.103,0.049,0.127,0.027,0.225,0.037c0.109,0.008,0.131,0.006,0.234-0.021
	c0.085-0.021,0.122-0.018,0.214,0.006c0.145,0.035,0.391,0.166,0.5-0.006c0.031-0.049,0.024-0.143,0.011-0.195
	c-0.009-0.039-0.057-0.072-0.052-0.109c0.01-0.068,0.106-0.151,0.133-0.213c0.017-0.043,0.011-0.107,0.03-0.145
	c0.018-0.033,0.087-0.063,0.102-0.092c0.026-0.053,0.032-0.206,0.031-0.271c-0.001-0.021-0.014-0.09-0.026-0.105
	c-0.027-0.04-0.103-0.037-0.117-0.063c-0.04-0.07,0.009-0.168,0.071-0.193c0.1-0.039,0.116,0.035,0.209-0.082
	c0.082-0.104,0.074-0.117,0.24-0.11c0.145,0.005,0.325,0.065,0.443,0.134c0.069,0.037,0.135,0.082,0.214,0.11
	c0.111,0.041,0.122,0.071,0.214,0.144c0.062,0.049,0.153,0.076,0.229,0.111c0.112,0.053,0.104,0.063,0.194-0.01
	c0.093-0.073,0.076-0.088,0.214-0.071c0.105,0.013,0.179,0.002,0.255,0.081c0.07,0.072,0.061,0.148,0.107,0.225
	c0.038,0.063,0.116,0.144,0.168,0.193c0.052,0.055,0.121,0.111,0.178,0.168c0.018,0.02,0.081,0.057,0.087,0.066
	c0.019,0.035-0.002,0.063,0.015,0.102c0.03,0.066,0.056,0.152,0.087,0.215c0.052,0.103,0.076,0.039,0.142,0.092
	c0.092,0.073-0.117,0.25-0.132,0.347c-0.02,0.134,0.094,0.296,0.153,0.43c0.03,0.068,0.03,0.154,0.071,0.204
	c-0.054,0.004-0.082,0.032-0.112,0.07c0.058,0.046,0.026,0.089,0.02,0.152c-0.001,0.017-0.031,0.033-0.03,0.065
	s0.041,0.048,0.041,0.062c0,0.086-0.113,0.256-0.183,0.301c-0.033,0.021-0.075-0.014-0.108,0.017
	c-0.047,0.042-0.019,0.063-0.035,0.117c-0.006,0.021-0.019,0.089-0.026,0.103c-0.011,0.021-0.059,0.014-0.071,0.039
	c-0.044,0.096-0.037,0.217-0.082,0.317c-0.062,0.143-0.198,0.215-0.249,0.347c-0.07,0.184,0.099,0.296,0.234,0.396
	c0.212,0.16,0.619,0.24,0.507,0.589c-0.054,0.168-0.057,0.282-0.038,0.462c0.018,0.168,0.019,0.221-0.148,0.245
	c-0.14,0.019-0.206-0.062-0.331-0.063c-0.111-0.001-0.193,0.146-0.306,0.123c-0.279-0.056-0.155-0.697-0.469-0.592
	c-0.153,0.052-0.217,0.18-0.382,0.193c-0.166,0.015-0.277-0.119-0.433-0.107c-0.288,0.021-0.442,0.371-0.744,0.413
	c-0.135,0.019-0.277,0.002-0.397,0.071c-0.114,0.064-0.064,0.088-0.098,0.172c-0.024,0.063-0.076,0.097-0.111,0.164
	c-0.077,0.146,0.004,0.313-0.057,0.47c-0.082,0.21-0.208,0.188-0.382,0.124c-0.302-0.109-0.48-0.434-0.795-0.49
	c-0.153-0.027-0.375-0.064-0.535-0.063c-0.147,0.002-0.251,0.117-0.387,0.133c-0.047,0.005-0.134-0.014-0.174,0.031
	c-0.049,0.055,0,0.119-0.03,0.178c-0.001,0.001-0.113,0.1-0.128,0.111c-0.06,0.053-0.073,0.069-0.147,0.065
	c-0.128-0.007-0.184-0.044-0.322,0.021c-0.046,0.023-0.117,0.063-0.157,0.089c-0.097,0.069-0.115,0.173-0.215,0.146
	c-0.254-0.068-0.23-0.412-0.499-0.447c-0.109-0.016-0.066,0.037-0.153,0.057c-0.047,0.01-0.102-0.033-0.138-0.077
	c-0.07-0.087-0.128-0.199-0.28-0.142c-0.055,0.021-0.089,0.115-0.158,0.109c-0.074-0.005-0.055-0.095-0.127-0.092
	c-0.045,0.003-0.055,0.063-0.087,0.071c-0.032,0.008-0.063-0.013-0.086-0.011c-0.055,0.004-0.111,0.018-0.158,0.021
	c-0.116,0.016-0.241-0.021-0.337,0.008c-0.122,0.04-0.166,0.137-0.306,0.153c-0.303,0.036-0.483-0.291-0.703-0.468
	c-0.113-0.09-0.206-0.157-0.127-0.309c-0.028,0.008-0.047,0.002-0.072,0.012c-0.007-0.055-0.073-0.08-0.106-0.145
	c-0.017-0.029-0.084-0.146-0.087-0.158c-0.014-0.072,0.095-0.342,0.193-0.341c-0.047-0.032-0.081,0-0.127-0.017
	c-0.062-0.021-0.056-0.047-0.094-0.07c-0.158-0.107-0.08-0.1-0.084-0.255c-0.004-0.124-0.113-0.208-0.169-0.312
	c-0.024-0.045-0.021-0.11-0.045-0.154c-0.033-0.055-0.097-0.07-0.133-0.115c-0.061-0.076-0.052-0.041,0-0.139
	c0.028-0.053,0.042-0.056,0.061-0.111c0.012-0.035,0.03-0.098,0.036-0.128c0.007-0.036,0.058-0.036,0.031-0.093
	c-0.026-0.051-0.067,0.013-0.097-0.016c-0.101-0.087-0.069-0.193-0.199-0.244c-0.112-0.043-0.258-0.023-0.372,0
	c-0.137,0.029-0.278,0.063-0.405,0.03c-0.112-0.028-0.108-0.101-0.135-0.198c-0.021-0.076,0.004-0.273-0.046-0.328
	c-0.079-0.086-0.104,0.057-0.156,0.116c-0.058,0.069-0.144,0.132-0.197,0.212c-0.08,0.118-0.087,0.329-0.256,0.387
	c-0.033,0.014-0.045,0.011-0.097-0.004c-0.071-0.02-0.026,0.002-0.054-0.021c-0.009-0.009,0.004-0.047-0.009-0.063
	c-0.032-0.03-0.077-0.015-0.082-0.02c-0.084-0.076-0.138-0.152-0.25-0.204c-0.09-0.042-0.082-0.051-0.168,0.031
	c-0.096,0.09-0.083,0.063-0.188,0.08c-0.04,0.007-0.093,0.048-0.133,0.041c-0.113-0.017-0.042-0.063-0.076-0.111
	c-0.084-0.118-0.32-0.047-0.424,0.021c-0.116,0.076-0.028,0.043-0.051,0.152c-0.032,0.159-0.089,0.104-0.16,0.038
	c-0.139-0.124-0.215-0.229-0.415-0.159c-0.029,0.008-0.044,0.045-0.077,0.051c-0.052,0.007-0.019-0.032-0.056-0.041
	c-0.031-0.008-0.101-0.022-0.122-0.035c-0.013-0.008-0.133-0.092-0.138-0.098c-0.046-0.06-0.033-0.115-0.005-0.184
	c-0.098-0.014-0.11-0.037-0.204-0.041c-0.105-0.004-0.114-0.031-0.219-0.074c-0.111-0.045-0.123,0.01-0.219,0.014
	c-0.1,0.002-0.185-0.078-0.296-0.062c0.051-0.856,0.059-1.717,0.216-2.562c0.075-0.404,0.168-0.799,0.18-1.211
	c0.015-0.479,0.032-0.955,0.043-1.433c0.008-0.339,0.01-0.756-0.051-1.05c-0.02-0.098-0.068-0.18-0.082-0.28
	c-0.014-0.108,0.005-0.221,0.021-0.315c0.024-0.15-0.01-0.139-0.041-0.274c-0.012-0.051,0.028-0.11,0.01-0.16
	c-0.018-0.048-0.056-0.053-0.082-0.084c-0.077-0.098-0.033-0.054-0.04-0.163c-0.008-0.115-0.029-0.108-0.123-0.152
	c-0.259-0.117-0.126-0.231-0.066-0.465c0.052-0.197,0.057-0.515-0.076-0.678c0.191-0.121,0.047-0.201-0.036-0.352
	c-0.072-0.133-0.028-0.29-0.079-0.434c-0.047-0.133-0.139-0.217-0.204-0.334c-0.108-0.199,0.034-0.143,0.184-0.158
	c0.158-0.017,0.324-0.076,0.472-0.127c0.123-0.041,0.281-0.174,0.412-0.142c0.094,0.022,0.1,0.075,0.127,0.149
	c0.013,0.031,0.002,0.068,0.016,0.104c0.012,0.032,0.064,0.072,0.071,0.102c0.035,0.146-0.274,0.234-0.036,0.361
	c0.077,0.043,0.18,0.021,0.262,0.041c0.064,0.016,0.203,0.125,0.276,0.09c0.07-0.035,0.026-0.129,0.079-0.17
	C41.014,196.268,41.126,196.332,41.175,196.385z"/>
</svg>
