<?xml version="1.0" encoding="utf-8"?>
<!-- Generator: Adobe Illustrator 16.0.0, SVG Export Plug-In . SVG Version: 6.00 Build 0)  -->
<!DOCTYPE svg PUBLIC "-//W3C//DTD SVG 1.1//EN" "http://www.w3.org/Graphics/SVG/1.1/DTD/svg11.dtd">
<svg version="1.1" xmlns="http://www.w3.org/2000/svg" xmlns:xlink="http://www.w3.org/1999/xlink" x="0px" y="0px" width="265px"
	 height="338px" viewBox="0 0 265 338" enable-background="new 0 0 265 338" xml:space="preserve">
<g id="Layer_1">
	<path display="none" fill="#E2B73B" stroke="#999999" stroke-width="0.25" stroke-linejoin="round" stroke-miterlimit="10" d="
		M41.175,196.385c-0.032,0.17,0.094,0.313,0.143,0.453c0.065,0.189-0.043,0.438,0.071,0.616c0.041,0.063,0.128,0.094,0.143,0.174
		c0.017,0.091-0.068,0.19-0.112,0.254c-0.114,0.169-0.163,0.31-0.112,0.521c0.035,0.148,0.268,0.277,0.081,0.414
		c-0.095,0.068-0.13-0.012-0.163,0.127c-0.007,0.026,0.019,0.06,0.011,0.093c-0.012,0.043-0.062,0.063-0.072,0.104
		c-0.021,0.07-0.008,0.139,0.076,0.188c0.111,0.066,0.079-0.014,0.179-0.045c0.096-0.032,0.21,0.031,0.275,0.091
		c0.035,0.032,0.062,0.03,0.082,0.077c0.027,0.064-0.04,0.119,0.015,0.188c0.082,0.104,0.17,0.075,0.173,0.234
		c0.002,0.089-0.062,0.164-0.066,0.244c-0.009,0.166,0.098,0.138,0.206,0.191c0.141,0.067,0.072,0.108,0.105,0.217
		c0.026,0.086,0.118,0.134,0.168,0.203c0.033,0.047,0.044,0.106,0.112,0.151c0.004,0.003,0.071-0.004,0.102,0.021
		c0.045,0.035,0.04,0.063,0.061,0.111c0.031,0.069,0.066,0.123,0.092,0.193c0.029,0.082,0.031,0.23,0.092,0.301
		c0.051,0.061,0.087,0.014,0.122,0.098c0.016,0.039-0.033,0.047-0.02,0.082c0.025,0.068,0.073,0.137,0.101,0.203
		c0.038,0.086,0.021,0.103,0.113,0.157c0.087,0.056,0.147,0.067,0.216,0.153c0.109,0.135,0.199,0.259,0.315,0.387
		c0.118,0.128,0.012,0.305,0.087,0.484c0.066,0.16,0.205,0.281,0.319,0.408c0.056,0.062,0.105,0.127,0.138,0.203
		c0.015,0.034,0.021,0.075,0.035,0.11c0.021,0.051,0.076,0.103,0.092,0.146c0.09,0.229-0.148,0.237-0.234,0.387
		c-0.036,0.061-0.014,0.177-0.031,0.244c-0.023,0.095-0.071,0.174-0.107,0.266c-0.079,0.199-0.109,0.311,0.025,0.488
		c0.068,0.09,0.105,0.119,0.147,0.218c0.043,0.103,0.058,0.209,0.146,0.282c0.126,0.104,0.371,0.104,0.523,0.162
		c0.158,0.063,0.319,0.139,0.449,0.246c0.168,0.139,0.388,0.33,0.468,0.539c0.024,0.063,0.011,0.147,0.041,0.184
		c-0.042,0.145,0.15,0.365,0.275,0.244c0.015,0.039,0.172,0.099,0.22,0.106c0.056,0.013,0.08-0.024,0.145,0
		c0.061,0.024,0.091,0.093,0.145,0.128c0.208,0.139,0.413,0.213,0.607,0.375c0.149,0.127,0.304,0.241,0.509,0.317
		c0.221,0.082,0.457,0.022,0.668,0.081c0.148,0.041,0.227,0.126,0.389,0.014c0.163-0.111,0.101-0.253,0.171-0.391
		c0.02-0.039,0.096-0.092,0.128-0.135c0.036-0.049,0.024-0.092,0.092-0.109c0.1-0.029,0.238,0.087,0.346,0.014
		c0.066-0.047,0.032-0.109,0.122-0.15c0.072-0.031,0.07-0.012,0.138,0.006c0.051,0.013,0.089,0.033,0.158,0.041
		c0.044,0.004,0.104,0.012,0.142,0.021c0.095,0.019,0.174,0.067,0.281,0.07c0.043,0.001,0.178-0.002,0.183-0.063
		c0.001-0.004-0.113-0.113-0.125-0.138c-0.05-0.104-0.067-0.262-0.071-0.375c-0.001-0.024-0.029-0.045-0.028-0.067
		c0.002-0.03,0.056-0.055,0.051-0.071c-0.01-0.039-0.07-0.048-0.082-0.093c-0.037-0.151,0.057-0.303-0.035-0.471
		c-0.038-0.068-0.089-0.115-0.084-0.195c0.003-0.061,0.062-0.051,0.048-0.158c-0.006-0.047-0.008-0.08-0.041-0.112
		c0.044-0.089,0.127-0.084,0.143-0.174c0.02-0.108-0.076-0.09-0.107-0.157c-0.02-0.044,0.019-0.063,0.01-0.104
		c-0.008-0.036-0.039-0.084-0.046-0.129c-0.006-0.041,0.026-0.065,0.02-0.109c-0.003-0.033-0.048-0.068-0.05-0.105
		c-0.009-0.168,0.242-0.205,0.367-0.271c0.153-0.081,0.215-0.233,0.356-0.337c0.038-0.025-0.002-0.063,0.061-0.07
		c0.045-0.008,0.07,0.041,0.102,0.057c0.103,0.049,0.127,0.027,0.225,0.037c0.109,0.008,0.131,0.006,0.234-0.021
		c0.085-0.021,0.122-0.018,0.214,0.006c0.145,0.035,0.391,0.166,0.5-0.006c0.031-0.049,0.024-0.143,0.011-0.195
		c-0.009-0.039-0.057-0.072-0.052-0.109c0.01-0.068,0.106-0.151,0.133-0.213c0.017-0.043,0.011-0.107,0.03-0.145
		c0.018-0.033,0.087-0.063,0.102-0.092c0.026-0.053,0.032-0.206,0.031-0.271c-0.001-0.021-0.014-0.09-0.026-0.105
		c-0.027-0.04-0.103-0.037-0.117-0.063c-0.04-0.07,0.009-0.168,0.071-0.193c0.1-0.039,0.116,0.035,0.209-0.082
		c0.082-0.104,0.074-0.117,0.24-0.11c0.145,0.005,0.325,0.065,0.443,0.134c0.069,0.037,0.135,0.082,0.214,0.11
		c0.111,0.041,0.122,0.071,0.214,0.144c0.062,0.049,0.153,0.076,0.229,0.111c0.112,0.053,0.104,0.063,0.194-0.01
		c0.093-0.073,0.076-0.088,0.214-0.071c0.105,0.013,0.179,0.002,0.255,0.081c0.07,0.072,0.061,0.148,0.107,0.225
		c0.038,0.063,0.116,0.144,0.168,0.193c0.052,0.055,0.121,0.111,0.178,0.168c0.018,0.02,0.081,0.057,0.087,0.066
		c0.019,0.035-0.002,0.063,0.015,0.102c0.03,0.066,0.056,0.152,0.087,0.215c0.052,0.103,0.076,0.039,0.142,0.092
		c0.092,0.073-0.117,0.25-0.132,0.347c-0.02,0.134,0.094,0.296,0.153,0.43c0.03,0.068,0.03,0.154,0.071,0.204
		c-0.054,0.004-0.082,0.032-0.112,0.07c0.058,0.046,0.026,0.089,0.02,0.152c-0.001,0.017-0.031,0.033-0.03,0.065
		s0.041,0.048,0.041,0.062c0,0.086-0.113,0.256-0.183,0.301c-0.033,0.021-0.075-0.014-0.108,0.017
		c-0.047,0.042-0.019,0.063-0.035,0.117c-0.006,0.021-0.019,0.089-0.026,0.103c-0.011,0.021-0.059,0.014-0.071,0.039
		c-0.044,0.096-0.037,0.217-0.082,0.317c-0.062,0.143-0.198,0.215-0.249,0.347c-0.07,0.184,0.099,0.296,0.234,0.396
		c0.212,0.16,0.619,0.24,0.507,0.589c-0.054,0.168-0.057,0.282-0.038,0.462c0.018,0.168,0.019,0.221-0.148,0.245
		c-0.14,0.019-0.206-0.062-0.331-0.063c-0.111-0.001-0.193,0.146-0.306,0.123c-0.279-0.056-0.155-0.697-0.469-0.592
		c-0.153,0.052-0.217,0.18-0.382,0.193c-0.166,0.015-0.277-0.119-0.433-0.107c-0.288,0.021-0.442,0.371-0.744,0.413
		c-0.135,0.019-0.277,0.002-0.397,0.071c-0.114,0.064-0.064,0.088-0.098,0.172c-0.024,0.063-0.076,0.097-0.111,0.164
		c-0.077,0.146,0.004,0.313-0.057,0.47c-0.082,0.21-0.208,0.188-0.382,0.124c-0.302-0.109-0.48-0.434-0.795-0.49
		c-0.153-0.027-0.375-0.064-0.535-0.063c-0.147,0.002-0.251,0.117-0.387,0.133c-0.047,0.005-0.134-0.014-0.174,0.031
		c-0.049,0.055,0,0.119-0.03,0.178c-0.001,0.001-0.113,0.1-0.128,0.111c-0.06,0.053-0.073,0.069-0.147,0.065
		c-0.128-0.007-0.184-0.044-0.322,0.021c-0.046,0.023-0.117,0.063-0.157,0.089c-0.097,0.069-0.115,0.173-0.215,0.146
		c-0.254-0.068-0.23-0.412-0.499-0.447c-0.109-0.016-0.066,0.037-0.153,0.057c-0.047,0.01-0.102-0.033-0.138-0.077
		c-0.07-0.087-0.128-0.199-0.28-0.142c-0.055,0.021-0.089,0.115-0.158,0.109c-0.074-0.005-0.055-0.095-0.127-0.092
		c-0.045,0.003-0.055,0.063-0.087,0.071c-0.032,0.008-0.063-0.013-0.086-0.011c-0.055,0.004-0.111,0.018-0.158,0.021
		c-0.116,0.016-0.241-0.021-0.337,0.008c-0.122,0.04-0.166,0.137-0.306,0.153c-0.303,0.036-0.483-0.291-0.703-0.468
		c-0.113-0.09-0.206-0.157-0.127-0.309c-0.028,0.008-0.047,0.002-0.072,0.012c-0.007-0.055-0.073-0.08-0.106-0.145
		c-0.017-0.029-0.084-0.146-0.087-0.158c-0.014-0.072,0.095-0.342,0.193-0.341c-0.047-0.032-0.081,0-0.127-0.017
		c-0.062-0.021-0.056-0.047-0.094-0.07c-0.158-0.107-0.08-0.1-0.084-0.255c-0.004-0.124-0.113-0.208-0.169-0.312
		c-0.024-0.045-0.021-0.11-0.045-0.154c-0.033-0.055-0.097-0.07-0.133-0.115c-0.061-0.076-0.052-0.041,0-0.139
		c0.028-0.053,0.042-0.056,0.061-0.111c0.012-0.035,0.03-0.098,0.036-0.128c0.007-0.036,0.058-0.036,0.031-0.093
		c-0.026-0.051-0.067,0.013-0.097-0.016c-0.101-0.087-0.069-0.193-0.199-0.244c-0.112-0.043-0.258-0.023-0.372,0
		c-0.137,0.029-0.278,0.063-0.405,0.03c-0.112-0.028-0.108-0.101-0.135-0.198c-0.021-0.076,0.004-0.273-0.046-0.328
		c-0.079-0.086-0.104,0.057-0.156,0.116c-0.058,0.069-0.144,0.132-0.197,0.212c-0.08,0.118-0.087,0.329-0.256,0.387
		c-0.033,0.014-0.045,0.011-0.097-0.004c-0.071-0.02-0.026,0.002-0.054-0.021c-0.009-0.009,0.004-0.047-0.009-0.063
		c-0.032-0.03-0.077-0.015-0.082-0.02c-0.084-0.076-0.138-0.152-0.25-0.204c-0.09-0.042-0.082-0.051-0.168,0.031
		c-0.096,0.09-0.083,0.063-0.188,0.08c-0.04,0.007-0.093,0.048-0.133,0.041c-0.113-0.017-0.042-0.063-0.076-0.111
		c-0.084-0.118-0.32-0.047-0.424,0.021c-0.116,0.076-0.028,0.043-0.051,0.152c-0.032,0.159-0.089,0.104-0.16,0.038
		c-0.139-0.124-0.215-0.229-0.415-0.159c-0.029,0.008-0.044,0.045-0.077,0.051c-0.052,0.007-0.019-0.032-0.056-0.041
		c-0.031-0.008-0.101-0.022-0.122-0.035c-0.013-0.008-0.133-0.092-0.138-0.098c-0.046-0.06-0.033-0.115-0.005-0.184
		c-0.098-0.014-0.11-0.037-0.204-0.041c-0.105-0.004-0.114-0.031-0.219-0.074c-0.111-0.045-0.123,0.01-0.219,0.014
		c-0.1,0.002-0.185-0.078-0.296-0.062c0.051-0.856,0.059-1.717,0.216-2.562c0.075-0.404,0.168-0.799,0.18-1.211
		c0.015-0.479,0.032-0.955,0.043-1.433c0.008-0.339,0.01-0.756-0.051-1.05c-0.02-0.098-0.068-0.18-0.082-0.28
		c-0.014-0.108,0.005-0.221,0.021-0.315c0.024-0.15-0.01-0.139-0.041-0.274c-0.012-0.051,0.028-0.11,0.01-0.16
		c-0.018-0.048-0.056-0.053-0.082-0.084c-0.077-0.098-0.033-0.054-0.04-0.163c-0.008-0.115-0.029-0.108-0.123-0.152
		c-0.259-0.117-0.126-0.231-0.066-0.465c0.052-0.197,0.057-0.515-0.076-0.678c0.191-0.121,0.047-0.201-0.036-0.352
		c-0.072-0.133-0.028-0.29-0.079-0.434c-0.047-0.133-0.139-0.217-0.204-0.334c-0.108-0.199,0.034-0.143,0.184-0.158
		c0.158-0.017,0.324-0.076,0.472-0.127c0.123-0.041,0.281-0.174,0.412-0.142c0.094,0.022,0.1,0.075,0.127,0.149
		c0.013,0.031,0.002,0.068,0.016,0.104c0.012,0.032,0.064,0.072,0.071,0.102c0.035,0.146-0.274,0.234-0.036,0.361
		c0.077,0.043,0.18,0.021,0.262,0.041c0.064,0.016,0.203,0.125,0.276,0.09c0.07-0.035,0.026-0.129,0.079-0.17
		C41.014,196.268,41.126,196.332,41.175,196.385z"/>
	<path display="none" fill="#B12731" stroke="#999999" stroke-width="0.25" stroke-linejoin="round" stroke-miterlimit="10" d="
		M78.612,191.125c-0.183-0.006-0.035-0.617,0.008-0.725c0.053-0.131,0.219-0.246,0.125-0.394c-0.049-0.073-0.131-0.071-0.199-0.122
		c-0.027-0.021-0.02-0.055-0.046-0.076c-0.025-0.021-0.092-0.017-0.107-0.045c-0.024-0.052,0.049-0.092,0.046-0.147
		c-0.003-0.064-0.054-0.08-0.077-0.127c-0.021-0.044-0.011-0.151-0.038-0.185c-0.037-0.047-0.104-0.023-0.166-0.035
		c-0.09-0.018-0.343-0.058-0.361-0.152c-0.009-0.045,0.049-0.106,0.061-0.153c0.022-0.09-0.005-0.168-0.041-0.247
		c-0.061-0.135-0.137-0.301-0.275-0.375c-0.054-0.027-0.076-0.049-0.143-0.05c-0.041-0.002-0.085,0.044-0.127,0.03
		c-0.116-0.04-0.101-0.176-0.026-0.235c0.092-0.069,0.297-0.095,0.401-0.127c0.194-0.06,0.142-0.194,0.15-0.341
		c0.005-0.107,0.038-0.09-0.039-0.197c-0.026-0.037-0.023-0.059-0.053-0.089c-0.017-0.017-0.057-0.002-0.072-0.024
		c-0.07-0.113,0.129-0.179,0.039-0.314c-0.079-0.122-0.203-0.075-0.191-0.25c0.005-0.071-0.008-0.387,0.122-0.367
		c0.108,0.016,0.002,0.191,0.015,0.24c0.004,0.012,0.063,0.056,0.077,0.074c0.019,0.027,0.026,0.076,0.046,0.104
		c0.124,0.163,0.376,0.195,0.571,0.145c0.092-0.024,0.191-0.037,0.27-0.012c0.029,0.012,0.088,0.068,0.122,0.071
		c0.092,0.009,0.194-0.067,0.265-0.103c0.189-0.088,0.367-0.193,0.588-0.172c0.124,0.014,0.245,0.03,0.37,0.039
		c0.242,0.016,0.388-0.113,0.612-0.175c0.143-0.038,0.146-0.05,0.234-0.151c0.059-0.067,0.152-0.097,0.224-0.164
		c0.069-0.063,0.101-0.133,0.191-0.184c0.097-0.053,0.153-0.15,0.247-0.203c0.073-0.041,0.137-0.027,0.204-0.082
		c0.056-0.045,0.124-0.123,0.194-0.184c0.071-0.063,0.179-0.119,0.245-0.188c0.052-0.059,0.132-0.16,0.193-0.209
		c0.041-0.033,0.117-0.052,0.148-0.094c0.025-0.033,0.005-0.063,0.026-0.109c0.081-0.195,0.309-0.095,0.448-0.275
		c0.053-0.071,0.085-0.197,0.143-0.245c0.088-0.073,0.17-0.033,0.27-0.03c0.142,0.002,0.124-0.091,0.209-0.123
		c0.094-0.035,0.166,0.03,0.265-0.02c0.069-0.036,0.15-0.116,0.224-0.145c0.027,0.098,0.159,0.152,0.242,0.168
		c0.059,0.012,0.251-0.037,0.298,0.024c0.019,0.024,0.018,0.206,0.028,0.26c0.017,0.089,0.018,0.24,0.095,0.271
		c0.047,0.019,0.26-0.059,0.295-0.081c0.194,0.045,0.291,0.231,0.489,0.081c0.088-0.066,0.179-0.121,0.296-0.081
		c0.029-0.026,0.172-0.087,0.209-0.104c0.073-0.031,0.179-0.012,0.26-0.029c0,0.058,0.013,0.127,0.007,0.18
		c-0.006,0.056-0.035,0.086-0.038,0.145c-0.002,0.043,0.015,0.125,0.021,0.168c0.002,0.021-0.019,0.047-0.011,0.069
		c0.019,0.051,0.069,0.026,0.102,0.081c0.05,0.085,0.045,0.249,0.041,0.342c-0.003,0.068-0.001,0.158-0.01,0.235
		c-0.007,0.055-0.046,0.1-0.041,0.155c0.007,0.082,0.148,0.193,0.204,0.256c0.064,0.07,0.13,0.072,0.229,0.011
		c0.021-0.015,0.068-0.076,0.087-0.081c0.102-0.025,0.036,0.011,0.051,0.063c0.001,0.002-0.018,0.059-0.02,0.069
		c-0.005,0.033,0.067,0.03,0.061,0.063c-0.007,0.031-0.091,0.08-0.105,0.137c-0.016,0.063,0.007,0.095-0.038,0.173
		c-0.042,0.073-0.054,0.108-0.064,0.187c-0.004,0.031,0.024,0.051,0.018,0.086c-0.007,0.037-0.049,0.063-0.061,0.098
		c-0.027,0.07-0.054,0.191,0.046,0.208c-0.02,0.015-0.032,0.046-0.051,0.063c0.232,0.004,0.093,0.258,0.056,0.396
		c-0.02,0.071-0.047,0.142-0.122,0.177c-0.055,0.024-0.151-0.017-0.199,0.027c-0.043,0.038-0.039,0.136-0.061,0.193
		c-0.023,0.06-0.069,0.129-0.107,0.184c-0.068,0.096-0.203,0.232-0.214,0.348c-0.016,0.155,0.106,0.235,0.219,0.284
		c0.043,0.019,0.147,0.072,0.166,0.117c0.013,0.032-0.004,0.201-0.023,0.233c-0.021,0.037-0.084,0.041-0.107,0.067
		c-0.022,0.027-0.02,0.058-0.036,0.079c-0.035,0.052-0.065,0.104-0.102,0.163c-0.048,0.077-0.087,0.147-0.153,0.221
		c-0.033,0.033-0.047,0.017-0.077,0.056c-0.028,0.039-0.02,0.086-0.043,0.125c-0.067,0.117-0.101,0.08-0.211,0.08
		c-0.134,0-0.163,0.076-0.291,0.121c-0.196,0.067-0.469-0.014-0.642-0.093c0.03,0.074-0.077,0.317-0.132,0.39
		c-0.105,0.135-0.235,0.108-0.357,0.188c-0.062,0.04-0.083,0.125-0.163,0.148c-0.079,0.021-0.131-0.012-0.209,0.007
		c-0.103,0.021-0.092,0.044-0.163,0.104c-0.068,0.06-0.132,0.054-0.196,0.106c-0.111,0.091-0.069,0.269-0.059,0.365
		c0.01,0.109,0.047,0.088-0.081,0.115c-0.068,0.016-0.138,0.016-0.184,0.045c-0.059,0.039-0.069,0.103-0.112,0.15
		c-0.015,0.018-0.063,0.02-0.087,0.04c-0.018,0.019-0.028,0.065-0.046,0.09c-0.034,0.043-0.098,0.142-0.142,0.171
		c-0.084,0.055-0.19-0.005-0.276,0.035c-0.073,0.034-0.069,0.083-0.117,0.148c-0.076,0.103-0.074,0.063-0.194,0.063
		c-0.127,0.004-0.292,0.088-0.427,0.041c-0.063-0.021-0.118-0.098-0.174-0.133c-0.027-0.017-0.051,0.017-0.081-0.005
		c-0.012-0.008-0.045-0.07-0.062-0.086c-0.052-0.055-0.123-0.077-0.162-0.135c-0.057-0.078,0.03-0.102-0.092-0.121
		c-0.105-0.02-0.16,0.055-0.255,0.021c-0.063-0.021-0.086-0.104-0.112-0.151c-0.054-0.097-0.008-0.063-0.112-0.104
		c-0.085-0.032-0.175-0.027-0.225-0.104c-0.047-0.065,0.036-0.106-0.092-0.11c-0.037-0.001-0.05,0.037-0.076,0.036
		c-0.025-0.002-0.102-0.038-0.117-0.036c-0.083,0.01-0.08,0.098-0.153,0.104c-0.079,0.004-0.115-0.104-0.122-0.164
		c-0.006-0.045,0.035-0.177,0-0.215c-0.016-0.019-0.079,0.038-0.112,0.012c-0.045-0.037-0.005-0.105-0.031-0.133
		c-0.021-0.022-0.131-0.035-0.178-0.082c-0.06-0.06-0.069-0.115-0.097-0.185c-0.026-0.063-0.02-0.336-0.112-0.396
		c-0.137-0.095-0.65,0.066-0.713,0.213c-0.025,0.057,0.029,0.16,0.009,0.225C78.646,190.968,78.612,190.977,78.612,191.125"/>
	<path display="none" fill="#B12731" stroke="#999999" stroke-width="0.25" stroke-linejoin="round" stroke-miterlimit="10" d="
		M72.324,185.764c-0.125-0.052,0.089-0.16,0.14-0.184c0.119-0.057,0.06-0.012,0.11-0.107c0.056-0.106,0.053-0.098-0.077-0.178
		c0.063-0.092,0.209-0.391,0.296-0.406c0.063-0.014,0.125,0.063,0.183,0.075c0.234,0.048,0.442-0.019,0.663-0.075
		c0.104-0.029,0.24,0.002,0.346,0.045c0.159,0.066,0.251,0.086,0.413,0.086c0.432,0,0.945,0.09,1.055,0.53
		c0.028,0.11,0.058,0.179,0.112,0.255c0.02,0.026,0.065,0.104,0.107,0.122c0.094,0.042,0.107-0.038,0.176-0.054
		c0.073-0.018,0.144,0.027,0.219,0.014c0.074-0.015,0.132-0.074,0.212-0.063c0.139,0.017,0.073,0.064,0.15,0.146
		c0.054,0.057,0.114,0.035,0.184,0.045c0.116,0.019,0.235,0.028,0.359,0.023c0.081-0.003,0.129-0.064,0.214-0.063
		c0.046,0.002,0.115,0.061,0.153,0.07c0.11,0.035,0.217,0.051,0.316,0.094c0.095,0.041,0.226,0.139,0.336,0.08
		c0.073-0.037,0.079-0.201,0.135-0.197c0.081,0.004,0.042,0.149,0.033,0.184c-0.033,0.121-0.179,0.293-0.29,0.277
		c-0.106-0.016-0.236-0.184-0.342-0.06c-0.039,0.045-0.037,0.181-0.046,0.244c-0.008,0.06-0.018,0.147,0.01,0.192
		c0.04,0.062,0.128,0.052,0.174,0.111c-0.118,0.014-0.22,0.01-0.321,0.025c-0.06,0.01-0.128,0.043-0.189,0.061
		c-0.123,0.037-0.232,0.183-0.346,0.148c-0.095-0.025-0.186-0.146-0.271-0.191c-0.06-0.031-0.126-0.052-0.183-0.099
		c-0.048-0.039-0.111-0.173-0.158-0.188c-0.046-0.016-0.142,0.056-0.191,0.062c-0.122,0.015-0.185-0.032-0.288-0.07
		c-0.043-0.016-0.106-0.046-0.148-0.061c-0.141-0.052-0.28-0.107-0.392-0.194c-0.095-0.072-0.125-0.177-0.194-0.301
		c-0.072-0.129-0.132-0.208-0.265-0.221c-0.125-0.01-0.262,0.011-0.392,0.013c-0.164,0.001-0.323-0.06-0.474-0.063
		c-0.097-0.002-0.091,0.06-0.168,0.092c-0.194,0.086-0.387-0.196-0.566-0.232c-0.045,0.063-0.113,0.031-0.178,0.005
		c-0.12-0.049-0.11-0.051-0.25-0.034C72.577,185.734,72.435,185.777,72.324,185.764"/>
	<path display="none" fill="#B12731" stroke="#999999" stroke-width="0.25" stroke-linejoin="round" stroke-miterlimit="10" d="
		M73.129,187.669c0.128-0.144,0.208-0.368,0.288-0.55l0.479-1.071c0.048-0.106,0.029-0.101,0.109-0.121
		c0.096-0.024,0.228,0.031,0.337,0.03c0.079-0.001,0.161,0.003,0.234,0c0.225-0.009,0.284,0.001,0.398,0.193
		c0.045,0.076,0.057,0.174,0.102,0.233c0.042,0.06,0.121,0.099,0.173,0.14c0.149,0.117,0.369,0.181,0.529,0.234
		c0.099,0.033,0.193,0.034,0.291,0.016c0.064-0.017,0.095-0.045,0.148-0.018c0.035,0.02,0.065,0.094,0.095,0.122
		c0.072,0.072,0.148,0.099,0.232,0.144c0.07,0.039,0.127,0.096,0.198,0.144c0.17,0.114,0.302-0.067,0.474-0.128
		c0.1-0.035,0.178-0.038,0.275-0.04c0.182-0.004,0.243-0.004,0.163,0.174c-0.044,0.097-0.061,0.063-0.01,0.144
		c0.013,0.019,0.053,0.012,0.071,0.029c0.027,0.026,0.03,0.063,0.052,0.102c0.013,0.025,0.063,0.057,0.066,0.082
		c0.004,0.043-0.044,0.07-0.046,0.103c-0.005,0.063,0.048,0.147,0.02,0.216c-0.045,0.106-0.261,0.151-0.362,0.188
		c-0.057,0.021-0.17,0.023-0.213,0.064c-0.073,0.069-0.05,0.193,0.056,0.226c-0.009,0.095-0.047,0.221-0.102,0.291
		c-0.065,0.081-0.116,0.032-0.194,0.087c-0.055,0.035-0.033,0.132-0.122,0.132c-0.056,0.001-0.113-0.099-0.148-0.125
		c-0.045-0.033-0.151-0.11-0.199-0.106c-0.073,0.006-0.126,0.113-0.193,0.146c-0.063,0.028-0.143,0.04-0.209,0.067
		c-0.036,0.016-0.044,0.054-0.077,0.06c-0.03,0.005-0.072-0.051-0.102-0.051c-0.039,0-0.055,0.045-0.086,0.046
		c-0.043,0.001-0.066-0.026-0.107-0.03c-0.118-0.012-0.139,0.019-0.235,0.068c-0.215,0.116-0.3,0.034-0.438-0.114
		c-0.094-0.104-0.296-0.206-0.439-0.158c-0.073,0.024-0.135,0.112-0.224,0.139c-0.089,0.025-0.206,0.018-0.29-0.016
		c-0.074-0.027-0.146-0.094-0.194-0.146c-0.092-0.105-0.065-0.201-0.133-0.325c-0.079-0.146-0.137-0.272-0.178-0.419
		C73.544,187.598,73.377,187.588,73.129,187.669"/>
	<path display="none" fill="#B12731" stroke="#999999" stroke-width="0.25" stroke-linejoin="round" stroke-miterlimit="10" d="
		M73.129,187.669c0.249-0.082,0.415-0.071,0.489,0.194c0.043,0.154,0.108,0.281,0.188,0.438c0.061,0.121,0.031,0.227,0.131,0.324
		c0.061,0.063,0.142,0.087,0.211,0.146c-0.033,0.117-0.086,0.193-0.143,0.295c-0.058,0.104-0.066,0.219-0.114,0.324
		c-0.065,0.142-0.026,0.118-0.008,0.234c0.02,0.132-0.058,0.189-0.204,0.082c0.031,0.172-0.143,0.425-0.255,0.479
		c-0.097,0.047-0.198,0.061-0.303,0.127c-0.062,0.041-0.094,0.051-0.135,0.117c-0.067,0.111-0.089,0.274-0.183,0.407
		c-0.092,0.129-0.202,0.212-0.28,0.325c-0.069,0.102-0.105,0.133-0.036,0.307c-0.012,0.016-0.038,0.047-0.051,0.063h-0.02
		c0.071-0.083-0.003-0.098-0.052-0.158c-0.036-0.046-0.127-0.139-0.122-0.188c-0.045,0.021-0.067,0.051-0.112,0.064
		c-0.015,0.006-0.054-0.027-0.076-0.021c-0.032,0.01-0.043,0.043-0.075,0.061c-0.048,0.025-0.164,0.117-0.205,0.1
		c-0.07-0.033-0.026-0.092-0.036-0.125c-0.027-0.092-0.06-0.236-0.087-0.354c-0.013-0.057-0.017-0.066-0.007-0.127
		c0.005-0.032,0.071-0.098,0.032-0.168c-0.041-0.075-0.213-0.137-0.254-0.209c-0.026-0.045-0.001-0.127-0.018-0.182
		c-0.023-0.072-0.077-0.121-0.114-0.188c-0.05-0.087-0.127-0.2-0.093-0.294c0.05-0.135,0.184-0.149,0.031-0.295
		c-0.082-0.078-0.154-0.16-0.249-0.221c0.072-0.063,0.199-0.025,0.29-0.146c0.055-0.073,0.065-0.18,0.11-0.258
		c0.049-0.09,0.114-0.148,0.19-0.217c-0.057-0.045-0.034-0.078-0.061-0.144c-0.018-0.044-0.057-0.071-0.091-0.122
		c-0.054-0.076-0.087-0.146-0.092-0.275c-0.012-0.295-0.19-0.319-0.326-0.528c-0.081-0.125-0.177-0.271-0.143-0.459
		c0.069,0.006,0.152,0.063,0.189,0.082c0.025,0.013,0.043,0.065,0.071,0.063c0.065-0.015,0.068-0.148,0.117-0.187
		c-0.016,0.051,0.008,0.063,0.051,0.052c0.036,0.016,0.167,0.059,0.235-0.021c0.011,0.137,0.084,0.227,0.138,0.334
		c0.074,0.147,0.083,0.207-0.036,0.318c-0.04-0.048-0.052-0.131-0.148-0.074c-0.12,0.068-0.025,0.146,0.035,0.217
		c-0.02,0-0.037,0.012-0.061,0.011c0.045,0.069,0.137,0.237,0.02,0.226c0,0.021,0.01,0.036,0.031,0.062
		c0.062-0.054,0.093-0.017,0.092,0.052c0.12-0.074,0.112,0.061,0.081,0.122c0.01,0.002,0.017-0.001,0.021-0.011
		c0,0.039-0.006,0.039-0.021,0.063c-0.017-0.033-0.11-0.072-0.102,0c0.01,0.082,0.266,0.254,0.327,0.336
		c0.017-0.166,0.171-0.16,0.259-0.258c0.052-0.056,0.019-0.143,0.118-0.13c-0.019,0.043-0.007,0.049-0.051,0.062
		c0.019,0.063-0.002,0.154,0.031,0.215c0.049,0.092,0.041,0.035,0.147,0.086c0.134,0.063,0.138,0.115,0.281,0.076
		c0.025-0.074-0.051-0.178,0.03-0.203c-0.001-0.034-0.031-0.108-0.03-0.133c0-0.024-0.04-0.017-0.01-0.058
		c0.013-0.019,0.1-0.028,0.122-0.034c-0.042-0.087-0.049-0.216-0.087-0.307c-0.044-0.104,0.006,0.018-0.087-0.041
		c-0.023-0.014-0.068-0.104-0.02-0.133c-0.02-0.07-0.089-0.211-0.072-0.305c0.012-0.063,0.037-0.109,0.041-0.175
		c0.005-0.06-0.007-0.118,0-0.179c0.009-0.069,0.05-0.212,0.123-0.25c0.079-0.042,0.05-0.01,0.051,0.063
		c0,0.116-0.032,0.243,0,0.336C72.789,187.491,72.892,187.777,73.129,187.669"/>
	<path display="none" fill="#B12731" stroke="#999999" stroke-width="0.25" stroke-linejoin="round" stroke-miterlimit="10" d="
		M70.02,187.425c-0.063,0.125,0.172,0.192,0.265,0.245c0.132,0.074,0.318,0.16,0.408,0.285c-0.027-0.239,0.393,0.07,0.423,0.082
		c0.086,0.029,0.152,0.021,0.198,0.086c0.043,0.059,0.065,0.166,0.102,0.219c0.033,0.047,0.076,0.078,0.092,0.118
		c0.028,0.065,0.001,0.103,0.061,0.147c-0.071,0.063-0.135,0.119-0.183,0.203c-0.049,0.084-0.06,0.191-0.117,0.271
		c-0.09,0.12-0.22,0.083-0.291,0.146c0.081,0.051,0.136,0.129,0.194,0.181c0.118,0.102,0.167,0.145,0.081,0.291
		c-0.072,0.122-0.076,0.11,0,0.255c0.06,0.109,0.139,0.212,0.163,0.336c0.022,0.105,0.005,0.081,0.052,0.146
		c0.026,0.037,0.093,0.092,0.127,0.133c0.057,0.066,0.078,0.009,0.087,0.108c0.008,0.101-0.058,0.085-0.061,0.171
		c-0.005,0.092,0.106,0.254,0.119,0.344c0.017,0.115-0.044,0.25,0.155,0.146c0.036-0.021,0.077-0.061,0.113-0.072
		c0.029-0.012,0.063-0.017,0.092-0.027c0.043-0.019,0.087-0.021,0.142-0.051c-0.014,0.131,0.17,0.098,0.071,0.285
		c-0.042,0.079-0.104,0.155-0.163,0.225c-0.108,0.123-0.227,0.33-0.458,0.314c-0.179-0.011-0.139,0.118-0.273,0.186
		c-0.071,0.033-0.453,0.019-0.4,0.143c-0.094,0.063-0.15,0.085-0.234,0.174c-0.076,0.079-0.097,0.238-0.209,0.285
		c-0.11,0.045-0.222-0.052-0.311-0.092c-0.095-0.043-0.166-0.046-0.265-0.072c-0.101-0.025-0.17-0.063-0.234-0.121
		c-0.071-0.063-0.157-0.127-0.23-0.19c-0.102-0.091-0.097-0.077-0.229-0.123c-0.125-0.045-0.167-0.104-0.306-0.067
		c-0.111,0.029-0.17,0.074-0.224,0.158c-0.058,0.09-0.044,0.166-0.163,0.204c-0.081,0.024-0.104-0.013-0.163-0.021
		c-0.091-0.016-0.173-0.021-0.265-0.08c-0.048-0.031-0.118-0.151-0.204-0.145c0.021-0.063,0.044-0.162,0.101-0.209
		c0.065-0.055,0.178-0.048,0.25-0.079c0.197-0.084,0.341-0.282,0.382-0.487c0.023-0.109,0.069-0.264,0-0.365
		c-0.059-0.088-0.145-0.065-0.234-0.092c-0.177-0.052-0.335-0.184-0.316-0.377c0.01-0.104,0.064-0.207,0.051-0.315
		c-0.01-0.082-0.041-0.144-0.03-0.203c0.01-0.003,0.013,0,0.01,0.01c-0.003-0.021,0.002-0.041,0-0.062
		c0.021,0,0.021-0.012,0.051-0.01c-0.015-0.012-0.017-0.01-0.021-0.021c0.052,0.006,0.084-0.016,0.107-0.012
		c0.045,0.01,0.068,0.074,0.107,0.031c0.013,0.004,0.018,0.018,0.041,0.01c0.004-0.066-0.004-0.104,0-0.143
		c0.003-0.023,0.02-0.044,0.02-0.082c0.002-0.085-0.065-0.179-0.02-0.273c0.049-0.104,0.171-0.129,0.204-0.256
		c0.01-0.039-0.005-0.064,0-0.11c0.011-0.101,0.004-0.19,0.025-0.308c0.015-0.08,0.037-0.176,0.067-0.225
		c0.023-0.037,0.083-0.087,0.101-0.111c0.07-0.095,0.059-0.23,0.143-0.326c0.065-0.072,0.232-0.149,0.327-0.188
		c0.046-0.021,0.068,0.021,0.111-0.016c0.032-0.027-0.008-0.085,0.031-0.112c0.05-0.036,0.081,0.007,0.133,0
		c0.313-0.035-0.048-0.206,0.01-0.331c0.004-0.008,0.084-0.026,0.102-0.046c0.024-0.023,0.024-0.1,0.051-0.132
		C69.843,187.332,69.926,187.334,70.02,187.425"/>
	<path display="none" fill="#B12731" stroke="#999999" stroke-width="0.25" stroke-linejoin="round" stroke-miterlimit="10" d="
		M72.915,184.938c0.029-0.073-0.069-0.078-0.067-0.146c0.001-0.059,0.096-0.118,0.115-0.176c0.03-0.09-0.039-0.219,0.054-0.237
		c0.025,0.043,0.248,0.216,0.285,0.214c0.094-0.003,0.067-0.174,0.082-0.254c0.028-0.156,0.119-0.289,0.132-0.428
		c0.008-0.085,0.003-0.421,0.122-0.489c0.057-0.03,0.108,0.054,0.161,0.097c0.178,0.146,0.229,0.156,0.451,0.17
		c0.269,0.014,0.469-0.395,0.713-0.349c0.279,0.054,0.366,0.353,0.714,0.302c0.096-0.015,0.156-0.051,0.224-0.093
		c0.04-0.022,0.094-0.065,0.142-0.103c0.027-0.021,0.034-0.049,0.067-0.066c0.037-0.02,0.084-0.009,0.107-0.021
		c0.05-0.021,0.123-0.062,0.153-0.098c0.017-0.019,0.005-0.06,0.025-0.084c0.03-0.035,0.067-0.041,0.087-0.084
		c0.07,0.055,0.172,0.014,0.255,0.021c0.078,0.007,0.136,0.039,0.209,0.039c0.147,0.002,0.261-0.113,0.418-0.106
		c0.17,0.009,0.237,0.037,0.244,0.22c0.002,0.041-0.033,0.161-0.025,0.174c0.051,0.07,0.16,0.004,0.214,0.029
		c0.086,0.045,0.047,0.137,0.117,0.174c0.096,0.053,0.188-0.043,0.26-0.08c-0.155,0.088-0.054,0.17-0.012,0.276
		c0.032,0.083,0,0.157,0.012,0.242c0.017,0.121,0.083,0.114,0.148,0.198c0.052,0.066,0.066,0.168,0.087,0.25
		c0.029,0.119,0.026,0.1-0.041,0.215c-0.039,0.066-0.121,0.188-0.122,0.27c-0.001,0.055,0.026,0.143,0.04,0.193
		c0.026,0.1,0.197,0.238,0.146,0.344c-0.02,0.041-0.136,0.081-0.176,0.12c-0.038,0.036-0.112,0.121-0.133,0.168
		c-0.06,0.134,0.025,0.392-0.219,0.397c-0.092,0.002-0.224-0.079-0.311-0.116c-0.095-0.042-0.217-0.063-0.316-0.099
		c-0.122-0.041-0.26-0.006-0.405-0.008c-0.106,0-0.238,0.031-0.359,0c-0.119-0.031-0.062-0.125-0.133-0.182
		c-0.045-0.035-0.174-0.014-0.224,0c-0.052,0.016-0.066,0.044-0.12,0.051c-0.039,0.006-0.077-0.017-0.114-0.013
		c-0.074,0.008-0.119,0.063-0.184,0.063c-0.247,0.008-0.237-0.406-0.336-0.541c-0.117-0.158-0.325-0.326-0.535-0.334
		c-0.11-0.004-0.204-0.011-0.311-0.021c-0.118-0.016-0.218,0.017-0.335-0.005c-0.161-0.03-0.294-0.146-0.46-0.148
		c-0.173-0.003-0.331,0.091-0.52,0.082C73.156,184.965,72.993,184.993,72.915,184.938"/>
	<path display="none" fill="#B12731" stroke="#999999" stroke-width="0.25" stroke-linejoin="round" stroke-miterlimit="10" d="
		M92.536,176.355c-0.018,0.094-0.084,0.098-0.148,0.168c-0.049,0.055-0.078,0.146-0.117,0.209c-0.047,0.074-0.082,0.145-0.123,0.24
		c-0.012,0.027-0.049,0.075-0.05,0.105c-0.001,0.033,0.045,0.063,0.04,0.091c-0.007,0.04-0.064,0.021-0.071,0.065
		c-0.008,0.06,0.052,0.072,0.052,0.094c0,0.055-0.078,0.146-0.103,0.218c-0.032,0.093-0.05,0.199-0.123,0.093
		c-0.032-0.051-0.049-0.189-0.101-0.047c-0.032,0.09-0.006,0.176-0.041,0.25c-0.028,0.063-0.08,0.188-0.129,0.215
		c-0.045,0.026-0.189,0.034-0.238,0.053c-0.043,0.015-0.131,0.049-0.209,0.07c-0.124,0.034-0.129-0.051-0.209-0.053
		c-0.139-0.002-0.076,0.105-0.107,0.188c-0.033,0.096-0.086,0.047-0.046,0.14c0.021,0.045,0.079-0.006,0.046,0.076
		c-0.02,0.052-0.058,0.015-0.092,0.034c-0.145,0.088-0.063,0.297-0.117,0.466c-0.031,0.098-0.109,0.095-0.214,0.155
		c-0.201,0.119-0.345,0.221-0.494,0.402c-0.106,0.131-0.103,0.262-0.199,0.342c-0.101,0.084-0.062,0.034-0.056,0.163
		c0.001,0.021-0.036,0.062-0.026,0.112c0.004,0.021,0.052,0.047,0.067,0.091c0.042,0.126-0.034,0.118-0.097,0.175
		c-0.095,0.084-0.13,0.277-0.214,0.438c-0.087,0.166-0.256,0.261-0.347,0.396c-0.03,0.047-0.033,0.158-0.086,0.186
		c-0.057,0.023-0.126-0.066-0.178-0.104c-0.175-0.119-0.304-0.058-0.459,0.021c-0.081,0.04-0.181,0.031-0.281,0.063
		c-0.069,0.021-0.115,0.077-0.198,0.103c-0.166,0.045-0.327,0.108-0.479,0.132c-0.147,0.021-0.233-0.016-0.373-0.033
		c-0.123-0.016-0.225,0.074-0.27-0.084c-0.025-0.089,0.028-0.21,0.021-0.301c-0.009-0.104-0.043-0.186-0.051-0.285
		c-0.011-0.13,0.081-0.135,0.081-0.25c0.001-0.082-0.04-0.203-0.051-0.301c-0.01-0.102-0.028-0.182-0.038-0.26
		c-0.02-0.157-0.001-0.313-0.104-0.443c-0.107-0.135-0.132-0.033-0.286,0c-0.113,0.023-0.197-0.025-0.284-0.087
		c-0.217-0.153-0.153-0.479-0.312-0.647c-0.105-0.108-0.197-0.13-0.341-0.173c-0.147-0.044-0.206-0.139-0.281-0.214
		c-0.043-0.044-0.093-0.117-0.168-0.184c-0.052-0.047-0.19-0.118-0.26-0.131c-0.062-0.012-0.261,0.051-0.331,0.08
		c-0.126,0.053-0.168,0.101-0.311,0.045c-0.063-0.022-0.11-0.043-0.168-0.045c-0.09-0.004-0.033,0.071-0.102-0.013
		c-0.042-0.051-0.019-0.139-0.046-0.187c-0.038-0.067-0.132-0.088-0.137-0.188c-0.004-0.054,0.061-0.076,0.035-0.137
		c-0.029-0.068-0.078-0.025-0.122-0.061c-0.104-0.076-0.117-0.162-0.26-0.063c-0.089,0.063-0.111,0.155-0.25,0.063
		c-0.112-0.074-0.089-0.179-0.142-0.287c-0.106-0.217-0.397-0.272-0.464-0.488c-0.072-0.233,0.025-0.502-0.031-0.704
		c-0.003-0.013-0.052-0.045-0.061-0.065c-0.009-0.021,0.008-0.055,0-0.076c-0.029-0.072-0.008-0.074-0.077-0.1
		c-0.01-0.004-0.071,0.031-0.096,0.028c-0.025-0.005-0.039-0.062-0.041-0.062c-0.023-0.006-0.115,0.002-0.143,0.021
		c-0.056,0.034-0.036,0.062-0.089,0.116c-0.036,0.039-0.097,0.059-0.15,0.103c-0.04,0.033-0.071,0.101-0.102,0.127
		c-0.071,0.067-0.057,0.06-0.184,0.062c-0.078,0.002-0.143,0.009-0.203,0.054c-0.031,0.021-0.05,0.083-0.092,0.104
		c-0.105,0.062-0.16-0.045-0.28,0.006c-0.051,0.021,0.037,0.104-0.072,0.035c0.005,0.002-0.067-0.109-0.066-0.107
		c-0.023-0.077,0.038-0.219,0.077-0.324c0.034-0.096,0.057-0.191,0.108-0.283c0.034-0.061,0.068-0.084,0.085-0.154
		c0.011-0.045-0.022-0.082,0.005-0.134c0.027-0.049,0.099-0.077,0.133-0.137c0.064-0.108,0.077-0.134,0.198-0.204
		c0.126-0.07,0.259-0.188,0.316-0.331c0.038-0.095,0.018-0.14,0.082-0.225c0.108-0.144,0.1-0.083,0.031-0.244
		c-0.095-0.222,0.005-0.343,0.152-0.49c0.098-0.097,0.2-0.335,0.329-0.339c0.059-0.001,0.081,0.066,0.156,0.049
		c0.056-0.014,0.079-0.058,0.111-0.104c0.058-0.088,0.123-0.215,0.164-0.31c0.054-0.123,0.006-0.211,0.048-0.347
		c0.088-0.283,0.34-0.352,0.237-0.691c-0.033-0.109-0.061-0.416,0.102-0.445c0.092-0.019,0.14,0.103,0.237,0.016
		c0.045-0.04,0.043-0.13,0.084-0.182c0.061-0.075,0.17-0.145,0.243-0.217c0.07-0.072,0.135-0.146,0.196-0.223
		c0.04,0.053,0.048,0.117,0.086,0.171c0.032,0.045,0.101,0.063,0.122,0.119c0.035,0.092-0.047,0.21-0.02,0.313
		c0.037,0.137,0.201,0.207,0.265,0.342c0.028,0.058,0.037,0.139,0.076,0.183c0.038,0.042,0.16,0.054,0.214,0.076
		c0.049,0.021,0.094,0.034,0.143,0.062c0.025,0.017,0.056-0.004,0.082,0.021c0.024,0.021,0.007,0.061,0.025,0.077
		c0.142,0.134,0.196,0.014,0.362,0.055c0.076,0.021,0.328,0.146,0.367,0.204c0.077,0.12-0.044,0.262,0.015,0.361
		c0.076,0.134,0.183,0.046,0.275,0.016c0.115-0.035,0.219,0.023,0.337,0.077c0.106,0.046,0.175,0.06,0.209,0.188
		c0.031,0.123-0.016,0.268,0.107,0.342c0.13,0.08,0.218,0.029,0.29,0.18c0.053,0.109-0.001,0.171,0.074,0.268
		c0.038,0.047,0.114,0.07,0.15,0.119c0.02,0.026,0.04,0.137,0.056,0.148c0.055,0.035,0.14-0.027,0.22-0.026
		c0.324,0.002,0.518,0.341,0.866,0.316c-0.008,0.096,0.17-0.019,0.194-0.021c0.058-0.009,0.165,0,0.239,0
		c0.229,0,0.225,0.21,0.362,0.306c-0.034,0.054-0.004,0.149,0.056,0.054c0.023-0.039,0.01-0.103,0.025-0.146
		c0.021-0.058,0.073-0.113,0.102-0.168c0.092-0.162,0.081-0.345,0.194-0.516c0.095,0.064,0.233,0.016,0.337,0.066
		c0.033,0.017,0.067,0.059,0.096,0.076c0.065,0.039,0.148,0.094,0.22,0.11c0.118,0.031,0.142,0.019,0.213,0.092
		c0.051,0.056,0.086,0.121,0.139,0.209c0.032,0.058,0.043,0.171,0.106,0.209c0.116,0.072,0.082-0.053,0.204-0.038
		c0.113,0.012,0.307,0.242,0.357,0.323c0.057,0.095,0.079,0.138,0.213,0.154c0.157,0.02,0.176-0.04,0.244-0.154
		c0.071,0.072,0.127,0.138,0.204,0.187c0.052-0.063,0.099-0.057,0.163-0.013c-0.076,0.091-0.044,0.267-0.05,0.378
		c-0.005,0.084-0.114,0.34-0.077,0.397c0.057,0.091,0.354,0.063,0.413,0.021c0.03-0.022,0.015-0.084,0.081-0.093
		c0.066-0.007,0.063,0.045,0.111,0.052C92.353,176.37,92.438,176.288,92.536,176.355"/>
	<path display="none" fill="#B12731" stroke="#999999" stroke-width="0.25" stroke-linejoin="round" stroke-miterlimit="10" d="
		M86.838,181.697c-0.082,0.094-0.02,0.164-0.143,0.193c-0.037,0.008-0.11-0.011-0.153-0.008c-0.128,0.014-0.145,0.008-0.265-0.033
		c-0.065-0.023-0.172-0.008-0.254-0.021c-0.039-0.008-0.068-0.038-0.102-0.041c-0.083-0.01-0.147,0.021-0.212,0.007
		c-0.106-0.026-0.192-0.108-0.308-0.129c-0.071-0.015-0.139-0.019-0.206,0.012c-0.13,0.056-0.079,0.132-0.13,0.214
		c-0.045,0.067-0.145,0.112-0.194,0.201c-0.042,0.078-0.055,0.164-0.102,0.245c-0.061,0.104-0.099,0.147-0.143,0.255
		c-0.038,0.096-0.069,0.188-0.102,0.266c-0.043,0.104-0.068,0.232-0.122,0.315c-0.048,0.074-0.114,0.136-0.143,0.216
		c-0.032,0.088-0.049,0.161-0.081,0.254c-0.033,0.096-0.091,0.187-0.115,0.281c-0.02,0.083-0.003,0.176-0.038,0.229
		c-0.029,0.046-0.145,0.115-0.204,0.146c-0.091,0.053-0.142,0.03-0.234,0.046c-0.12,0.021-0.087,0.091-0.194,0.122
		c-0.079,0.024-0.163-0.027-0.255-0.01c-0.191,0.039-0.172,0.281-0.357,0.377c-0.086,0.046-0.165,0.027-0.244,0.063
		c-0.124,0.054-0.046,0.104-0.092,0.203c-0.026,0.058-0.165,0.116-0.214,0.164c-0.064,0.063-0.121,0.145-0.173,0.192
		c-0.069,0.063-0.171,0.121-0.245,0.185c-0.059,0.051-0.125,0.125-0.173,0.161c-0.06,0.048-0.11,0.039-0.174,0.072
		c-0.106,0.056-0.147,0.157-0.254,0.214c-0.083,0.044-0.133,0.075-0.194,0.145c-0.057,0.063-0.136,0.117-0.194,0.162
		c-0.072,0.059-0.1,0.144-0.188,0.18c-0.092,0.037-0.187,0.033-0.27,0.076c-0.105,0.054-0.144,0.082-0.255,0.103
		c-0.246,0.043-0.55-0.095-0.805-0.021c-0.238,0.067-0.445,0.316-0.673,0.233c-0.07-0.024-0.066-0.062-0.163-0.062
		c-0.084,0-0.159,0.035-0.219,0.051c-0.143,0.035-0.18,0.021-0.311-0.04c-0.089-0.043-0.146-0.058-0.204-0.133
		c-0.016-0.021-0.111-0.158-0.112-0.163c-0.025-0.085,0.049-0.131,0.01-0.235c0.037,0.021,0.169,0.087,0.204,0.093
		c0.084,0.02,0.149-0.021,0.222-0.097c0.042-0.043,0.122-0.159,0.125-0.22c0.005-0.1-0.098-0.146-0.092-0.244
		c0.005-0.084,0.094-0.152,0.145-0.209c0.042-0.045,0.142-0.094,0.171-0.133c0.084-0.116-0.09-0.264-0.123-0.385
		c-0.017-0.063-0.056-0.164-0.04-0.231c0.024-0.104,0.17-0.192,0.188-0.301c0.012-0.072-0.03-0.175-0.056-0.25
		c-0.041-0.124-0.135-0.14-0.183-0.229c-0.049-0.094,0.013-0.207-0.021-0.307c-0.047-0.145-0.14-0.161-0.01-0.301
		c0.04-0.043,0.087-0.055,0.112-0.112c0.029-0.065-0.012-0.11,0.041-0.173c0.066-0.078,0.21-0.061,0.27-0.146
		c0.094-0.133-0.014-0.138-0.097-0.181c-0.235-0.122-0.044-0.288-0.03-0.464c0.004-0.063-0.045-0.154-0.051-0.225
		c-0.011-0.117,0.025-0.117,0.066-0.22c0.012-0.03-0.002-0.092,0.015-0.116c0.032-0.05,0.101-0.048,0.138-0.088
		c0.052-0.06,0.075-0.219,0.097-0.285c0.025-0.074,0.026-0.129,0.01-0.203c-0.015-0.065-0.072-0.049-0.046-0.147
		c0.017-0.063,0.066-0.08,0.102-0.13c0.047-0.066,0.068-0.146,0.117-0.206c0.034-0.041,0.092-0.062,0.133-0.097
		c0.053-0.051,0.063-0.053,0.081-0.135c0.014-0.063,0.047-0.138,0.071-0.192c0.02-0.046,0.02-0.111,0.041-0.162
		c0.036-0.087,0.099-0.142,0.143-0.22c0.08-0.146,0.012-0.164-0.01-0.291c-0.022-0.125,0.087-0.209,0.054-0.342
		c-0.043-0.17-0.184-0.256-0.105-0.425c0.033-0.067,0.091-0.092,0.071-0.19c-0.025-0.131-0.209-0.256-0.02-0.346
		c0.058-0.026,0.151,0.016,0.204-0.043c0.05-0.056,0.015-0.151,0.045-0.216c0.083-0.164,0.285-0.09,0.383-0.248
		c0.135-0.224-0.267-0.493-0.057-0.729c0.058-0.063,0.132-0.044,0.189-0.103c0.058-0.061,0.022-0.135,0.051-0.199
		c0.049-0.109,0.188-0.168,0.296-0.203c0.119-0.041,0.141-0.058,0.193-0.17c0.059,0.033,0.075,0.158,0.143,0.153
		c0.01-0.002,0.012-0.081,0.041-0.092c0.074-0.026,0.065,0.011,0.122,0.017c0.131,0.01,0.088-0.006,0.184-0.088
		c0.094-0.08,0.212-0.035,0.336-0.07c0.07-0.021,0.106-0.092,0.174-0.163c0.027-0.028,0.042-0.067,0.071-0.093
		c0.026-0.021,0.062,0,0.092-0.029c0.015-0.016,0.027-0.051,0.04-0.063c0.052-0.048-0.005-0.027,0.082-0.062
		c0.038-0.017,0.079-0.025,0.112-0.021c-0.021-0.005,0.099,0.055,0.102,0.057c0.046,0.015,0.043-0.051,0.091,0
		c0.028,0.029,0.008,0.095,0.021,0.128c0.012,0.028,0.071,0.085,0.077,0.106c0.01,0.045-0.023,0.063-0.019,0.103
		c0.005,0.034,0.027,0.086,0.028,0.116c0.007,0.129-0.023,0.215-0.006,0.354c0.006,0.047-0.003,0.064,0.012,0.114
		c0.023,0.073,0.03,0.056,0.071,0.11c0.109,0.148,0.308,0.203,0.393,0.377c0.064,0.135,0.093,0.416,0.32,0.308
		c0.042-0.021,0.081-0.136,0.174-0.134c0.063,0.002,0.144,0.08,0.198,0.123c0.029,0.021,0.068,0.009,0.087,0.062
		c0.018,0.052-0.041,0.065-0.038,0.106c0.004,0.064,0.027,0.095,0.064,0.152c0.014,0.023,0.059,0.031,0.071,0.053
		c0.015,0.027-0.001,0.072,0.01,0.104c0.004,0.013,0.036,0.104,0.038,0.106c0.077,0.056,0.023-0.019,0.1-0.017
		c0.086,0.005,0.173,0.075,0.265,0.082c0.163,0.013,0.334-0.161,0.494-0.164c0.056,0,0.185,0.05,0.229,0.071
		c0.076,0.041,0.12,0.111,0.174,0.174c0.074,0.087,0.183,0.229,0.367,0.285c0.184,0.059,0.343,0.121,0.407,0.307
		c0.071,0.202,0.072,0.438,0.296,0.551c0.094,0.049,0.142,0.071,0.25,0.041c0.14-0.041,0.154-0.115,0.249,0
		c0.091,0.108,0.107,0.248,0.107,0.389c0.001,0.143,0.033,0.285,0.056,0.447c0.012,0.078,0.042,0.145,0.031,0.215
		c-0.014,0.089-0.075,0.084-0.072,0.193c0.005,0.149,0.063,0.277,0.052,0.441C86.76,181.52,86.694,181.66,86.838,181.697"/>
	<path display="none" fill="#B12731" stroke="#999999" stroke-width="0.25" stroke-linejoin="round" stroke-miterlimit="10" d="
		M78.174,183.563c-0.059,0.035-0.119,0.097-0.194,0.092c-0.155-0.008-0.06-0.086-0.138-0.156c-0.06-0.057-0.151,0.014-0.213-0.027
		c-0.062-0.043-0.034-0.096-0.026-0.156c0.025-0.19-0.027-0.229-0.194-0.25c-0.076-0.008-0.114-0.033-0.193-0.01
		c-0.066,0.021-0.132,0.09-0.204,0.107c-0.084,0.021-0.145-0.039-0.224-0.046c-0.1-0.011-0.224,0.041-0.306-0.021
		c-0.019,0.04-0.052,0.049-0.081,0.081c-0.023,0.025-0.015,0.063-0.031,0.081c-0.032,0.037-0.1,0.08-0.153,0.104
		c-0.058,0.022-0.106,0.039-0.164,0.078c-0.051,0.037-0.109,0.084-0.152,0.109c-0.069,0.042-0.127,0.077-0.224,0.094
		c-0.175,0.023-0.301-0.025-0.428-0.129c-0.083-0.064-0.242-0.199-0.347-0.193c-0.161,0.011-0.313,0.223-0.448,0.307
		c-0.106,0.064-0.299,0.092-0.428,0.051c-0.072-0.021-0.162-0.104-0.23-0.162c-0.082-0.067-0.157-0.104-0.249-0.174
		c-0.103-0.078-0.155-0.109-0.245-0.152c-0.052-0.022-0.209-0.084-0.173-0.174c0.038-0.096,0.222,0.034,0.285-0.021
		c0.073-0.063,0.011-0.283,0.031-0.356c0.05-0.19,0.228-0.404,0.326-0.576c0.091-0.157,0.195-0.311,0.275-0.474
		c-0.048-0.022-0.1-0.037-0.153-0.041c0.058-0.096,0.186-0.114,0.265-0.122c0.014-0.002,0.048,0.018,0.077,0.01
		c0.043-0.012,0.045-0.045,0.076-0.051c0.091-0.016,0.293,0.131,0.285-0.061c0.122,0.07,0.308,0.111,0.454,0.111
		c0.102,0,0.16-0.031,0.265-0.031c0.143,0,0.269,0.025,0.408,0.012c0.11-0.014,0.219-0.059,0.31-0.072
		c0.12,0.081,0.199,0.053,0.347,0.072c0.039,0.004,0.086,0.048,0.112,0.05c0.04,0.005,0.07-0.03,0.112-0.03
		c0.074,0.002,0.14,0.06,0.214,0.063c0.21,0.011,0.205-0.267,0.372-0.285c0.068-0.008,0.119,0.081,0.179,0.111
		c0.061,0.03,0.151,0.057,0.214,0.069c0.093,0.022,0.234-0.004,0.285,0.088c0.022,0.039-0.008,0.117,0.01,0.162
		c0.022,0.056,0.019,0.045,0.041,0.071c-0.001-0.001,0.142,0.116,0.153,0.118c0.063,0.009,0.107-0.081,0.184-0.082
		c0.032,0,0.186,0.072,0.203,0.098c0.062,0.086,0.017,0.17-0.013,0.262c-0.026,0.082-0.05,0.111-0.038,0.224
		c0.009,0.079,0.056,0.138,0.041,0.214c-0.019,0.1-0.087,0.157-0.071,0.274c0.023,0.184,0.157,0.082,0.224,0.184
		c0.097,0.148-0.144,0.199-0.229,0.255C78.242,183.342,78.32,183.494,78.174,183.563"/>
</g>
<g id="Layer_2_1_">
	<g id="Layer_3">
		<path fill="none" stroke="#FFFFFF" stroke-width="0.1" stroke-miterlimit="10" d="M85.533,117.453
			c-0.085-0.059-0.083-0.125-0.13-0.203c-0.017-0.028-0.056-0.057-0.069-0.086c-0.028-0.055-0.023-0.066-0.044-0.129
			c-0.025-0.071,0.014-0.058-0.043-0.121c-0.029-0.034-0.091-0.041-0.124-0.071c-0.054-0.054-0.095-0.157-0.11-0.235
			c-0.028-0.148-0.011-0.189,0.102-0.265c0.062-0.041,0.087-0.069,0.123-0.122c0.054-0.082,0.133-0.246,0.157-0.348
			c0.035-0.144,0.008-0.426,0.209-0.447c0.075-0.008,0.163,0.033,0.245,0.02c0.137-0.023,0.167-0.147,0.27-0.224
			c0.121-0.09,0.204-0.119,0.268-0.252c0.072-0.152,0.11-0.281,0.277-0.363c0.122-0.062,0.235-0.077,0.357-0.155
			c0.062-0.039,0.123-0.088,0.194-0.111c0.173-0.059,0.399,0.017,0.56-0.069c0.146-0.077,0.195-0.301,0.326-0.405
			c0.145-0.113,0.307-0.012,0.459,0.041c0.34,0.118,0.514-0.274,0.765-0.412c0.201-0.111,0.223,0.061,0.091,0.198
			c-0.119,0.126-0.262,0.21-0.366,0.347c-0.145,0.188-0.1,0.287-0.082,0.51c0.016,0.203-0.126,0.236-0.171,0.423
			c-0.018,0.075-0.025,0.133-0.054,0.209c-0.016,0.045-0.022,0.083-0.05,0.122c-0.052,0.074-0.065,0.048-0.123,0.092
			c-0.184,0.139-0.231,0.334-0.214,0.561c0.01,0.123,0.06,0.123,0.11,0.22c0.039,0.075,0.003,0.141,0.003,0.219
			c0,0.103-0.007,0.356,0.061,0.47c0.051,0.084,0.203,0.1,0.275,0.172c-0.116,0.008-0.132-0.039-0.235,0.006
			c-0.058,0.025-0.174,0.049-0.183,0.097c-0.009,0.045,0.084,0.149,0.082,0.214c-0.002,0.057-0.05,0.155-0.072,0.204
			c-0.045,0.103-0.092,0.356-0.209,0.387c-0.072,0.019-0.139-0.018-0.209,0c-0.09,0.024-0.117,0.024-0.214,0.031
			c-0.101,0.007-0.357,0.101-0.418,0.192c0.009-0.082,0.098-0.137,0.092-0.219c-0.003-0.043-0.082-0.131-0.112-0.178
			c-0.054-0.084-0.103-0.167-0.214-0.214c-0.098-0.041-0.152,0.022-0.235,0.01c-0.092-0.013-0.099-0.123-0.142-0.219
			c-0.047-0.104-0.05-0.606-0.22-0.545c-0.062,0.022-0.149,0.297-0.209,0.366c-0.065,0.076-0.129,0.158-0.198,0.222
			c-0.088,0.082-0.18,0.151-0.301,0.135C85.709,117.512,85.637,117.457,85.533,117.453z"/>
		<path fill="none" stroke="#FFFFFF" stroke-width="0.1" stroke-miterlimit="10" d="M105.266,110.299
			c-0.06,0.086-0.185,0.086-0.265,0.143c-0.096,0.066-0.148,0.152-0.207,0.25c-0.063,0.105-0.086,0.184-0.195,0.249
			c-0.027,0.017-0.117,0.069-0.148,0.071c-0.023,0-0.047-0.07-0.072-0.071c-0.012,0-0.028,0.026-0.034,0.024
			c-0.002,0-0.068,0.017-0.065,0.017c-0.111,0.019-0.186,0.043-0.271-0.021c-0.098-0.072-0.084-0.17-0.127-0.266
			c-0.002-0.005-0.059-0.014-0.064-0.025c-0.01-0.023,0.014-0.045,0.004-0.065c-0.029-0.056-0.025-0.079-0.076-0.122
			c-0.099-0.082-0.166-0.047-0.276-0.051c-0.136-0.008-0.179-0.088-0.214-0.219c-0.03-0.113-0.092-0.24-0.127-0.037
			c-0.059-0.037-0.18-0.041-0.245-0.056c-0.038-0.009-0.085,0.017-0.122-0.006c-0.061-0.035-0.014-0.091-0.057-0.117
			c-0.088-0.052-0.045,0.023-0.102,0.031c-0.033,0.004-0.095-0.013-0.123-0.005c-0.045,0.01-0.023,0.049-0.081,0.056
			c-0.03,0.003-0.104-0.028-0.137-0.036c0.067-0.095-0.036-0.193-0.128-0.233c-0.016-0.007-0.127-0.04-0.133-0.041
			c-0.026-0.003-0.09,0.026-0.127,0.02c-0.153-0.026-0.097-0.146-0.133-0.229c-0.021-0.048-0.084-0.021-0.082-0.093
			c0.002-0.013,0.065,0.002,0.066-0.004c0.005-0.019,0.001-0.045,0.005-0.062c0.021-0.085-0.03-0.196-0.086-0.222
			c-0.021-0.01-0.106-0.006-0.127-0.012c-0.01-0.004,0.009-0.061-0.006-0.068c-0.015-0.006-0.054,0.025-0.065,0.017
			c-0.057-0.039-0.068,0.006-0.093-0.077c-0.012-0.039,0.026-0.096,0.021-0.137c-0.017-0.135-0.073-0.131-0.01-0.271
			c0.047-0.104,0.084-0.15,0.021-0.248c-0.05-0.078-0.134-0.189-0.199-0.246c-0.08-0.067-0.181-0.102-0.239-0.203
			c-0.048-0.084-0.012-0.19-0.059-0.271c-0.059-0.1-0.167-0.081-0.217-0.198c-0.047-0.108,0.031-0.207,0.084-0.324
			c0.08-0.176,0.154-0.17,0.304-0.217c0.178-0.054,0.179-0.16,0.242-0.289c0.05-0.104,0.134-0.17,0.175-0.28
			c0.048-0.124,0.023-0.277,0.08-0.394c0.035-0.074,0.115-0.078,0.104-0.188c-0.002-0.037-0.052-0.074-0.061-0.113
			c-0.01-0.043,0.002-0.097,0-0.142c-0.004-0.095-0.068-0.285,0-0.347c0.041-0.037,0.148-0.022,0.204-0.031
			c-0.06-0.078-0.042-0.184-0.134-0.215c-0.057-0.018-0.187,0.012-0.243,0.012c-0.165,0-0.056,0.016-0.103-0.112
			c-0.033-0.091-0.123-0.098-0.166-0.181c-0.035-0.071,0-0.135-0.008-0.207c-0.02-0.209-0.266-0.361-0.264-0.58
			c0.001-0.176,0.208-0.189,0.29-0.307c0.167-0.235-0.161-0.213-0.224-0.336c-0.068-0.133,0.129-0.246,0.238-0.215
			c0.04,0.012,0.084,0.092,0.118,0.092c0.082,0,0.085-0.121,0.035-0.184c-0.108-0.132-0.316,0.005-0.377-0.193
			c-0.019-0.061-0.046-0.179-0.052-0.244c-0.004-0.058,0.039-0.1,0.037-0.164c-0.002-0.071-0.061-0.112-0.072-0.178
			c-0.025-0.141,0.13-0.139,0.117-0.26c-0.013-0.117-0.183-0.092-0.213-0.174c-0.039-0.096,0.104-0.178,0.096-0.285
			c-0.008-0.102-0.092-0.14-0.148-0.197c-0.22-0.229,0.075-0.256,0.041-0.476c-0.013-0.088-0.105-0.147-0.102-0.244
			c0.006-0.149,0.076-0.103,0.162-0.122c0.31-0.068-0.047-0.234-0.07-0.367c-0.031-0.172,0.219-0.264,0.372-0.193
			c0.062,0.027,0.024,0.019,0.067,0.082c0.01,0.018,0.064,0.078,0.061,0.101c-0.014,0.067-0.061,0.04-0.092,0.072
			c-0.01,0.01-0.051-0.011-0.062,0c-0.03,0.032,0.019,0.045,0.011,0.071c-0.045,0.129,0.018,0.102,0.07,0.193
			c0.021,0.037-0.003,0.086,0.031,0.122c0.023,0.025,0.09,0.015,0.122,0.031c0.049,0.024,0.022,0.044,0.071,0.062
			c0.027,0.008,0.084,0.004,0.123,0.01c0.114,0.019,0.153,0.024,0.213,0.111c0.056,0.081,0.035,0.155,0.127,0.225
			c0.082,0.061,0.146,0.021,0.229,0.062c0.052,0.024,0.06,0.077,0.093,0.107c0.039,0.034,0.071,0.045,0.111,0.075
			c0.03,0.023-0.02,0.058,0.061,0.072c0.06,0.01,0.08-0.037,0.123-0.041c0.047-0.004,0.211-0.002,0.246,0.016
			c0.123,0.063,0.006,0.137,0.086,0.214c0.045,0.044,0.197-0.005,0.239-0.036c0.119-0.092,0.04-0.125,0.203-0.045
			c0.104,0.05,0.104,0.061,0.174,0.152c0.013,0.018,0.089,0.1,0.103,0.106c0.008,0.005,0.008,0.048,0.02,0.052
			c0.038,0.008,0.042-0.051,0.051-0.052c0.077-0.004,0.118-0.055,0.103,0.103c0.13-0.082,0.118,0.08,0.204,0.082
			c0.099,0.002,0.098-0.146,0.142-0.199c0.095-0.112,0.36-0.111,0.296-0.342c0.094,0.039,0.125-0.054,0.225,0
			c-0.047-0.092,0.002-0.152,0.072-0.203c0.061-0.045,0.116-0.028,0.188-0.062c0.025-0.012,0.049-0.071,0.076-0.087
			c0.037-0.023,0.078-0.004,0.117-0.023c0.099-0.047,0.098-0.086,0.098-0.186c0-0.091-0.049-0.215,0.102-0.152
			c0.113,0.047,0.055,0.154,0.127,0.227c0.039,0.039,0.076,0.003,0.117,0.038c0.055,0.046,0.038,0.091,0.102,0.133
			c0.106,0.069,0.102,0.013,0.127,0.158c0.022,0.116,0.004,0.22,0.017,0.336c0.005,0.053-0.003,0.075,0.024,0.116
			c0.039,0.057,0.039,0.021,0.088,0.052c0.074,0.049,0.15,0.071,0.173,0.173c0.019,0.079-0.03,0.191-0.03,0.275
			c-0.001,0.18,0.021,0.313-0.016,0.47c-0.02,0.082-0.057,0.144-0.066,0.239c-0.01,0.103,0.029,0.257,0.072,0.351
			c0.07,0.159,0.156,0.308,0.111,0.497c-0.02,0.081-0.248,0.25-0.133,0.344c0.057,0.047,0.127-0.039,0.153-0.025
			c0.067,0.035,0.024,0.175,0.041,0.244c0.06,0.272,0.288,0.365,0.517,0.461c0.213,0.088,0.522,0.217,0.332,0.455
			c-0.062,0.078-0.147,0.14-0.187,0.227c-0.022,0.054-0.037,0.165-0.052,0.224c-0.03,0.14-0.022,0.281-0.102,0.419
			c-0.15,0.262-0.326,0.15-0.578,0.133c-0.103-0.008-0.227-0.023-0.328-0.011c-0.15,0.019-0.08,0.041-0.153,0.117
			c-0.032,0.033-0.072,0.091-0.122,0.117c-0.051,0.026-0.124,0.026-0.174,0.067c-0.106,0.084-0.096,0.271-0.102,0.392
			c-0.005,0.12,0.041,0.17,0.051,0.28c0.008,0.082-0.039,0.141-0.062,0.219c-0.019,0.068,0.009,0.13,0,0.184
			c-0.009,0.061-0.048,0.073-0.065,0.133c-0.028,0.097-0.004,0.263,0,0.356c0.004,0.104,0.067,0.233,0.057,0.341
			c-0.008,0.057-0.043,0.082-0.053,0.128c-0.013,0.073,0.019,0.156,0.012,0.224c-0.016,0.162-0.076,0.098-0.252,0.134
			c-0.133,0.026-0.146,0.12-0.166,0.254c-0.012,0.069-0.018,0.137,0.005,0.204c0.017,0.048,0.065,0.031,0.065,0.092
			c0,0.087-0.133,0.143-0.166,0.219c-0.033,0.086-0.006,0.225,0.035,0.29c0.01,0.017,0.076,0.076,0.09,0.087
			c0.008,0.006,0.105,0.061,0.104,0.057c0.063,0.08-0.048,0.096,0.009,0.188c0.054,0.087,0.183,0.075,0.255,0.076
			C105.204,110.198,105.28,110.184,105.266,110.299z"/>
	</g>
	<path fill="#525FAA" stroke="#999999" stroke-width="0.25" stroke-linejoin="round" stroke-miterlimit="10" d="M88.733,104.591
		c0.062-0.019,0.146,0.005,0.214,0.01c0.051,0.005,0.146-0.013,0.204,0.011c0.116-0.18,0.199-0.041,0.204,0.092
		c0.006,0.142,0.016,0.232,0.193,0.203c-0.001,0.092-0.112,0.179-0.157,0.256c-0.053,0.088-0.082,0.17-0.072,0.275
		c0.008,0.074,0.023,0.186,0.046,0.264c0.042,0.142,0.103,0.177,0.079,0.342c-0.017,0.119-0.028,0.251-0.028,0.372
		c0,0.042-0.054,0.056-0.01,0.102c0.024,0.026,0.03-0.065,0.031-0.071c0.072,0.056,0.08-0.029,0.127-0.021
		c0.062,0.013,0.071,0.056,0.127,0.072c0.157,0.048,0.083-0.066,0.166-0.158c0.08-0.089,0.152-0.028,0.257-0.026
		c0.061,0.002,0.07-0.015,0.139,0c0.043,0.01,0.099,0.047,0.143,0.063c0.063,0.02,0.074-0.01,0.137,0.046
		c0.028,0.022,0.073,0.103,0.088,0.137c0.043,0.105,0.066,0.168,0.162,0.255c0.042,0.038,0.074,0.049,0.102,0.092
		c0.016,0.022,0.015,0.099,0.041,0.138c0.063,0.093,0.082,0.047,0.076,0.178c-0.004,0.138-0.078,0.283-0.056,0.421
		c0.024,0.158,0.149,0.227,0.261,0.319c0.049,0.04,0.098,0.088,0.135,0.142c0.035,0.051,0.043,0.178,0.074,0.209
		c0.067,0.071,0.398,0.032,0.512,0.035c0.189,0.005,0.379,0.012,0.568,0.016c-0.101,0.043-0.009,0.074,0.035,0.112
		c0.018,0.017,0.063,0.021,0.077,0.036c0.022,0.025-0.001,0.063,0.01,0.076c0.036,0.042,0.101,0.05,0.128,0.111
		c0.039,0.097-0.039,0.08-0.052,0.134c-0.022,0.097,0.022,0.018,0.062,0.071c0,0,0.056,0.149,0.056,0.143
		c-0.002,0.048-0.035,0.107-0.052,0.152c-0.002,0.01,0.007,0.064,0.006,0.072c-0.002,0.018-0.045,0.026-0.038,0.066
		c0.007,0.044,0.071,0.105,0.094,0.146c0.035,0.063,0.028,0.092,0.052,0.153c0.021,0.058,0.039,0.116,0.107,0.147
		c0.025,0.013,0.064,0.004,0.076,0.011c-0.012-0.006,0.056,0.041,0.041,0.036c0.037,0.013,0.097,0.033,0.142,0.051
		c0.027,0.01,0.056-0.012,0.077-0.003c0.023,0.009-0.018,0.067,0.02,0.073c0.061,0.011,0.097-0.057,0.153-0.025
		c0.052,0.029,0.05,0.116,0.065,0.159c0.085,0.212,0.148,0.543-0.061,0.723c0.057,0.095,0.184,0.089,0.266,0.122
		c0.045,0.02,0.07-0.001,0.121,0.063c0.039,0.046,0.031,0.078,0.052,0.121c0.026,0.053,0.077,0.072,0.112,0.123
		c0.051,0.076,0.013,0.062,0.021,0.143c0.017,0.175,0.06,0.113,0.183,0.173c-0.125,0.123,0.092,0.067,0.153,0.021
		c-0.033,0.086,0.019,0.121,0.017,0.188c-0.006,0.104-0.068,0.09-0.119,0.168c-0.043,0.067-0.002,0.129-0.029,0.185
		c-0.039,0.078-0.11,0.064-0.168,0.121c-0.107,0.104-0.096,0.26-0.1,0.383c-0.004,0.084-0.041,0.109-0.06,0.179
		c-0.021,0.08,0.008,0.104,0.011,0.183c0.006,0.174-0.142,0.236-0.24,0.357c-0.055,0.068-0.053,0.128-0.137,0.092
		c-0.085-0.036-0.068-0.092-0.174-0.102c-0.117-0.012-0.23,0.093-0.361,0.115c-0.07,0.01-0.127-0.006-0.199,0.026
		c-0.074,0.034-0.084,0.101-0.143,0.147c-0.027,0.024-0.066,0.06-0.107,0.055c-0.06-0.01-0.027-0.057-0.065-0.079
		c-0.09-0.058-0.095-0.039-0.194-0.03c-0.254,0.021-0.152,0.145-0.295,0.295c-0.063-0.179-0.199-0.431-0.097-0.597
		c0.065-0.104,0.071-0.196,0.158-0.28c0.059-0.058,0.264-0.142,0.274-0.193c-0.047,0-0.144-0.162-0.162-0.225
		c-0.012-0.035-0.019-0.086,0-0.132c0.013-0.036,0.065-0.063,0.07-0.092c0.014-0.065-0.041-0.146-0.029-0.214
		c0.01-0.072,0.076-0.137,0.09-0.215c0.009-0.037,0.041-0.18,0.041-0.209c0-0.094-0.08-0.059-0.131-0.157
		c-0.062-0.116,0.039-0.103,0.049-0.204c0.011-0.083-0.129-0.114-0.11-0.188c0.024-0.108,0.45-0.039,0.163-0.221
		c-0.094-0.058-0.107-0.031-0.113-0.142c-0.004-0.087,0.051-0.142,0.053-0.204c0-0.127-0.055-0.096-0.134-0.133
		c-0.133-0.061-0.11-0.11-0.194-0.225c-0.063-0.084-0.141-0.089-0.244-0.08c-0.114,0.006-0.096,0.016-0.122,0.111
		c-0.019,0.07-0.001,0.146-0.015,0.214c-0.022,0.108-0.062,0.071-0.127,0.158c-0.043,0.054-0.031,0.149-0.041,0.214
		c-0.006,0.031,0.008,0.078-0.012,0.102c-0.061,0.074-0.037-0.023-0.091-0.004c-0.079,0.026-0.136,0.107-0.204,0.131
		c0.027-0.008-0.098,0-0.092,0c-0.041,0-0.07,0.012-0.112,0c-0.084-0.021-0.086-0.1-0.192-0.041
		c-0.076,0.041-0.094,0.113-0.185,0.148c-0.032,0.014-0.069,0.01-0.103,0.026c-0.024,0.012-0.08,0.065-0.102,0.071
		c-0.083,0.021-0.138-0.043-0.214-0.052c-0.073-0.008-0.144,0.063-0.214,0.082c-0.063,0.017-0.151-0.013-0.214-0.01
		c-0.088,0.002-0.122-0.011-0.209,0.048c-0.07,0.049-0.08,0.096-0.178,0.115c-0.176,0.035-0.281-0.012-0.413-0.102
		c-0.122-0.086-0.29-0.102-0.423-0.174c-0.037-0.021-0.043-0.063-0.092-0.072c-0.039-0.006-0.083,0.053-0.112,0.041
		c-0.042-0.017-0.033-0.192-0.143-0.092c-0.056,0.053,0.001,0.266,0,0.326c-0.001,0.068-0.023,0.146-0.02,0.215
		c0.005,0.115-0.027,0.161-0.056,0.27c-0.024,0.091-0.015,0.175-0.041,0.275c-0.022,0.09-0.125,0.178-0.127,0.271
		c-0.07-0.034-0.096-0.029-0.163-0.031c-0.052-0.002-0.125,0.04-0.168-0.005c-0.027-0.027-0.023-0.156-0.041-0.204
		c-0.02-0.051-0.12-0.13-0.128-0.168c-0.009-0.05,0.033-0.14,0.041-0.194c0.009-0.058-0.001-0.113,0.011-0.172
		c0.028-0.156,0.007-0.228-0.062-0.363c-0.048-0.094-0.007-0.07-0.107-0.106c-0.054-0.019-0.123-0.022-0.18-0.032
		c-0.395-0.063-0.79-0.126-1.185-0.189c-1.014-0.161-2.028-0.324-3.043-0.486c-0.052-0.008-0.178-0.004-0.223-0.036
		c-0.002-0.001-0.104-0.19-0.108-0.204c-0.025-0.074,0.007-0.166,0.066-0.226c0.127-0.129,0.306-0.06,0.439-0.155
		c0.144-0.104,0.172-0.208,0.183-0.373c0.013-0.184,0.18-0.331,0.188-0.509c0.007-0.14-0.172-0.201-0.078-0.343
		c0.046-0.07,0.155-0.092,0.202-0.157c0.073-0.103,0.026-0.163-0.001-0.278c-0.034-0.144-0.045-0.309,0.031-0.438
		c0.043-0.073,0.115-0.111,0.145-0.197c0.027-0.082,0.026-0.185,0.02-0.269c-0.017-0.221,0.001-0.2,0.186-0.274
		c0.106-0.043,0.094-0.087,0.194-0.041c0.068,0.031,0.127,0.136,0.181,0.19c0.066,0.068,0.133,0.137,0.202,0.203
		c0.096,0.09,0.11,0.086,0.228,0.105c0.151,0.023,0.348,0.02,0.459-0.102c0.055-0.063,0.035-0.16,0.137-0.174
		c0.053-0.008,0.164,0.058,0.214,0.08c0.17,0.073,0.316,0.19,0.504,0.227c0.104,0.021,0.409,0.049,0.495-0.008
		c0.061-0.041,0.069-0.135,0.065-0.215c-0.007-0.125-0.054-0.123,0.066-0.179c0.187-0.086,0.318-0.06,0.435-0.271
		c0.09-0.158-0.001-0.305,0.078-0.469c0.039-0.078,0.109-0.142,0.139-0.224c0.036-0.099,0.02-0.196,0.02-0.298
		c0-0.157,0.02-0.396,0.155-0.503c0.115-0.091,0.332-0.13,0.474-0.154c0.153-0.026,0.245-0.067,0.378-0.097
		c0.025-0.006,0.064-0.002,0.088-0.014c0.065-0.031,0.029-0.041,0.064-0.078C88.575,104.874,88.646,104.725,88.733,104.591"/>
	<path fill="#525FAA" stroke="#999999" stroke-width="0.25" stroke-linejoin="round" stroke-miterlimit="10" d="M88.193,100.881
		c-0.083,0.148-0.179-0.024-0.234,0c-0.03,0.013-0.025,0.104-0.051,0.133c-0.036,0.039-0.088,0.045-0.133,0.061
		c-0.03,0.012-0.098,0.031-0.122,0.031c-0.059-0.003-0.061-0.048-0.092-0.053c-0.18-0.021-0.106,0.066-0.158,0.189
		c-0.04,0.096-0.191,0.245-0.26,0.321c-0.015-0.008-0.076,0.062-0.122,0.082c-0.05,0.022-0.201,0.019-0.245,0.112
		c-0.021,0.043,0.026,0.209,0.021,0.265c-0.01,0.106-0.041,0.209-0.051,0.315c-0.006,0.052,0.011,0.104-0.011,0.151
		c-0.018,0.039-0.082,0.062-0.092,0.089c-0.048,0.114,0.069,0.156,0.072,0.29c0.001,0.033-0.048,0.089-0.035,0.121
		c0.018,0.052,0.069,0.052,0.101,0.089c0.102,0.111,0.032,0.131,0.031,0.279c-0.001,0.1,0.062,0.131,0.087,0.21
		c0.047,0.149-0.068,0.187-0.173,0.269c-0.116,0.092-0.108,0.127-0.134,0.27c-0.029,0.159-0.038,0.175-0.194,0.172
		c-0.225-0.003-0.413,0.002-0.539,0.211c-0.158,0.264-0.064,0.684-0.367,0.826c-0.076,0.036-0.164,0.031-0.235,0.061
		c-0.085,0.037-0.105,0.101-0.168,0.168c-0.063,0.07-0.117,0.088-0.117,0.18c0,0.08,0.017,0.123,0.011,0.203
		c-0.008,0.093,0.003,0.142,0.025,0.214c0.021,0.073,0.04,0.11-0.015,0.204c-0.038,0.063-0.141,0.16-0.12,0.24
		c0.012,0.047,0.094,0.084,0.12,0.127c0.024,0.041,0.012,0.086,0.04,0.123c0.047,0.06,0.219,0.08,0.245,0.142
		c0.032,0.075-0.092,0.155,0.041,0.215c-0.084-0.011-0.1,0.054-0.141,0.112c-0.057,0.08-0.065,0.097-0.159,0.137
		c-0.119,0.051-0.329,0.066-0.447,0.014c-0.137-0.061-0.275-0.264-0.377-0.371c-0.162-0.17-0.176-0.145-0.385-0.056
		c-0.151,0.065-0.111,0.124-0.102,0.284c0.005,0.074,0.002,0.169-0.022,0.238c-0.03,0.086-0.101,0.125-0.145,0.199
		c-0.074,0.12-0.067,0.283-0.036,0.42c0.054,0.246,0.042,0.246-0.143,0.407c-0.193,0.169,0.015,0.165,0.04,0.326
		c0.021,0.13-0.146,0.319-0.186,0.437c-0.023,0.068-0.01,0.145-0.017,0.217c-0.011,0.109-0.019,0.097-0.082,0.176
		c-0.116,0.145-0.179,0.145-0.347,0.178c-0.139,0.027-0.301,0.145-0.267,0.305c0.018,0.08,0.135,0.119,0.115,0.219
		c-0.008,0.039-0.118,0.15-0.144,0.191c-0.101,0.156-0.157,0.289-0.136,0.476c0.021,0.192-0.042,0.247-0.123,0.407
		c-0.026,0.054-0.017,0.151-0.069,0.178c-0.051,0.025-0.18-0.016-0.24-0.02c-0.185-0.017-0.371-0.033-0.557-0.051
		c-0.453-0.041-0.907-0.082-1.361-0.123c0.066-0.102,0.022-0.234-0.025-0.355c-0.045-0.114-0.075-0.234-0.112-0.338
		c-0.04-0.107-0.111-0.209-0.108-0.336c0.002-0.056,0.012-0.119,0.021-0.172c0.005-0.033,0.047-0.043,0.046-0.072
		c-0.002-0.047-0.051-0.017-0.056-0.041c-0.016-0.067-0.022-0.141-0.046-0.193c-0.018-0.04-0.08-0.104-0.107-0.163
		c-0.038-0.084-0.082-0.138-0.106-0.226c-0.031-0.112,0.007-0.307,0.045-0.406c0.043-0.113,0.197-0.2,0.29-0.244
		c0.084-0.041,0.266-0.034,0.351-0.12c0.07-0.071,0.089-0.214-0.009-0.278c0.094-0.03,0.076-0.144,0.114-0.209
		c0.011-0.017,0.075-0.086,0.09-0.097c0.031-0.022,0.146-0.039,0.16-0.053c0.047-0.05-0.011-0.06,0.008-0.087
		c0.042-0.061,0.108-0.08,0.158-0.135c0.045-0.049,0.069-0.11,0.091-0.174c0.008-0.022,0.034-0.064,0.041-0.082
		c0.005-0.014-0.013-0.07-0.01-0.092c0.093,0.018,0.057-0.164,0.081-0.234c0.029-0.078,0.063-0.116,0.128-0.178
		c0.097-0.093,0.056-0.065,0.074-0.171c0.013-0.079,0.062-0.174,0.074-0.247c0.012-0.076,0.003-0.087,0.033-0.168
		c0.029-0.078,0.087-0.154,0.114-0.221c0.036-0.092,0.026-0.186,0.097-0.273c0.056-0.069,0.095-0.144,0.15-0.209
		c0.042-0.049,0.12-0.065,0.146-0.143c0.02-0.061-0.014-0.122,0.01-0.186c0.028-0.076,0.136-0.098,0.204-0.151
		c0.023-0.019,0.036,0.019,0.061-0.021c0.018-0.026,0.007-0.097,0.008-0.127c0.002-0.07,0.015-0.172,0.002-0.24
		c-0.007-0.035-0.052-0.058-0.053-0.092c-0.003-0.076,0.047-0.035,0.053-0.092c0.012-0.101-0.032-0.134,0.01-0.255
		c0.036-0.099,0.012-0.177,0.031-0.257c0.03-0.127,0.023-0.012,0.082-0.074c0.03-0.031,0.084-0.02,0.079-0.105
		c-0.011-0.186-0.138-0.01-0.202-0.043c0.032-0.062,0.181-0.111,0.194-0.151c0.02-0.063-0.074-0.079-0.076-0.134
		c-0.001-0.008,0.058-0.065,0.061-0.07c0.008-0.018-0.021-0.048-0.011-0.07c0.018-0.039,0.051-0.027,0.067-0.065
		c0.013-0.03,0.01-0.079,0.023-0.114c0.042-0.115,0.12-0.285,0.215-0.363c0.102-0.086,0.305-0.119,0.241-0.314
		c-0.125,0.018-0.256,0.101-0.324-0.038c-0.021-0.044,0.014-0.175-0.013-0.196c-0.073-0.057-0.146,0.031-0.091,0.102
		c-0.111,0.025-0.097-0.027-0.148-0.065c-0.026-0.021-0.074-0.144-0.087,0.004c-0.09-0.052,0.025-0.222,0.072-0.271
		c0.031-0.03,0.15-0.069,0.152-0.101c0.006-0.077-0.109-0.013-0.137-0.051c-0.026-0.036,0.045-0.071,0.035-0.097
		c-0.009-0.026-0.059-0.029-0.063-0.043c-0.027-0.098-0.07-0.033,0.015-0.149c0.073-0.099,0.154-0.199,0.204-0.297
		c0,0,0.047-0.024,0.059-0.041c-0.005,0.005-0.021-0.052-0.011-0.072c0.012-0.021,0.053-0.032,0.061-0.05
		c0.002-0.003,0.045-0.088,0.044-0.087c0.086-0.08,0.004-0.058,0.14-0.046c0.063,0.006,0.079,0.023,0.13,0.025
		c0.038,0.002,0.109,0.033,0.145-0.016c0.05-0.066-0.055-0.049-0.089-0.104c-0.13-0.213,0.164-0.063,0.229-0.104
		c0.066-0.043,0.016-0.11,0.01-0.142c-0.001-0.004-0.052-0.018-0.058-0.047c-0.008-0.039,0.038-0.021,0.041-0.031
		c0.059-0.199,0.207-0.071,0.366-0.122c-0.03-0.095-0.113-0.048-0.147-0.097c-0.039-0.058,0.025-0.045,0.01-0.098
		c0.001,0.004,0.016-0.039,0.015-0.051c-0.001-0.01-0.048-0.033-0.053-0.051c-0.017-0.061-0.06-0.111-0.023-0.168
		c0.04-0.063,0.055,0.031,0.051,0.031c-0.004-0.002-0.009,0.053,0,0.058c0.03,0.021,0.044-0.032,0.066-0.022
		c-0.006-0.003,0.086,0.029,0.081,0.03c0.014-0.004,0.056-0.008,0.067-0.01c0.03-0.007,0.016-0.067,0.046-0.074
		c0.146-0.034,0.116,0.187,0.214,0.155c0.067-0.021,0.02-0.121,0.058-0.16c0.042-0.042,0.085,0.003,0.12-0.023
		c0.117-0.084,0.045-0.25,0.066-0.32c0.003-0.01,0.071,0.025,0.087-0.021c0.01-0.027-0.051-0.098-0.066-0.117
		c0.158,0.028,0.179-0.053,0.214-0.158c0.004-0.013,0.043-0.015,0.051-0.029c0.014-0.027-0.033-0.041-0.01-0.067
		c0.042-0.047,0.131-0.112,0.183-0.142c0.033-0.02,0.063,0.015,0.102-0.012c0.01-0.006-0.008-0.054,0.01-0.065
		c0.046-0.03,0.066-0.022,0.128-0.04c0.051-0.016,0.179-0.064,0.229-0.052c0.129,0.036,0.073,0.122,0.061,0.209
		c-0.007,0.056-0.073,0.12,0.041,0.143c0.118,0.023,0.063-0.053,0.105-0.108c0.032-0.041,0.103-0.137,0.16-0.127
		c0.111,0.022,0.031,0.14,0.066,0.185c0.056,0.071,0.062,0.021,0.138,0.03c0.062,0.009,0.116,0.072,0.15,0.082
		c-0.003-0.002,0.126,0.006,0.114,0c0.048,0.027,0.064,0.121,0.09,0.133c0.039,0.017,0.058-0.1,0.115-0.041
		c0.052,0.054-0.126,0.125-0.021,0.148c0.027,0.004,0.044-0.076,0.082-0.088c0.078-0.022,0.052,0.002,0.122,0.021
		c0.04,0.01,0.002,0.061,0.066,0.04c-0.008,0.003,0.028-0.103,0.036-0.112c0.009,0.023,0.05,0.096,0.072,0.1
		c0.123,0.024,0.025-0.023,0.099-0.054c0.049-0.021,0.011-0.069,0.084-0.041c0.054,0.022,0.022,0.093,0.081,0.118
		c0.001-0.052-0.052-0.188,0.021-0.214c0.082-0.033,0.046,0.153,0.099,0.19c0.098,0.065,0.146-0.045,0.15-0.121
		c0.005-0.08-0.084-0.178,0.056-0.121c0.025,0.01,0.097,0.125,0.136,0.15c0.047,0.031,0.127,0.047,0.16,0.084
		c0.061,0.068,0.031,0.168,0.194,0.182c0.074,0.006,0.014-0.121,0.091,0.007c0.018,0.03,0.063,0.217,0.061,0.245
		c-0.001,0.021-0.045,0.107-0.05,0.092c-0.004-0.012,0.172,0.128,0.163,0.127c0.114,0.01,0.116-0.164,0.203-0.01
		c0.041,0.072-0.017,0.101,0.087,0.162c0.13,0.078,0.075-0.025,0.178-0.02C88.233,100.705,88.161,100.809,88.193,100.881"/>
	<path fill="#525FAA" stroke="#999999" stroke-width="0.25" stroke-linejoin="round" stroke-miterlimit="10" d="M85.319,107.189
		c-0.122-0.055-0.019-0.125-0.041-0.193c-0.019-0.057-0.123-0.092-0.178-0.139c-0.106-0.088-0.27-0.26-0.189-0.412
		c0.034-0.064,0.137-0.133,0.133-0.225c-0.005-0.092-0.066-0.089-0.077-0.193c-0.007-0.074,0.041-0.144,0.036-0.213
		c-0.008-0.105-0.051-0.103,0.01-0.194c0.094-0.144,0.202-0.226,0.357-0.275c0.096-0.03,0.197-0.052,0.265-0.143
		c0.088-0.117,0.072-0.304,0.112-0.452c0.055-0.206,0.153-0.402,0.37-0.457c0.094-0.023,0.185-0.018,0.281-0.016
		c0.157,0.004,0.166-0.012,0.194-0.172c0.024-0.133,0.015-0.177,0.123-0.265c0.093-0.073,0.224-0.11,0.194-0.249
		c-0.019-0.089-0.098-0.128-0.097-0.234c0.001-0.147,0.076-0.172-0.031-0.28c-0.034-0.034-0.084-0.04-0.101-0.087
		c-0.014-0.038,0.015-0.135,0.005-0.184c-0.007-0.029-0.066-0.132-0.066-0.146c-0.001-0.086,0.033-0.045,0.077-0.113
		c0.097-0.154,0.104-0.49,0.101-0.68c-0.002-0.127-0.023-0.135,0.112-0.191c0.035-0.016,0.077-0.014,0.092-0.021
		c0.052-0.021,0.131-0.096,0.142-0.09c0.05-0.055,0.107-0.117,0.163-0.194c0.026-0.035,0.066-0.082,0.082-0.11
		c0.019-0.033,0.026-0.16,0.031-0.165c0.054-0.077,0.095-0.019,0.163-0.01c0.046,0.005,0.084,0.015,0.153,0
		c0.064-0.015,0.138-0.024,0.183-0.082c0.057-0.073-0.003-0.108,0.087-0.112c-0.002,0,0.041,0.049,0.066,0.051
		c0.034,0.004,0.056-0.017,0.086-0.018c0.013-0.001,0.128-0.055,0.091,0.032c-0.036,0.083-0.39,0.217-0.448,0.21
		c-0.049-0.006-0.091-0.051-0.147-0.051c-0.047-0.002-0.127,0.078-0.133-0.021c-0.068,0.06-0.076,0.185-0.163,0.244
		c0.123,0.067,0.01,0.199-0.101,0.164c-0.001,0.084,0.015,0.122-0.021,0.203c0.152,0.101-0.123,0.203,0.155,0.151
		c0.174-0.035,0.361-0.073,0.467-0.131c-0.005-0.012,0.003-0.033-0.011-0.051c0.107-0.035,0.224,0.105,0.308,0.061
		c0.033-0.019,0.026-0.148,0.019-0.184c0.126,0.006,0.202-0.051,0.265,0.041c0.028-0.001,0.171-0.015,0.219-0.041
		c0.07-0.037,0.007-0.152,0.097-0.152c0.002-0.01-0.001-0.017-0.011-0.021c0.01-0.01,0.024-0.012,0.031-0.03
		c0.1,0.094,0.12,0.111,0.206,0.195c0.023,0.021,0.084,0.087,0.113,0.087c0.044,0.001,0.03-0.038,0.071-0.053
		c0.013-0.005,0.032-0.046,0.043-0.052c0.034-0.017,0.088-0.002,0.138,0.006c-0.008-0.021-0.002-0.051-0.01-0.072
		c0.095-0.016,0.081,0.182,0.173,0.215c-0.031,0.043-0.034,0.09-0.051,0.133c-0.019,0.049-0.078,0.09-0.092,0.131
		c-0.027,0.088,0.067,0.215-0.041,0.256c0.075,0.131,0.058,0.102,0.011,0.254c-0.007,0.023-0.016,0.134-0.021,0.139
		c-0.051,0.057-0.225,0.055-0.275-0.005c-0.029,0.112,0.069,0.341,0.183,0.387c-0.132,0.235-0.09,0.479-0.152,0.737
		c-0.057,0.24-0.348,0.432-0.355,0.71c-0.002,0.053,0.03,0.122,0.018,0.174c-0.015,0.065-0.092,0.134-0.125,0.192
		c-0.041,0.074-0.083,0.181-0.14,0.23c-0.071,0.061-0.186,0.066-0.265,0.086c-0.199,0.053-0.561,0.092-0.734,0.225
		c-0.214,0.164-0.126,0.492-0.163,0.714c-0.025,0.147-0.131,0.222-0.18,0.356c-0.047,0.127,0.016,0.242-0.026,0.367
		c-0.029,0.088-0.115,0.213-0.191,0.266c-0.078,0.053-0.325,0.031-0.367,0.111c-0.056,0.107,0.119,0.272-0.051,0.357
		c-0.083,0.041-0.294,0.015-0.386,0.008C85.84,107.484,85.551,107.313,85.319,107.189"/>
	<path fill="#525FAA" stroke="#999999" stroke-width="0.25" stroke-linejoin="round" stroke-miterlimit="10" d="M98.916,112.806
		c-0.147,0.069-0.347-0.239-0.429,0.052c-0.041,0.147,0.15,0.326,0.123,0.498c-0.012,0.078-0.086,0.117-0.137,0.161
		c-0.1,0.084-0.095,0.089-0.144,0.206c-0.047,0.113-0.123,0.145-0.185,0.232c-0.041,0.061-0.039,0.109-0.065,0.176
		c-0.06,0.154-0.267,0.266-0.397,0.367c-0.156,0.119-0.178,0.209-0.275,0.377c-0.053,0.091-0.115,0.143-0.153,0.244
		c-0.043,0.115-0.093,0.156-0.178,0.246c-0.072,0.074-0.122,0.152-0.16,0.256c-0.024,0.068-0.03,0.142-0.058,0.209
		c-0.018,0.049-0.051,0.091-0.067,0.141c-0.007,0.021-0.04,0.023-0.046,0.046c-0.006,0.021,0.033,0.026,0.029,0.04
		c-0.004,0.032-0.01,0.059-0.01,0.092c0.002,0.053-0.007,0.129-0.02,0.178c-0.034,0.129-0.141,0.246-0.229,0.338
		c-0.144,0.147-0.224,0.156-0.189,0.371c0.021,0.138,0.01,0.252,0,0.388c-0.01,0.136-0.021,0.246-0.071,0.366
		c-0.014,0.035-0.053,0.039-0.062,0.078c-0.006,0.031,0.029,0.058,0.021,0.097c-0.019,0.094-0.063,0.075-0.112,0.142
		c-0.041,0.055-0.037,0.121-0.068,0.18c-0.034,0.06-0.082,0.119-0.115,0.178c-0.08,0.146-0.164,0.177-0.305,0.244
		c-0.124,0.059-0.232,0.152-0.357,0.215c-0.107,0.053-0.259,0.051-0.357,0.132c-0.109,0.091-0.067,0.245-0.162,0.341
		c-0.092,0.094-0.264,0.066-0.367,0.148c-0.059,0.047-0.087,0.087-0.081,0.162c-0.115-0.063-0.112-0.127-0.185-0.213
		c-0.07-0.086-0.125-0.041-0.229-0.057c-0.054-0.008-0.084-0.027-0.132-0.041c-0.038-0.009-0.114-0.001-0.143-0.015
		c-0.107-0.052-0.123-0.201-0.27-0.183c0.009-0.072,0.04-0.127,0.04-0.199c0.001-0.065-0.013-0.131-0.011-0.199
		c0.006-0.133-0.021-0.257-0.035-0.387c-0.008-0.064-0.041-0.145-0.043-0.199c-0.004-0.083,0.035-0.121,0.018-0.199
		c-0.02-0.083-0.083-0.117-0.061-0.213c0.017-0.08,0.087-0.125,0.125-0.199c0.068-0.135,0.031-0.299-0.135-0.275
		c-0.063,0.009-0.119,0.063-0.194,0.045c-0.103-0.021-0.081-0.062-0.138-0.137c-0.061-0.08-0.11-0.095-0.137-0.188
		c-0.017-0.054,0.004-0.149-0.012-0.214c-0.035-0.16,0.01-0.23,0.041-0.393c0.029-0.15,0.004-0.273-0.051-0.402
		c-0.071-0.168-0.09-0.228-0.26-0.301c-0.105-0.045-0.318-0.068-0.393-0.174c-0.039-0.055-0.023-0.126-0.082-0.188
		c-0.057-0.061-0.13-0.094-0.188-0.153c-0.213-0.22-0.145-0.511-0.129-0.785c0.004-0.069-0.002-0.122-0.01-0.194
		c-0.012-0.105,0.004-0.09,0.051-0.162c0.097-0.145,0.264-0.176,0.348-0.285c0.04-0.053,0.027-0.159,0.081-0.204
		c0.048-0.039,0.136-0.038,0.194-0.041c0.104-0.004,0.097,0.006,0.176,0.056c0.07,0.045,0.07,0.094,0.171,0.012
		c0.063-0.055,0.069-0.115,0.153-0.148c0.074-0.031,0.127-0.02,0.203-0.031c0.133-0.021,0.256-0.154,0.387-0.111
		c0.058,0.019,0.111,0.119,0.162,0.121c0.068,0.004,0.106-0.117,0.151-0.168c0.142-0.16,0.181-0.164,0.177-0.371
		c-0.002-0.092,0.034-0.107,0.055-0.185c0.021-0.075-0.01-0.122-0.004-0.198c0.004-0.068,0.039-0.149,0.07-0.209
		c0.049-0.088,0.096-0.078,0.153-0.133c0.083-0.078,0.034-0.096,0.062-0.183c0.023-0.076,0.127-0.103,0.147-0.179
		c0.017-0.059-0.028-0.133-0.024-0.199c0.002-0.064,0.029-0.133,0.049-0.193c0.057-0.167,0.11-0.268,0.291-0.245
		c0.125,0.017,0.262,0.005,0.393-0.021c0.084-0.014,0.128-0.024,0.176-0.086c0.059-0.074,0.023-0.115,0.131-0.147
		c0.064-0.021,0.131-0.026,0.193-0.046c0.064-0.021,0.129-0.025,0.193-0.046c0.158-0.052,0.242-0.134,0.352-0.244
		c0.102-0.103,0.13-0.196,0.301-0.235c0.1-0.022,0.329-0.058,0.407,0.03c0.069,0.078-0.026,0.103-0.03,0.185
		c-0.004,0.082,0.057,0.136,0.112,0.192c0.097,0.103,0.269,0.298,0.423,0.291c0.182-0.006,0.01-0.083,0.076-0.168
		c0.029-0.037,0.127,0.088,0.199,0.086c0.117-0.003,0.296-0.127,0.383-0.198c0.057-0.048,0.131-0.113,0.172-0.174
		c0.034-0.047,0.053-0.169,0.098-0.191c0.119-0.055,0.074,0.084,0.117,0.121c0.049,0.041,0.139,0.028,0.193,0.021
		c0.188-0.028,0.126-0.19,0.227-0.331c0.043-0.061,0.123-0.102,0.141-0.179c0.016-0.07-0.084-0.127,0.051-0.153
		c-0.005,0.09,0.093,0.143,0.082,0.25c-0.016,0.141,0,0.145,0.051,0.28c0.016,0.041,0.01,0.096,0.023,0.137
		c0.019,0.06,0.063,0.084,0.078,0.108c0.062,0.094,0.1,0.244,0.057,0.377c-0.034,0.104-0.115,0.16-0.168,0.244
		c-0.039,0.06-0.15,0.197-0.113,0.275c0.037,0.077,0.078,0.029,0.128,0.061c0.05,0.032,0.052,0.022,0.081,0.082
		c0.055,0.102,0.076,0.289,0.016,0.397c-0.043,0.076-0.112,0.103-0.152,0.183c-0.043,0.086-0.02,0.08-0.012,0.175
		C99.129,112.654,99.033,112.691,98.916,112.806"/>
	<path fill="#525FAA" stroke="#999999" stroke-width="0.25" stroke-linejoin="round" stroke-miterlimit="10" d="M87.867,112.418
		c-0.016,0.058-0.031,0.119-0.03,0.185c0.081-0.024,0.123,0.012,0.183,0.05c0.065-0.068,0.153,0.01,0.24-0.02
		c0.059-0.021,0.055-0.049,0.107-0.082c0.049-0.031,0.037-0.026,0.102-0.041c0.28-0.063,0.135,0.238,0.254,0.225
		c0.004,0.048,0.029,0.066,0.072,0.051c0.002,0.018-0.012,0.008,0,0.03c0.059-0.047,0.073,0.089,0.101,0.144
		c0.056,0.106,0.085,0.065,0.163,0.133c0.068,0.056,0.069,0.142,0.148,0.199c0.087,0.061,0.134,0.053,0.179,0.178
		c-0.246,0.08-0.333,0.295-0.545,0.428c-0.231,0.145-0.475-0.184-0.709-0.051c-0.105,0.06-0.178,0.211-0.25,0.311
		c-0.094,0.131-0.184,0.148-0.356,0.148c-0.143,0-0.267,0.013-0.393,0.076c-0.062,0.031-0.113,0.072-0.17,0.109
		c-0.092,0.061-0.171,0.061-0.268,0.1c-0.254,0.099-0.234,0.347-0.39,0.504c-0.075,0.076-0.189,0.104-0.262,0.179
		c-0.078,0.081-0.068,0.151-0.194,0.173c-0.116,0.02-0.259-0.063-0.347,0.012c-0.089,0.072-0.09,0.338-0.112,0.422
		c-0.049,0.19-0.142,0.381-0.295,0.483c-0.163,0.108-0.089,0.027-0.235-0.01c-0.089-0.022-0.209,0.044-0.264,0.065
		c-0.132,0.056-0.206,0.043-0.334,0.058c-0.083,0.009-0.087,0.067-0.146,0.091c-0.054,0.021-0.087-0.014-0.147,0.021
		c-0.108,0.06-0.116,0.184-0.25,0.224c-0.089,0.026-0.085-0.006-0.164,0.062c-0.012,0.01-0.031,0.06-0.045,0.076
		c-0.025,0.028-0.054-0.004-0.082,0.04c-0.029,0.048,0.017,0.103-0.025,0.158c-0.098-0.073-0.199-0.156-0.285-0.229
		c-0.081-0.067-0.049-0.022-0.062-0.117c-0.007-0.058,0.018-0.111,0.003-0.174c-0.027-0.107-0.129-0.145-0.224-0.228
		c-0.088-0.077-0.197-0.097-0.299-0.147c-0.073-0.039-0.17-0.156-0.254-0.164c-0.03-0.004-0.104,0.037-0.133,0.041
		c-0.085,0.01-0.143-0.027-0.25,0.056c-0.062,0.048-0.137,0.187-0.176-0.009c-0.012-0.064,0.052-0.072,0.003-0.118
		c-0.003-0.002-0.096,0.009-0.128-0.015c-0.129-0.104-0.028-0.412,0.011-0.541c0.04-0.134,0.019-0.176-0.097-0.24
		c-0.102-0.055-0.129-0.115-0.239-0.193c0.176,0.018,0.371-0.246,0.346-0.393c-0.032-0.188-0.136-0.373-0.161-0.586
		c-0.018-0.156-0.034-0.162-0.185-0.117c-0.055,0.016-0.181-0.006-0.209,0.01c-0.045,0.027-0.017,0.094-0.036,0.139
		c-0.017,0.041-0.043,0.049-0.074,0.09c-0.033,0.041-0.076,0.071-0.107,0.108c-0.012,0.015-0.057,0.026-0.063,0.046
		c-0.018,0.049,0.042,0.038,0.035,0.071c-0.019,0.09,0.002,0.057-0.097,0.112c-0.087,0.049-0.128,0.076-0.229,0.072
		c-0.099-0.006-0.264-0.047-0.311,0.09c0.277,0.061,0.081,0.442-0.031,0.551c-0.03,0.029-0.07,0.023-0.101,0.066
		c-0.037,0.051-0.016,0.121-0.052,0.178c-0.075,0.123-0.109,0.043-0.219,0.037c-0.098-0.006-0.107,0.045-0.168-0.025
		c-0.037-0.044-0.055-0.186-0.102-0.217c-0.06-0.041-0.114,0.039-0.199-0.006c-0.065-0.035-0.113-0.168-0.178-0.207
		c-0.134-0.076-0.285-0.014-0.428-0.111c-0.084-0.059-0.214-0.12-0.321-0.137c-0.135-0.023-0.209,0.08-0.326,0.127
		c-0.107,0.041-0.27,0.05-0.357,0.121c-0.106,0.09-0.055,0.227-0.138,0.316c-0.097,0.107-0.275,0.064-0.372-0.005
		c-0.09-0.065-0.191-0.226-0.29-0.127c-0.042,0.042-0.046,0.117-0.095,0.168c-0.042,0.045-0.105,0.097-0.16,0.127
		c-0.132,0.076-0.206,0.035-0.341,0.017c-0.033-0.006-0.059,0.019-0.109,0c-0.062-0.024-0.093-0.094-0.156-0.123
		c-0.073-0.033-0.131-0.015-0.207-0.022c-0.106-0.013-0.119-0.049-0.206-0.104c-0.13-0.084-0.178-0.113-0.268-0.25
		c-0.09-0.139-0.18-0.275-0.267-0.416c-0.218-0.349-0.438-0.693-0.665-1.037c-0.188-0.282-0.35-0.59-0.551-0.864
		c-0.16-0.22-0.252-0.468-0.41-0.685c-0.141-0.192-0.302-0.398-0.428-0.601c-0.049-0.081-0.072-0.13-0.14-0.197
		c-0.061-0.06-0.114-0.102-0.161-0.181c-0.06-0.102-0.072-0.232-0.209-0.266c0.548-0.004,1.114,0.096,1.659,0.145
		c1.003,0.089,2.007,0.18,3.01,0.27c1.206,0.106,2.413,0.205,3.62,0.313c0.365,0.033,0.732,0.067,1.098,0.099
		c0.225,0.02,0.215,0.053,0.294-0.132c0.063-0.149,0.148-0.214,0.135-0.388c-0.016-0.201,0.054-0.643,0.292-0.711
		c0.064-0.018,0.196,0.031,0.26,0.042c0.164,0.026,0.327,0.052,0.491,0.077c0.959,0.154,1.918,0.308,2.877,0.462
		c0.297,0.047,0.593,0.098,0.889,0.142c0.15,0.021,0.147,0.016,0.205,0.137c0.061,0.125,0.081,0.164,0.062,0.299
		c-0.015,0.104-0.046,0.261-0.041,0.353c0.006,0.116,0.12,0.171,0.153,0.29c0.023,0.085-0.041,0.109,0.045,0.156
		c0.059,0.029,0.088-0.018,0.148-0.014C87.776,112.381,87.814,112.393,87.867,112.418"/>
	<path fill="#525FAA" stroke="#999999" stroke-width="0.25" stroke-linejoin="round" stroke-miterlimit="10" d="M85.533,117.453
		c-0.085-0.059-0.083-0.125-0.13-0.203c-0.017-0.028-0.056-0.057-0.069-0.086c-0.028-0.055-0.023-0.066-0.044-0.129
		c-0.025-0.071,0.014-0.058-0.043-0.121c-0.029-0.034-0.091-0.041-0.124-0.071c-0.054-0.054-0.095-0.157-0.11-0.235
		c-0.028-0.148-0.011-0.189,0.102-0.265c0.062-0.041,0.087-0.069,0.123-0.122c0.054-0.082,0.133-0.246,0.157-0.348
		c0.035-0.144,0.008-0.426,0.209-0.447c0.075-0.008,0.163,0.033,0.245,0.02c0.137-0.023,0.167-0.147,0.27-0.224
		c0.121-0.09,0.204-0.119,0.268-0.252c0.072-0.152,0.11-0.281,0.277-0.363c0.122-0.062,0.235-0.077,0.357-0.155
		c0.062-0.039,0.123-0.088,0.194-0.111c0.173-0.059,0.399,0.017,0.56-0.069c0.146-0.077,0.195-0.301,0.326-0.405
		c0.145-0.113,0.307-0.012,0.459,0.041c0.34,0.118,0.514-0.274,0.765-0.412c0.201-0.111,0.223,0.061,0.091,0.198
		c-0.119,0.126-0.262,0.21-0.366,0.347c-0.145,0.188-0.1,0.287-0.082,0.51c0.016,0.203-0.126,0.236-0.171,0.423
		c-0.018,0.075-0.025,0.133-0.054,0.209c-0.016,0.045-0.022,0.083-0.05,0.122c-0.052,0.074-0.065,0.048-0.123,0.092
		c-0.184,0.139-0.231,0.334-0.214,0.561c0.01,0.123,0.06,0.123,0.11,0.22c0.039,0.075,0.003,0.141,0.003,0.219
		c0,0.103-0.007,0.356,0.061,0.47c0.051,0.084,0.203,0.1,0.275,0.172c-0.116,0.008-0.132-0.039-0.235,0.006
		c-0.058,0.025-0.174,0.049-0.183,0.097c-0.009,0.045,0.084,0.149,0.082,0.214c-0.002,0.057-0.05,0.155-0.072,0.204
		c-0.045,0.103-0.092,0.356-0.209,0.387c-0.072,0.019-0.139-0.018-0.209,0c-0.09,0.024-0.117,0.024-0.214,0.031
		c-0.101,0.007-0.357,0.101-0.418,0.192c0.009-0.082,0.098-0.137,0.092-0.219c-0.003-0.043-0.082-0.131-0.112-0.178
		c-0.054-0.084-0.103-0.167-0.214-0.214c-0.098-0.041-0.152,0.022-0.235,0.01c-0.092-0.013-0.099-0.123-0.142-0.219
		c-0.047-0.104-0.05-0.606-0.22-0.545c-0.062,0.022-0.149,0.297-0.209,0.366c-0.065,0.076-0.129,0.158-0.198,0.222
		c-0.088,0.082-0.18,0.151-0.301,0.135C85.709,117.512,85.637,117.457,85.533,117.453"/>
	<path fill="#525FAA" stroke="#999999" stroke-width="0.25" stroke-linejoin="round" stroke-miterlimit="10" d="M87.867,112.418
		c0.001-0.094,0.111-0.185,0.132-0.274c0.026-0.104,0.014-0.183,0.041-0.275c0.05-0.169,0.065-0.317,0.072-0.489
		c0.002-0.07-0.062-0.273,0.01-0.326c0.104-0.076,0.094,0.082,0.142,0.102c0.019,0.008,0.069-0.047,0.103-0.041
		c0.055,0.01,0.057,0.059,0.102,0.082c0.062,0.034,0.143,0.045,0.209,0.071c0.151,0.062,0.241,0.165,0.402,0.184
		c0.069,0.009,0.13,0.027,0.214,0.011c0.099-0.021,0.113-0.068,0.183-0.117c0.152-0.106,0.281,0,0.429-0.036
		c0.073-0.019,0.133-0.093,0.213-0.081c0.087,0.011,0.122,0.068,0.215,0.04c0.021-0.007,0.068-0.05,0.093-0.062
		c0.033-0.017,0.073-0.015,0.11-0.031c0.086-0.034,0.104-0.105,0.179-0.142c0.115-0.056,0.102,0.024,0.193,0.046
		c0.039,0.01,0.068-0.005,0.104-0.005c-0.002,0,0.121-0.009,0.096,0c0.068-0.024,0.125-0.104,0.203-0.133
		c0.05-0.017,0.033,0.077,0.093,0.01c0.021-0.022,0.005-0.079,0.01-0.112c0.011-0.062,0.001-0.162,0.041-0.213
		c0.019-0.024,0.091-0.043,0.103-0.062c0.031-0.049,0.012-0.047,0.02-0.103c0.023-0.158-0.037-0.312,0.153-0.315
		c0.127-0.002,0.173,0.002,0.239,0.112c0.074,0.121,0.082,0.136,0.199,0.193c0.076,0.038,0.123,0.014,0.122,0.137
		c-0.001,0.06-0.056,0.117-0.051,0.199c0.005,0.111,0.019,0.084,0.112,0.144c0.082,0.054,0.127,0.089,0.039,0.153
		c-0.035,0.026-0.192,0.008-0.202,0.07c-0.013,0.081,0.128,0.096,0.112,0.194c-0.018,0.102-0.119,0.085-0.041,0.204
		c0.025,0.039,0.068,0.041,0.092,0.076c0.041,0.064,0.023,0.01,0.02,0.076c-0.008,0.15-0.107,0.288-0.127,0.428
		c-0.009,0.064,0.049,0.146,0.036,0.209c-0.004,0.018-0.062,0.057-0.072,0.082c-0.021,0.053-0.006,0.104,0.005,0.143
		c0.019,0.063,0.111,0.217,0.158,0.219c-0.009,0.051-0.216,0.137-0.275,0.194c-0.086,0.084-0.092,0.175-0.157,0.28
		c-0.101,0.164,0.032,0.418,0.097,0.596c-0.094-0.012-0.119,0.055-0.184-0.01c-0.045-0.047,0.021-0.103-0.021-0.163
		c-0.028-0.043-0.135-0.015-0.163-0.021c-0.076-0.019-0.092-0.08-0.152,0c-0.033,0.045-0.004,0.125-0.062,0.184
		c-0.032,0.031-0.122,0.011-0.153,0.051c-0.033,0.043,0.039,0.165,0.021,0.225c-0.009,0.03-0.11,0.174-0.132,0.193
		c-0.063,0.057-0.124,0.037-0.204,0.061c-0.08,0.024-0.117,0.072-0.194,0.103c-0.117,0.045-0.15-0.032-0.168,0.122
		c-0.009,0.083,0.043,0.134-0.035,0.203c-0.066,0.06-0.15,0.027-0.209,0.113c-0.061,0.088-0.041,0.215-0.086,0.305
		c-0.08,0.154-0.157,0.287-0.195,0.449c-0.03,0.131-0.152,0.27-0.214,0.402c-0.067,0.146-0.081,0.281-0.204,0.362
		c-0.063,0.042-0.002,0.043-0.076,0.051c-0.035,0.003-0.069-0.007-0.102-0.013c-0.123-0.02-0.173,0.003-0.281,0.074
		c-0.102,0.066-0.123,0.088-0.132,0.215c-0.008,0.115-0.025,0.248-0.163,0.289c-0.085,0.025-0.24-0.072-0.316-0.123
		c-0.099-0.065-0.095-0.106-0.112-0.223c-0.01-0.07-0.044-0.195-0.043-0.244c0-0.066,0.033-0.141,0.023-0.209
		c-0.016-0.103-0.088-0.104-0.123-0.194c-0.033-0.085-0.008-0.3,0.015-0.384c0.061-0.217,0.264-0.232,0.347-0.401
		c0.065-0.131,0.042-0.321,0.117-0.438c0.048-0.074,0.123-0.074,0.143-0.174c0.017-0.088-0.034-0.195-0.043-0.283
		c-0.023-0.209,0.097-0.332,0.237-0.471c0.091-0.09,0.325-0.211,0.336-0.357c0.006-0.084-0.051-0.146-0.122-0.08
		c-0.047-0.121-0.09-0.112-0.173-0.174c-0.08-0.06-0.085-0.146-0.154-0.203c-0.076-0.065-0.107-0.021-0.16-0.129
		c-0.028-0.055-0.046-0.194-0.104-0.147c-0.012-0.022,0.002-0.013,0-0.03c-0.043,0.014-0.068-0.003-0.072-0.051
		c-0.119,0.012,0.026-0.287-0.254-0.225c-0.06,0.014-0.054,0.006-0.102,0.035c-0.046,0.029-0.048,0.065-0.103,0.088
		c-0.091,0.035-0.175-0.053-0.244,0.02c-0.059-0.038-0.102-0.074-0.183-0.05C87.835,112.537,87.851,112.476,87.867,112.418"/>
	<path fill="#525FAA" stroke="#999999" stroke-width="0.25" stroke-linejoin="round" stroke-miterlimit="10" d="M104.308,110.981
		c-0.125,0.251-0.27,0.354-0.488,0.533c-0.304,0.247-0.607,0.495-0.91,0.743c-0.304,0.25-0.834,0.261-1.207,0.345
		c-0.771,0.174-1.543,0.349-2.314,0.522c-0.071,0.017-0.413,0.148-0.482,0.108c-0.035-0.021-0.07-0.204-0.07-0.244
		c0-0.237,0.296-0.253,0.274-0.51c-0.011-0.138-0.036-0.162,0.072-0.285c0.103-0.118,0.142-0.198,0.11-0.366
		c-0.014-0.087-0.045-0.166-0.102-0.205c-0.066-0.045-0.173,0-0.146-0.142c0.008-0.045,0.068-0.08,0.086-0.112
		c0.023-0.043,0.025-0.094,0.052-0.133c0.053-0.083,0.125-0.104,0.151-0.214c0.017-0.063,0.009-0.095,0.006-0.153
		c-0.002-0.041,0.005-0.138-0.016-0.174c-0.014-0.025-0.054-0.014-0.061-0.025c-0.057-0.082-0.055-0.158-0.092-0.26
		c-0.051-0.137-0.065-0.129-0.051-0.27c0.011-0.108-0.088-0.16-0.082-0.25c-0.133,0.023-0.039,0.111-0.065,0.193
		c-0.028,0.08-0.138,0.135-0.174,0.215c-0.067,0.144-0.077,0.356-0.312,0.254c-0.074-0.031-0.06-0.151-0.142-0.152
		c-0.08-0.002-0.09,0.145-0.128,0.199c-0.102,0.148-0.264,0.257-0.424,0.326c-0.09,0.039-0.184,0.082-0.26,0
		c-0.068-0.075-0.015-0.162-0.106-0.199c0.06-0.034,0.084-0.208,0.03-0.266c0,0-0.105-0.031-0.123-0.045
		c-0.029-0.024-0.049-0.062-0.09-0.086c-0.062-0.037-0.054,0.014-0.101-0.103c-0.091-0.222-0.135-0.479-0.2-0.711
		c-0.031-0.11-0.098-0.501-0.261-0.339c0.013,0.132-0.237,0.229-0.315,0.214c-0.153-0.033-0.274-0.167-0.395-0.279
		c-0.259-0.239-0.514-0.485-0.77-0.729c-0.045-0.041-0.127-0.092-0.121-0.144c0.004-0.026,0.064-0.081,0.093-0.075
		c0.034,0.006,0.056,0.082,0.081,0.102c0.037,0.029,0.083,0.027,0.121,0.066c0.117,0.107,0.173,0.371,0.32,0.401
		c0.025,0.006,0.219-0.037,0.252-0.065c0.023-0.021,0.02-0.088,0.062-0.123c0.034-0.029,0.089-0.039,0.132-0.051
		c-0.042-0.057-0.041-0.115,0.005-0.162c0.065-0.067,0.081,0.053,0.097-0.072c0.008-0.063-0.123-0.301,0.03-0.275
		c-0.032-0.07-0.01-0.066,0.031-0.091c0.058-0.036,0.093,0.012,0.122,0.01c0.162-0.013,0.068-0.052,0.115-0.169
		c0.048-0.119,0.5-0.093,0.426-0.209c0.085-0.046,0.07,0.03,0.132,0.041c0.026,0.005,0.052,0.02,0.062,0.021
		c-0.017-0.002,0.037-0.039,0.045-0.041c0.133-0.031,0.123-0.008,0.148-0.164c0.057,0.055,0.143-0.012,0.184-0.061
		c0.047-0.057,0.027-0.142,0.051-0.193c0.056-0.127,0.033-0.032,0.138-0.041c0.029-0.002,0.071-0.012,0.093-0.03
		c0.063-0.058,0.004-0.027,0.014-0.082c0.01-0.046-0.045-0.157,0.062-0.183c0.042-0.012,0.158,0.065,0.194,0.07
		c0.064,0.01,0.113-0.037,0.183-0.051c0.052-0.01,0.136,0.006,0.188-0.02c0.086-0.043,0.089-0.09,0.119-0.18
		c0.026-0.07,0.066-0.177,0.131-0.035c0.043-0.037,0.05-0.093,0.031-0.143c0.092,0.052,0.08-0.083,0.111-0.127
		c0.016-0.021,0.137-0.102,0.174-0.107c-0.023-0.039-0.064-0.061-0.113-0.063c0.033-0.14,0.149-0.114,0.209-0.214
		c0.016-0.025,0.023,0,0.035-0.035c0.002-0.012-0.037-0.057-0.039-0.072c-0.008-0.039-0.004-0.111-0.011-0.148
		c0.066,0.065,0.138-0.004,0.163-0.07c0.044,0.037,0.039,0.089,0.01,0.133c0.026-0.004,0.125,0.005,0.144-0.01
		c0.069-0.055,0-0.1,0.021-0.133c-0.005,0.008,0.129-0.084,0.111-0.082c0.053-0.008,0.088-0.01,0.082,0.072
		c0.109-0.057,0.225,0.01,0.295,0.061c0.014,0.008,0.029-0.001,0.053,0.02c0.01,0.01,0.043,0.066,0.049,0.082
		c0.026,0.066-0.008,0.083,0.058,0.145c0.126,0.121,0.187-0.004,0.271-0.072c0.082-0.07,0.18-0.113,0.295-0.123
		c-0.02-0.077,0.049-0.199,0.143-0.122c-0.004-0.013,0-0.03-0.01-0.051c0.091-0.024,0.142-0.14,0.121-0.224
		c0.063,0,0.033,0.01,0.041-0.043c0.024,0.01,0.027,0.008,0.052,0.021c-0.005-0.037,0.011-0.042-0.011-0.07
		c0.049-0.021,0.119-0.037,0.168-0.084c0.061-0.058,0.071-0.162,0.147-0.193c0.026,0.061,0.213-0.01,0.291,0
		c0.165,0.022,0.103,0.088,0.199,0.216c-0.177,0.028-0.247-0.001-0.224,0.198c0.006,0.058,0.017,0.115,0.02,0.179
		c0.002,0.042-0.01,0.092,0,0.132c0.009,0.04,0.057,0.085,0.061,0.123c0.012,0.111-0.067,0.113-0.104,0.188
		c-0.029,0.061-0.014,0.115-0.021,0.176c-0.017,0.131-0.07,0.268-0.14,0.369c-0.034,0.051-0.067,0.072-0.094,0.129
		c-0.022,0.045-0.025,0.091-0.054,0.138c-0.084,0.136-0.187,0.104-0.321,0.163c-0.077,0.031-0.138,0.134-0.171,0.206
		c-0.023,0.05-0.096,0.147-0.104,0.19c-0.016,0.086,0.034,0.193,0.107,0.25c0.11,0.086,0.118,0.072,0.147,0.219
		c0.023,0.117,0.059,0.183,0.158,0.261c0.119,0.092,0.383,0.28,0.359,0.448c-0.004,0.019-0.049,0.102-0.059,0.127
		c-0.029,0.066-0.045,0.06-0.041,0.133c0.004,0.054,0.045,0.091,0.051,0.138c0.004,0.038-0.031,0.093-0.021,0.132
		c0.024,0.086,0.034,0.037,0.093,0.077c0.014,0.011,0.049-0.026,0.061-0.021c0.02,0.009,0.001,0.068,0.011,0.072
		c0.108,0.037,0.147-0.021,0.192,0.096c0.008,0.017,0.023,0.127,0.021,0.138c-0.004,0.019,0.009,0.036,0,0.062
		c-0.002,0.006-0.069-0.01-0.071,0.004c-0.002,0.072,0.061,0.045,0.082,0.093c0.014,0.03-0.019,0.091,0,0.132
		c0.055,0.118,0.192,0.068,0.26,0.077c0.063,0.007,0.223,0.075,0.261,0.144c0.026,0.049,0.032,0.084,0,0.131
		c0.034,0.008,0.098,0.035,0.132,0.031c0.055-0.007,0.041-0.041,0.082-0.051c0.029-0.007,0.085,0.016,0.122,0.01
		c0.063-0.008,0.013-0.092,0.106-0.035c0.043,0.025-0.002,0.08,0.051,0.114c0.037,0.024,0.084,0.001,0.123,0.011
		c0.066,0.014,0.188,0.014,0.25,0.053c0.041-0.232,0.109-0.037,0.138,0.066c0.046,0.178,0.114,0.188,0.271,0.178
		c0.148-0.008,0.226,0.052,0.285,0.174c0.012,0.027-0.014,0.052,0,0.082c0.008,0.019,0.064,0.017,0.078,0.046
		c0.023,0.05,0.016,0.11,0.043,0.157C104.046,111.065,104.148,110.973,104.308,110.981"/>
	<path fill="#525FAA" stroke="#999999" stroke-width="0.25" stroke-linejoin="round" stroke-miterlimit="10" d="M105.266,110.299
		c-0.06,0.086-0.185,0.086-0.265,0.143c-0.096,0.066-0.148,0.152-0.207,0.25c-0.063,0.105-0.086,0.184-0.195,0.249
		c-0.027,0.017-0.117,0.069-0.148,0.071c-0.023,0-0.047-0.07-0.072-0.071c-0.012,0-0.028,0.026-0.034,0.024
		c-0.002,0-0.068,0.017-0.065,0.017c-0.111,0.019-0.186,0.043-0.271-0.021c-0.098-0.072-0.084-0.17-0.127-0.266
		c-0.002-0.005-0.059-0.014-0.064-0.025c-0.01-0.023,0.014-0.045,0.004-0.065c-0.029-0.056-0.025-0.079-0.076-0.122
		c-0.099-0.082-0.166-0.047-0.276-0.051c-0.136-0.008-0.179-0.088-0.214-0.219c-0.03-0.113-0.092-0.24-0.127-0.037
		c-0.059-0.037-0.18-0.041-0.245-0.056c-0.038-0.009-0.085,0.017-0.122-0.006c-0.061-0.035-0.014-0.091-0.057-0.117
		c-0.088-0.052-0.045,0.023-0.102,0.031c-0.033,0.004-0.095-0.013-0.123-0.005c-0.045,0.01-0.023,0.049-0.081,0.056
		c-0.03,0.003-0.104-0.028-0.137-0.036c0.067-0.095-0.036-0.193-0.128-0.233c-0.016-0.007-0.127-0.04-0.133-0.041
		c-0.026-0.003-0.09,0.026-0.127,0.02c-0.153-0.026-0.097-0.146-0.133-0.229c-0.021-0.048-0.084-0.021-0.082-0.093
		c0.002-0.013,0.065,0.002,0.066-0.004c0.005-0.019,0.001-0.045,0.005-0.062c0.021-0.085-0.03-0.196-0.086-0.222
		c-0.021-0.01-0.106-0.006-0.127-0.012c-0.01-0.004,0.009-0.061-0.006-0.068c-0.015-0.006-0.054,0.025-0.065,0.017
		c-0.057-0.039-0.068,0.006-0.093-0.077c-0.012-0.039,0.026-0.096,0.021-0.137c-0.017-0.135-0.073-0.131-0.01-0.271
		c0.047-0.104,0.084-0.15,0.021-0.248c-0.05-0.078-0.134-0.189-0.199-0.246c-0.08-0.067-0.181-0.102-0.239-0.203
		c-0.048-0.084-0.012-0.19-0.059-0.271c-0.059-0.1-0.167-0.081-0.217-0.198c-0.047-0.108,0.031-0.207,0.084-0.324
		c0.08-0.176,0.154-0.17,0.304-0.217c0.178-0.054,0.179-0.16,0.242-0.289c0.05-0.104,0.134-0.17,0.175-0.28
		c0.048-0.124,0.023-0.277,0.08-0.394c0.035-0.074,0.115-0.078,0.104-0.188c-0.002-0.037-0.052-0.074-0.061-0.113
		c-0.01-0.043,0.002-0.097,0-0.142c-0.004-0.095-0.068-0.285,0-0.347c0.041-0.037,0.148-0.022,0.204-0.031
		c-0.06-0.078-0.042-0.184-0.134-0.215c-0.057-0.018-0.187,0.012-0.243,0.012c-0.165,0-0.056,0.016-0.103-0.112
		c-0.033-0.091-0.123-0.098-0.166-0.181c-0.035-0.071,0-0.135-0.008-0.207c-0.02-0.209-0.266-0.361-0.264-0.58
		c0.001-0.176,0.208-0.189,0.29-0.307c0.167-0.235-0.161-0.213-0.224-0.336c-0.068-0.133,0.129-0.246,0.238-0.215
		c0.04,0.012,0.084,0.092,0.118,0.092c0.082,0,0.085-0.121,0.035-0.184c-0.108-0.132-0.316,0.005-0.377-0.193
		c-0.019-0.061-0.046-0.179-0.052-0.244c-0.004-0.058,0.039-0.1,0.037-0.164c-0.002-0.071-0.061-0.112-0.072-0.178
		c-0.025-0.141,0.13-0.139,0.117-0.26c-0.013-0.117-0.183-0.092-0.213-0.174c-0.039-0.096,0.104-0.178,0.096-0.285
		c-0.008-0.102-0.092-0.14-0.148-0.197c-0.22-0.229,0.075-0.256,0.041-0.476c-0.013-0.088-0.105-0.147-0.102-0.244
		c0.006-0.149,0.076-0.103,0.162-0.122c0.31-0.068-0.047-0.234-0.07-0.367c-0.031-0.172,0.219-0.264,0.372-0.193
		c0.062,0.027,0.024,0.019,0.067,0.082c0.01,0.018,0.064,0.078,0.061,0.101c-0.014,0.067-0.061,0.04-0.092,0.072
		c-0.01,0.01-0.051-0.011-0.062,0c-0.03,0.032,0.019,0.045,0.011,0.071c-0.045,0.129,0.018,0.102,0.07,0.193
		c0.021,0.037-0.003,0.086,0.031,0.122c0.023,0.025,0.09,0.015,0.122,0.031c0.049,0.024,0.022,0.044,0.071,0.062
		c0.027,0.008,0.084,0.004,0.123,0.01c0.114,0.019,0.153,0.024,0.213,0.111c0.056,0.081,0.035,0.155,0.127,0.225
		c0.082,0.061,0.146,0.021,0.229,0.062c0.052,0.024,0.06,0.077,0.093,0.107c0.039,0.034,0.071,0.045,0.111,0.075
		c0.03,0.023-0.02,0.058,0.061,0.072c0.06,0.01,0.08-0.037,0.123-0.041c0.047-0.004,0.211-0.002,0.246,0.016
		c0.123,0.063,0.006,0.137,0.086,0.214c0.045,0.044,0.197-0.005,0.239-0.036c0.119-0.092,0.04-0.125,0.203-0.045
		c0.104,0.05,0.104,0.061,0.174,0.152c0.013,0.018,0.089,0.1,0.103,0.106c0.008,0.005,0.008,0.048,0.02,0.052
		c0.038,0.008,0.042-0.051,0.051-0.052c0.077-0.004,0.118-0.055,0.103,0.103c0.13-0.082,0.118,0.08,0.204,0.082
		c0.099,0.002,0.098-0.146,0.142-0.199c0.095-0.112,0.36-0.111,0.296-0.342c0.094,0.039,0.125-0.054,0.225,0
		c-0.047-0.092,0.002-0.152,0.072-0.203c0.061-0.045,0.116-0.028,0.188-0.062c0.025-0.012,0.049-0.071,0.076-0.087
		c0.037-0.023,0.078-0.004,0.117-0.023c0.099-0.047,0.098-0.086,0.098-0.186c0-0.091-0.049-0.215,0.102-0.152
		c0.113,0.047,0.055,0.154,0.127,0.227c0.039,0.039,0.076,0.003,0.117,0.038c0.055,0.046,0.038,0.091,0.102,0.133
		c0.106,0.069,0.102,0.013,0.127,0.158c0.022,0.116,0.004,0.22,0.017,0.336c0.005,0.053-0.003,0.075,0.024,0.116
		c0.039,0.057,0.039,0.021,0.088,0.052c0.074,0.049,0.15,0.071,0.173,0.173c0.019,0.079-0.03,0.191-0.03,0.275
		c-0.001,0.18,0.021,0.313-0.016,0.47c-0.02,0.082-0.057,0.144-0.066,0.239c-0.01,0.103,0.029,0.257,0.072,0.351
		c0.07,0.159,0.156,0.308,0.111,0.497c-0.02,0.081-0.248,0.25-0.133,0.344c0.057,0.047,0.127-0.039,0.153-0.025
		c0.067,0.035,0.024,0.175,0.041,0.244c0.06,0.272,0.288,0.365,0.517,0.461c0.213,0.088,0.522,0.217,0.332,0.455
		c-0.062,0.078-0.147,0.14-0.187,0.227c-0.022,0.054-0.037,0.165-0.052,0.224c-0.03,0.14-0.022,0.281-0.102,0.419
		c-0.15,0.262-0.326,0.15-0.578,0.133c-0.103-0.008-0.227-0.023-0.328-0.011c-0.15,0.019-0.08,0.041-0.153,0.117
		c-0.032,0.033-0.072,0.091-0.122,0.117c-0.051,0.026-0.124,0.026-0.174,0.067c-0.106,0.084-0.096,0.271-0.102,0.392
		c-0.005,0.12,0.041,0.17,0.051,0.28c0.008,0.082-0.039,0.141-0.062,0.219c-0.019,0.068,0.009,0.13,0,0.184
		c-0.009,0.061-0.048,0.073-0.065,0.133c-0.028,0.097-0.004,0.263,0,0.356c0.004,0.104,0.067,0.233,0.057,0.341
		c-0.008,0.057-0.043,0.082-0.053,0.128c-0.013,0.073,0.019,0.156,0.012,0.224c-0.016,0.162-0.076,0.098-0.252,0.134
		c-0.133,0.026-0.146,0.12-0.166,0.254c-0.012,0.069-0.018,0.137,0.005,0.204c0.017,0.048,0.065,0.031,0.065,0.092
		c0,0.087-0.133,0.143-0.166,0.219c-0.033,0.086-0.006,0.225,0.035,0.29c0.01,0.017,0.076,0.076,0.09,0.087
		c0.008,0.006,0.105,0.061,0.104,0.057c0.063,0.08-0.048,0.096,0.009,0.188c0.054,0.087,0.183,0.075,0.255,0.076
		C105.204,110.198,105.28,110.184,105.266,110.299"/>
</g>
</svg>
