<?xml version="1.0" encoding="utf-8"?>
<!-- Generator: Adobe Illustrator 16.0.0, SVG Export Plug-In . SVG Version: 6.00 Build 0)  -->
<!DOCTYPE svg PUBLIC "-//W3C//DTD SVG 1.1//EN" "http://www.w3.org/Graphics/SVG/1.1/DTD/svg11.dtd">
<svg version="1.1" id="Layer_1" xmlns="http://www.w3.org/2000/svg" xmlns:xlink="http://www.w3.org/1999/xlink" x="0px" y="0px"
	 width="265px" height="338px" viewBox="0 0 265 338" enable-background="new 0 0 265 338" xml:space="preserve">
<g id="Layer_6">
	<path fill="none" stroke="#FFFFFF" stroke-width="0.1" stroke-miterlimit="10" d="M72.915,184.938
		c0.029-0.073-0.069-0.078-0.067-0.146c0.001-0.059,0.096-0.118,0.115-0.176c0.03-0.09-0.039-0.219,0.054-0.237
		c0.025,0.043,0.248,0.216,0.285,0.214c0.094-0.003,0.067-0.174,0.082-0.254c0.028-0.156,0.119-0.289,0.132-0.428
		c0.008-0.085,0.003-0.421,0.122-0.489c0.057-0.03,0.108,0.054,0.161,0.097c0.178,0.146,0.229,0.156,0.451,0.17
		c0.269,0.014,0.469-0.395,0.713-0.349c0.279,0.054,0.366,0.353,0.714,0.302c0.096-0.015,0.156-0.051,0.224-0.093
		c0.04-0.022,0.094-0.065,0.142-0.103c0.027-0.021,0.034-0.049,0.067-0.066c0.037-0.02,0.084-0.009,0.107-0.021
		c0.05-0.021,0.123-0.062,0.153-0.098c0.017-0.019,0.005-0.06,0.025-0.084c0.03-0.035,0.067-0.041,0.087-0.084
		c0.07,0.055,0.172,0.014,0.255,0.021c0.078,0.007,0.136,0.039,0.209,0.039c0.147,0.002,0.261-0.113,0.418-0.106
		c0.17,0.009,0.237,0.037,0.244,0.22c0.002,0.041-0.033,0.161-0.025,0.174c0.051,0.07,0.16,0.004,0.214,0.029
		c0.086,0.045,0.047,0.137,0.117,0.174c0.096,0.053,0.188-0.043,0.26-0.08c-0.155,0.088-0.054,0.17-0.012,0.276
		c0.032,0.083,0,0.157,0.012,0.242c0.017,0.121,0.083,0.114,0.148,0.198c0.052,0.066,0.066,0.168,0.087,0.25
		c0.029,0.119,0.026,0.1-0.041,0.215c-0.039,0.066-0.121,0.188-0.122,0.27c-0.001,0.055,0.026,0.143,0.04,0.193
		c0.026,0.1,0.197,0.238,0.146,0.344c-0.02,0.041-0.136,0.081-0.176,0.12c-0.038,0.036-0.112,0.121-0.133,0.168
		c-0.06,0.134,0.025,0.392-0.219,0.397c-0.092,0.002-0.224-0.079-0.311-0.116c-0.095-0.042-0.217-0.063-0.316-0.099
		c-0.122-0.041-0.26-0.006-0.405-0.008c-0.106,0-0.238,0.031-0.359,0c-0.119-0.031-0.062-0.125-0.133-0.182
		c-0.045-0.035-0.174-0.014-0.224,0c-0.052,0.016-0.066,0.044-0.12,0.051c-0.039,0.006-0.077-0.017-0.114-0.013
		c-0.074,0.008-0.119,0.063-0.184,0.063c-0.247,0.008-0.237-0.406-0.336-0.541c-0.117-0.158-0.325-0.326-0.535-0.334
		c-0.11-0.004-0.204-0.011-0.311-0.021c-0.118-0.016-0.218,0.017-0.335-0.005c-0.161-0.03-0.294-0.146-0.46-0.148
		c-0.173-0.003-0.331,0.091-0.52,0.082C73.156,184.965,72.993,184.993,72.915,184.938z"/>
</g>
<path display="none" fill="#E2B73B" stroke="#999999" stroke-width="0.25" stroke-linejoin="round" stroke-miterlimit="10" d="
	M41.175,196.385c-0.032,0.17,0.094,0.313,0.143,0.453c0.065,0.189-0.043,0.438,0.071,0.616c0.041,0.063,0.128,0.094,0.143,0.174
	c0.017,0.091-0.068,0.19-0.112,0.254c-0.114,0.169-0.163,0.31-0.112,0.521c0.035,0.148,0.268,0.277,0.081,0.414
	c-0.095,0.068-0.13-0.012-0.163,0.127c-0.007,0.026,0.019,0.06,0.011,0.093c-0.012,0.043-0.062,0.063-0.072,0.104
	c-0.021,0.07-0.008,0.139,0.076,0.188c0.111,0.066,0.079-0.014,0.179-0.045c0.096-0.032,0.21,0.031,0.275,0.091
	c0.035,0.032,0.062,0.03,0.082,0.077c0.027,0.064-0.04,0.119,0.015,0.188c0.082,0.104,0.17,0.075,0.173,0.234
	c0.002,0.089-0.062,0.164-0.066,0.244c-0.009,0.166,0.098,0.138,0.206,0.191c0.141,0.067,0.072,0.108,0.105,0.217
	c0.026,0.086,0.118,0.134,0.168,0.203c0.033,0.047,0.044,0.106,0.112,0.151c0.004,0.003,0.071-0.004,0.102,0.021
	c0.045,0.035,0.04,0.063,0.061,0.111c0.031,0.069,0.066,0.123,0.092,0.193c0.029,0.082,0.031,0.23,0.092,0.301
	c0.051,0.061,0.087,0.014,0.122,0.098c0.016,0.039-0.033,0.047-0.02,0.082c0.025,0.068,0.073,0.137,0.101,0.203
	c0.038,0.086,0.021,0.103,0.113,0.157c0.087,0.056,0.147,0.067,0.216,0.153c0.109,0.135,0.199,0.259,0.315,0.387
	c0.118,0.128,0.012,0.305,0.087,0.484c0.066,0.16,0.205,0.281,0.319,0.408c0.056,0.062,0.105,0.127,0.138,0.203
	c0.015,0.034,0.021,0.075,0.035,0.11c0.021,0.051,0.076,0.103,0.092,0.146c0.09,0.229-0.148,0.237-0.234,0.387
	c-0.036,0.061-0.014,0.177-0.031,0.244c-0.023,0.095-0.071,0.174-0.107,0.266c-0.079,0.199-0.109,0.311,0.025,0.488
	c0.068,0.09,0.105,0.119,0.147,0.218c0.043,0.103,0.058,0.209,0.146,0.282c0.126,0.104,0.371,0.104,0.523,0.162
	c0.158,0.063,0.319,0.139,0.449,0.246c0.168,0.139,0.388,0.33,0.468,0.539c0.024,0.063,0.011,0.147,0.041,0.184
	c-0.042,0.145,0.15,0.365,0.275,0.244c0.015,0.039,0.172,0.099,0.22,0.106c0.056,0.013,0.08-0.024,0.145,0
	c0.061,0.024,0.091,0.093,0.145,0.128c0.208,0.139,0.413,0.213,0.607,0.375c0.149,0.127,0.304,0.241,0.509,0.317
	c0.221,0.082,0.457,0.022,0.668,0.081c0.148,0.041,0.227,0.126,0.389,0.014c0.163-0.111,0.101-0.253,0.171-0.391
	c0.02-0.039,0.096-0.092,0.128-0.135c0.036-0.049,0.024-0.092,0.092-0.109c0.1-0.029,0.238,0.087,0.346,0.014
	c0.066-0.047,0.032-0.109,0.122-0.15c0.072-0.031,0.07-0.012,0.138,0.006c0.051,0.013,0.089,0.033,0.158,0.041
	c0.044,0.004,0.104,0.012,0.142,0.021c0.095,0.019,0.174,0.067,0.281,0.07c0.043,0.001,0.178-0.002,0.183-0.063
	c0.001-0.004-0.113-0.113-0.125-0.138c-0.05-0.104-0.067-0.262-0.071-0.375c-0.001-0.024-0.029-0.045-0.028-0.067
	c0.002-0.03,0.056-0.055,0.051-0.071c-0.01-0.039-0.07-0.048-0.082-0.093c-0.037-0.151,0.057-0.303-0.035-0.471
	c-0.038-0.068-0.089-0.115-0.084-0.195c0.003-0.061,0.062-0.051,0.048-0.158c-0.006-0.047-0.008-0.08-0.041-0.112
	c0.044-0.089,0.127-0.084,0.143-0.174c0.02-0.108-0.076-0.09-0.107-0.157c-0.02-0.044,0.019-0.063,0.01-0.104
	c-0.008-0.036-0.039-0.084-0.046-0.129c-0.006-0.041,0.026-0.065,0.02-0.109c-0.003-0.033-0.048-0.068-0.05-0.105
	c-0.009-0.168,0.242-0.205,0.367-0.271c0.153-0.081,0.215-0.233,0.356-0.337c0.038-0.025-0.002-0.063,0.061-0.07
	c0.045-0.008,0.07,0.041,0.102,0.057c0.103,0.049,0.127,0.027,0.225,0.037c0.109,0.008,0.131,0.006,0.234-0.021
	c0.085-0.021,0.122-0.018,0.214,0.006c0.145,0.035,0.391,0.166,0.5-0.006c0.031-0.049,0.024-0.143,0.011-0.195
	c-0.009-0.039-0.057-0.072-0.052-0.109c0.01-0.068,0.106-0.151,0.133-0.213c0.017-0.043,0.011-0.107,0.03-0.145
	c0.018-0.033,0.087-0.063,0.102-0.092c0.026-0.053,0.032-0.206,0.031-0.271c-0.001-0.021-0.014-0.09-0.026-0.105
	c-0.027-0.04-0.103-0.037-0.117-0.063c-0.04-0.07,0.009-0.168,0.071-0.193c0.1-0.039,0.116,0.035,0.209-0.082
	c0.082-0.104,0.074-0.117,0.24-0.11c0.145,0.005,0.325,0.065,0.443,0.134c0.069,0.037,0.135,0.082,0.214,0.11
	c0.111,0.041,0.122,0.071,0.214,0.144c0.062,0.049,0.153,0.076,0.229,0.111c0.112,0.053,0.104,0.063,0.194-0.01
	c0.093-0.073,0.076-0.088,0.214-0.071c0.105,0.013,0.179,0.002,0.255,0.081c0.07,0.072,0.061,0.148,0.107,0.225
	c0.038,0.063,0.116,0.144,0.168,0.193c0.052,0.055,0.121,0.111,0.178,0.168c0.018,0.02,0.081,0.057,0.087,0.066
	c0.019,0.035-0.002,0.063,0.015,0.102c0.03,0.066,0.056,0.152,0.087,0.215c0.052,0.103,0.076,0.039,0.142,0.092
	c0.092,0.073-0.117,0.25-0.132,0.347c-0.02,0.134,0.094,0.296,0.153,0.43c0.03,0.068,0.03,0.154,0.071,0.204
	c-0.054,0.004-0.082,0.032-0.112,0.07c0.058,0.046,0.026,0.089,0.02,0.152c-0.001,0.017-0.031,0.033-0.03,0.065
	s0.041,0.048,0.041,0.062c0,0.086-0.113,0.256-0.183,0.301c-0.033,0.021-0.075-0.014-0.108,0.017
	c-0.047,0.042-0.019,0.063-0.035,0.117c-0.006,0.021-0.019,0.089-0.026,0.103c-0.011,0.021-0.059,0.014-0.071,0.039
	c-0.044,0.096-0.037,0.217-0.082,0.317c-0.062,0.143-0.198,0.215-0.249,0.347c-0.07,0.184,0.099,0.296,0.234,0.396
	c0.212,0.16,0.619,0.24,0.507,0.589c-0.054,0.168-0.057,0.282-0.038,0.462c0.018,0.168,0.019,0.221-0.148,0.245
	c-0.14,0.019-0.206-0.062-0.331-0.063c-0.111-0.001-0.193,0.146-0.306,0.123c-0.279-0.056-0.155-0.697-0.469-0.592
	c-0.153,0.052-0.217,0.18-0.382,0.193c-0.166,0.015-0.277-0.119-0.433-0.107c-0.288,0.021-0.442,0.371-0.744,0.413
	c-0.135,0.019-0.277,0.002-0.397,0.071c-0.114,0.064-0.064,0.088-0.098,0.172c-0.024,0.063-0.076,0.097-0.111,0.164
	c-0.077,0.146,0.004,0.313-0.057,0.47c-0.082,0.21-0.208,0.188-0.382,0.124c-0.302-0.109-0.48-0.434-0.795-0.49
	c-0.153-0.027-0.375-0.064-0.535-0.063c-0.147,0.002-0.251,0.117-0.387,0.133c-0.047,0.005-0.134-0.014-0.174,0.031
	c-0.049,0.055,0,0.119-0.03,0.178c-0.001,0.001-0.113,0.1-0.128,0.111c-0.06,0.053-0.073,0.069-0.147,0.065
	c-0.128-0.007-0.184-0.044-0.322,0.021c-0.046,0.023-0.117,0.063-0.157,0.089c-0.097,0.069-0.115,0.173-0.215,0.146
	c-0.254-0.068-0.23-0.412-0.499-0.447c-0.109-0.016-0.066,0.037-0.153,0.057c-0.047,0.01-0.102-0.033-0.138-0.077
	c-0.07-0.087-0.128-0.199-0.28-0.142c-0.055,0.021-0.089,0.115-0.158,0.109c-0.074-0.005-0.055-0.095-0.127-0.092
	c-0.045,0.003-0.055,0.063-0.087,0.071c-0.032,0.008-0.063-0.013-0.086-0.011c-0.055,0.004-0.111,0.018-0.158,0.021
	c-0.116,0.016-0.241-0.021-0.337,0.008c-0.122,0.04-0.166,0.137-0.306,0.153c-0.303,0.036-0.483-0.291-0.703-0.468
	c-0.113-0.09-0.206-0.157-0.127-0.309c-0.028,0.008-0.047,0.002-0.072,0.012c-0.007-0.055-0.073-0.08-0.106-0.145
	c-0.017-0.029-0.084-0.146-0.087-0.158c-0.014-0.072,0.095-0.342,0.193-0.341c-0.047-0.032-0.081,0-0.127-0.017
	c-0.062-0.021-0.056-0.047-0.094-0.07c-0.158-0.107-0.08-0.1-0.084-0.255c-0.004-0.124-0.113-0.208-0.169-0.312
	c-0.024-0.045-0.021-0.11-0.045-0.154c-0.033-0.055-0.097-0.07-0.133-0.115c-0.061-0.076-0.052-0.041,0-0.139
	c0.028-0.053,0.042-0.056,0.061-0.111c0.012-0.035,0.03-0.098,0.036-0.128c0.007-0.036,0.058-0.036,0.031-0.093
	c-0.026-0.051-0.067,0.013-0.097-0.016c-0.101-0.087-0.069-0.193-0.199-0.244c-0.112-0.043-0.258-0.023-0.372,0
	c-0.137,0.029-0.278,0.063-0.405,0.03c-0.112-0.028-0.108-0.101-0.135-0.198c-0.021-0.076,0.004-0.273-0.046-0.328
	c-0.079-0.086-0.104,0.057-0.156,0.116c-0.058,0.069-0.144,0.132-0.197,0.212c-0.08,0.118-0.087,0.329-0.256,0.387
	c-0.033,0.014-0.045,0.011-0.097-0.004c-0.071-0.02-0.026,0.002-0.054-0.021c-0.009-0.009,0.004-0.047-0.009-0.063
	c-0.032-0.03-0.077-0.015-0.082-0.02c-0.084-0.076-0.138-0.152-0.25-0.204c-0.09-0.042-0.082-0.051-0.168,0.031
	c-0.096,0.09-0.083,0.063-0.188,0.08c-0.04,0.007-0.093,0.048-0.133,0.041c-0.113-0.017-0.042-0.063-0.076-0.111
	c-0.084-0.118-0.32-0.047-0.424,0.021c-0.116,0.076-0.028,0.043-0.051,0.152c-0.032,0.159-0.089,0.104-0.16,0.038
	c-0.139-0.124-0.215-0.229-0.415-0.159c-0.029,0.008-0.044,0.045-0.077,0.051c-0.052,0.007-0.019-0.032-0.056-0.041
	c-0.031-0.008-0.101-0.022-0.122-0.035c-0.013-0.008-0.133-0.092-0.138-0.098c-0.046-0.06-0.033-0.115-0.005-0.184
	c-0.098-0.014-0.11-0.037-0.204-0.041c-0.105-0.004-0.114-0.031-0.219-0.074c-0.111-0.045-0.123,0.01-0.219,0.014
	c-0.1,0.002-0.185-0.078-0.296-0.062c0.051-0.856,0.059-1.717,0.216-2.562c0.075-0.404,0.168-0.799,0.18-1.211
	c0.015-0.479,0.032-0.955,0.043-1.433c0.008-0.339,0.01-0.756-0.051-1.05c-0.02-0.098-0.068-0.18-0.082-0.28
	c-0.014-0.108,0.005-0.221,0.021-0.315c0.024-0.15-0.01-0.139-0.041-0.274c-0.012-0.051,0.028-0.11,0.01-0.16
	c-0.018-0.048-0.056-0.053-0.082-0.084c-0.077-0.098-0.033-0.054-0.04-0.163c-0.008-0.115-0.029-0.108-0.123-0.152
	c-0.259-0.117-0.126-0.231-0.066-0.465c0.052-0.197,0.057-0.515-0.076-0.678c0.191-0.121,0.047-0.201-0.036-0.352
	c-0.072-0.133-0.028-0.29-0.079-0.434c-0.047-0.133-0.139-0.217-0.204-0.334c-0.108-0.199,0.034-0.143,0.184-0.158
	c0.158-0.017,0.324-0.076,0.472-0.127c0.123-0.041,0.281-0.174,0.412-0.142c0.094,0.022,0.1,0.075,0.127,0.149
	c0.013,0.031,0.002,0.068,0.016,0.104c0.012,0.032,0.064,0.072,0.071,0.102c0.035,0.146-0.274,0.234-0.036,0.361
	c0.077,0.043,0.18,0.021,0.262,0.041c0.064,0.016,0.203,0.125,0.276,0.09c0.07-0.035,0.026-0.129,0.079-0.17
	C41.014,196.268,41.126,196.332,41.175,196.385z"/>
<path fill="#B12731" stroke="#999999" stroke-width="0.25" stroke-linejoin="round" stroke-miterlimit="10" d="M78.612,191.125
	c-0.183-0.006-0.035-0.617,0.008-0.725c0.053-0.131,0.219-0.246,0.125-0.394c-0.049-0.073-0.131-0.071-0.199-0.122
	c-0.027-0.021-0.02-0.055-0.046-0.076c-0.025-0.021-0.092-0.017-0.107-0.045c-0.024-0.052,0.049-0.092,0.046-0.147
	c-0.003-0.064-0.054-0.08-0.077-0.127c-0.021-0.044-0.011-0.151-0.038-0.185c-0.037-0.047-0.104-0.023-0.166-0.035
	c-0.09-0.018-0.343-0.058-0.361-0.152c-0.009-0.045,0.049-0.106,0.061-0.153c0.022-0.09-0.005-0.168-0.041-0.247
	c-0.061-0.135-0.137-0.301-0.275-0.375c-0.054-0.027-0.076-0.049-0.143-0.05c-0.041-0.002-0.085,0.044-0.127,0.03
	c-0.116-0.04-0.101-0.176-0.026-0.235c0.092-0.069,0.297-0.095,0.401-0.127c0.194-0.06,0.142-0.194,0.15-0.341
	c0.005-0.107,0.038-0.09-0.039-0.197c-0.026-0.037-0.023-0.059-0.053-0.089c-0.017-0.017-0.057-0.002-0.072-0.024
	c-0.07-0.113,0.129-0.179,0.039-0.314c-0.079-0.122-0.203-0.075-0.191-0.25c0.005-0.071-0.008-0.387,0.122-0.367
	c0.108,0.016,0.002,0.191,0.015,0.24c0.004,0.012,0.063,0.056,0.077,0.074c0.019,0.027,0.026,0.076,0.046,0.104
	c0.124,0.163,0.376,0.195,0.571,0.145c0.092-0.024,0.191-0.037,0.27-0.012c0.029,0.012,0.088,0.068,0.122,0.071
	c0.092,0.009,0.194-0.067,0.265-0.103c0.189-0.088,0.367-0.193,0.588-0.172c0.124,0.014,0.245,0.03,0.37,0.039
	c0.242,0.016,0.388-0.113,0.612-0.175c0.143-0.038,0.146-0.05,0.234-0.151c0.059-0.067,0.152-0.097,0.224-0.164
	c0.069-0.063,0.101-0.133,0.191-0.184c0.097-0.053,0.153-0.15,0.247-0.203c0.073-0.041,0.137-0.027,0.204-0.082
	c0.056-0.045,0.124-0.123,0.194-0.184c0.071-0.063,0.179-0.119,0.245-0.188c0.052-0.059,0.132-0.16,0.193-0.209
	c0.041-0.033,0.117-0.052,0.148-0.094c0.025-0.033,0.005-0.063,0.026-0.109c0.081-0.195,0.309-0.095,0.448-0.275
	c0.053-0.071,0.085-0.197,0.143-0.245c0.088-0.073,0.17-0.033,0.27-0.03c0.142,0.002,0.124-0.091,0.209-0.123
	c0.094-0.035,0.166,0.03,0.265-0.02c0.069-0.036,0.15-0.116,0.224-0.145c0.027,0.098,0.159,0.152,0.242,0.168
	c0.059,0.012,0.251-0.037,0.298,0.024c0.019,0.024,0.018,0.206,0.028,0.26c0.017,0.089,0.018,0.24,0.095,0.271
	c0.047,0.019,0.26-0.059,0.295-0.081c0.194,0.045,0.291,0.231,0.489,0.081c0.088-0.066,0.179-0.121,0.296-0.081
	c0.029-0.026,0.172-0.087,0.209-0.104c0.073-0.031,0.179-0.012,0.26-0.029c0,0.058,0.013,0.127,0.007,0.18
	c-0.006,0.056-0.035,0.086-0.038,0.145c-0.002,0.043,0.015,0.125,0.021,0.168c0.002,0.021-0.019,0.047-0.011,0.069
	c0.019,0.051,0.069,0.026,0.102,0.081c0.05,0.085,0.045,0.249,0.041,0.342c-0.003,0.068-0.001,0.158-0.01,0.235
	c-0.007,0.055-0.046,0.1-0.041,0.155c0.007,0.082,0.148,0.193,0.204,0.256c0.064,0.07,0.13,0.072,0.229,0.011
	c0.021-0.015,0.068-0.076,0.087-0.081c0.102-0.025,0.036,0.011,0.051,0.063c0.001,0.002-0.018,0.059-0.02,0.069
	c-0.005,0.033,0.067,0.03,0.061,0.063c-0.007,0.031-0.091,0.08-0.105,0.137c-0.016,0.063,0.007,0.095-0.038,0.173
	c-0.042,0.073-0.054,0.108-0.064,0.187c-0.004,0.031,0.024,0.051,0.018,0.086c-0.007,0.037-0.049,0.063-0.061,0.098
	c-0.027,0.07-0.054,0.191,0.046,0.208c-0.02,0.015-0.032,0.046-0.051,0.063c0.232,0.004,0.093,0.258,0.056,0.396
	c-0.02,0.071-0.047,0.142-0.122,0.177c-0.055,0.024-0.151-0.017-0.199,0.027c-0.043,0.038-0.039,0.136-0.061,0.193
	c-0.023,0.06-0.069,0.129-0.107,0.184c-0.068,0.096-0.203,0.232-0.214,0.348c-0.016,0.155,0.106,0.235,0.219,0.284
	c0.043,0.019,0.147,0.072,0.166,0.117c0.013,0.032-0.004,0.201-0.023,0.233c-0.021,0.037-0.084,0.041-0.107,0.067
	c-0.022,0.027-0.02,0.058-0.036,0.079c-0.035,0.052-0.065,0.104-0.102,0.163c-0.048,0.077-0.087,0.147-0.153,0.221
	c-0.033,0.033-0.047,0.017-0.077,0.056c-0.028,0.039-0.02,0.086-0.043,0.125c-0.067,0.117-0.101,0.08-0.211,0.08
	c-0.134,0-0.163,0.076-0.291,0.121c-0.196,0.067-0.469-0.014-0.642-0.093c0.03,0.074-0.077,0.317-0.132,0.39
	c-0.105,0.135-0.235,0.108-0.357,0.188c-0.062,0.04-0.083,0.125-0.163,0.148c-0.079,0.021-0.131-0.012-0.209,0.007
	c-0.103,0.021-0.092,0.044-0.163,0.104c-0.068,0.06-0.132,0.054-0.196,0.106c-0.111,0.091-0.069,0.269-0.059,0.365
	c0.01,0.109,0.047,0.088-0.081,0.115c-0.068,0.016-0.138,0.016-0.184,0.045c-0.059,0.039-0.069,0.103-0.112,0.15
	c-0.015,0.018-0.063,0.02-0.087,0.04c-0.018,0.019-0.028,0.065-0.046,0.09c-0.034,0.043-0.098,0.142-0.142,0.171
	c-0.084,0.055-0.19-0.005-0.276,0.035c-0.073,0.034-0.069,0.083-0.117,0.148c-0.076,0.103-0.074,0.063-0.194,0.063
	c-0.127,0.004-0.292,0.088-0.427,0.041c-0.063-0.021-0.118-0.098-0.174-0.133c-0.027-0.017-0.051,0.017-0.081-0.005
	c-0.012-0.008-0.045-0.07-0.062-0.086c-0.052-0.055-0.123-0.077-0.162-0.135c-0.057-0.078,0.03-0.102-0.092-0.121
	c-0.105-0.02-0.16,0.055-0.255,0.021c-0.063-0.021-0.086-0.104-0.112-0.151c-0.054-0.097-0.008-0.063-0.112-0.104
	c-0.085-0.032-0.175-0.027-0.225-0.104c-0.047-0.065,0.036-0.106-0.092-0.11c-0.037-0.001-0.05,0.037-0.076,0.036
	c-0.025-0.002-0.102-0.038-0.117-0.036c-0.083,0.01-0.08,0.098-0.153,0.104c-0.079,0.004-0.115-0.104-0.122-0.164
	c-0.006-0.045,0.035-0.177,0-0.215c-0.016-0.019-0.079,0.038-0.112,0.012c-0.045-0.037-0.005-0.105-0.031-0.133
	c-0.021-0.022-0.131-0.035-0.178-0.082c-0.06-0.06-0.069-0.115-0.097-0.185c-0.026-0.063-0.02-0.336-0.112-0.396
	c-0.137-0.095-0.65,0.066-0.713,0.213c-0.025,0.057,0.029,0.16,0.009,0.225C78.646,190.968,78.612,190.977,78.612,191.125"/>
<path fill="#B12731" stroke="#999999" stroke-width="0.25" stroke-linejoin="round" stroke-miterlimit="10" d="M72.324,185.764
	c-0.125-0.052,0.089-0.16,0.14-0.184c0.119-0.057,0.06-0.012,0.11-0.107c0.056-0.106,0.053-0.098-0.077-0.178
	c0.063-0.092,0.209-0.391,0.296-0.406c0.063-0.014,0.125,0.063,0.183,0.075c0.234,0.048,0.442-0.019,0.663-0.075
	c0.104-0.029,0.24,0.002,0.346,0.045c0.159,0.066,0.251,0.086,0.413,0.086c0.432,0,0.945,0.09,1.055,0.53
	c0.028,0.11,0.058,0.179,0.112,0.255c0.02,0.026,0.065,0.104,0.107,0.122c0.094,0.042,0.107-0.038,0.176-0.054
	c0.073-0.018,0.144,0.027,0.219,0.014c0.074-0.015,0.132-0.074,0.212-0.063c0.139,0.017,0.073,0.064,0.15,0.146
	c0.054,0.057,0.114,0.035,0.184,0.045c0.116,0.019,0.235,0.028,0.359,0.023c0.081-0.003,0.129-0.064,0.214-0.063
	c0.046,0.002,0.115,0.061,0.153,0.07c0.11,0.035,0.217,0.051,0.316,0.094c0.095,0.041,0.226,0.139,0.336,0.08
	c0.073-0.037,0.079-0.201,0.135-0.197c0.081,0.004,0.042,0.149,0.033,0.184c-0.033,0.121-0.179,0.293-0.29,0.277
	c-0.106-0.016-0.236-0.184-0.342-0.06c-0.039,0.045-0.037,0.181-0.046,0.244c-0.008,0.06-0.018,0.147,0.01,0.192
	c0.04,0.062,0.128,0.052,0.174,0.111c-0.118,0.014-0.22,0.01-0.321,0.025c-0.06,0.01-0.128,0.043-0.189,0.061
	c-0.123,0.037-0.232,0.183-0.346,0.148c-0.095-0.025-0.186-0.146-0.271-0.191c-0.06-0.031-0.126-0.052-0.183-0.099
	c-0.048-0.039-0.111-0.173-0.158-0.188c-0.046-0.016-0.142,0.056-0.191,0.062c-0.122,0.015-0.185-0.032-0.288-0.07
	c-0.043-0.016-0.106-0.046-0.148-0.061c-0.141-0.052-0.28-0.107-0.392-0.194c-0.095-0.072-0.125-0.177-0.194-0.301
	c-0.072-0.129-0.132-0.208-0.265-0.221c-0.125-0.01-0.262,0.011-0.392,0.013c-0.164,0.001-0.323-0.06-0.474-0.063
	c-0.097-0.002-0.091,0.06-0.168,0.092c-0.194,0.086-0.387-0.196-0.566-0.232c-0.045,0.063-0.113,0.031-0.178,0.005
	c-0.12-0.049-0.11-0.051-0.25-0.034C72.577,185.734,72.435,185.777,72.324,185.764"/>
<path fill="#B12731" stroke="#999999" stroke-width="0.25" stroke-linejoin="round" stroke-miterlimit="10" d="M73.129,187.669
	c0.128-0.144,0.208-0.368,0.288-0.55l0.479-1.071c0.048-0.106,0.029-0.101,0.109-0.121c0.096-0.024,0.228,0.031,0.337,0.03
	c0.079-0.001,0.161,0.003,0.234,0c0.225-0.009,0.284,0.001,0.398,0.193c0.045,0.076,0.057,0.174,0.102,0.233
	c0.042,0.06,0.121,0.099,0.173,0.14c0.149,0.117,0.369,0.181,0.529,0.234c0.099,0.033,0.193,0.034,0.291,0.016
	c0.064-0.017,0.095-0.045,0.148-0.018c0.035,0.02,0.065,0.094,0.095,0.122c0.072,0.072,0.148,0.099,0.232,0.144
	c0.07,0.039,0.127,0.096,0.198,0.144c0.17,0.114,0.302-0.067,0.474-0.128c0.1-0.035,0.178-0.038,0.275-0.04
	c0.182-0.004,0.243-0.004,0.163,0.174c-0.044,0.097-0.061,0.063-0.01,0.144c0.013,0.019,0.053,0.012,0.071,0.029
	c0.027,0.026,0.03,0.063,0.052,0.102c0.013,0.025,0.063,0.057,0.066,0.082c0.004,0.043-0.044,0.07-0.046,0.103
	c-0.005,0.063,0.048,0.147,0.02,0.216c-0.045,0.106-0.261,0.151-0.362,0.188c-0.057,0.021-0.17,0.023-0.213,0.064
	c-0.073,0.069-0.05,0.193,0.056,0.226c-0.009,0.095-0.047,0.221-0.102,0.291c-0.065,0.081-0.116,0.032-0.194,0.087
	c-0.055,0.035-0.033,0.132-0.122,0.132c-0.056,0.001-0.113-0.099-0.148-0.125c-0.045-0.033-0.151-0.11-0.199-0.106
	c-0.073,0.006-0.126,0.113-0.193,0.146c-0.063,0.028-0.143,0.04-0.209,0.067c-0.036,0.016-0.044,0.054-0.077,0.06
	c-0.03,0.005-0.072-0.051-0.102-0.051c-0.039,0-0.055,0.045-0.086,0.046c-0.043,0.001-0.066-0.026-0.107-0.03
	c-0.118-0.012-0.139,0.019-0.235,0.068c-0.215,0.116-0.3,0.034-0.438-0.114c-0.094-0.104-0.296-0.206-0.439-0.158
	c-0.073,0.024-0.135,0.112-0.224,0.139c-0.089,0.025-0.206,0.018-0.29-0.016c-0.074-0.027-0.146-0.094-0.194-0.146
	c-0.092-0.105-0.065-0.201-0.133-0.325c-0.079-0.146-0.137-0.272-0.178-0.419C73.544,187.598,73.377,187.588,73.129,187.669"/>
<path fill="#B12731" stroke="#999999" stroke-width="0.25" stroke-linejoin="round" stroke-miterlimit="10" d="M73.129,187.669
	c0.249-0.082,0.415-0.071,0.489,0.194c0.043,0.154,0.108,0.281,0.188,0.438c0.061,0.121,0.031,0.227,0.131,0.324
	c0.061,0.063,0.142,0.087,0.211,0.146c-0.033,0.117-0.086,0.193-0.143,0.295c-0.058,0.104-0.066,0.219-0.114,0.324
	c-0.065,0.142-0.026,0.118-0.008,0.234c0.02,0.132-0.058,0.189-0.204,0.082c0.031,0.172-0.143,0.425-0.255,0.479
	c-0.097,0.047-0.198,0.061-0.303,0.127c-0.062,0.041-0.094,0.051-0.135,0.117c-0.067,0.111-0.089,0.274-0.183,0.407
	c-0.092,0.129-0.202,0.212-0.28,0.325c-0.069,0.102-0.105,0.133-0.036,0.307c-0.012,0.016-0.038,0.047-0.051,0.063h-0.02
	c0.071-0.083-0.003-0.098-0.052-0.158c-0.036-0.046-0.127-0.139-0.122-0.188c-0.045,0.021-0.067,0.051-0.112,0.064
	c-0.015,0.006-0.054-0.027-0.076-0.021c-0.032,0.01-0.043,0.043-0.075,0.061c-0.048,0.025-0.164,0.117-0.205,0.1
	c-0.07-0.033-0.026-0.092-0.036-0.125c-0.027-0.092-0.06-0.236-0.087-0.354c-0.013-0.057-0.017-0.066-0.007-0.127
	c0.005-0.032,0.071-0.098,0.032-0.168c-0.041-0.075-0.213-0.137-0.254-0.209c-0.026-0.045-0.001-0.127-0.018-0.182
	c-0.023-0.072-0.077-0.121-0.114-0.188c-0.05-0.087-0.127-0.2-0.093-0.294c0.05-0.135,0.184-0.149,0.031-0.295
	c-0.082-0.078-0.154-0.16-0.249-0.221c0.072-0.063,0.199-0.025,0.29-0.146c0.055-0.073,0.065-0.18,0.11-0.258
	c0.049-0.09,0.114-0.148,0.19-0.217c-0.057-0.045-0.034-0.078-0.061-0.144c-0.018-0.044-0.057-0.071-0.091-0.122
	c-0.054-0.076-0.087-0.146-0.092-0.275c-0.012-0.295-0.19-0.319-0.326-0.528c-0.081-0.125-0.177-0.271-0.143-0.459
	c0.069,0.006,0.152,0.063,0.189,0.082c0.025,0.013,0.043,0.065,0.071,0.063c0.065-0.015,0.068-0.148,0.117-0.187
	c-0.016,0.051,0.008,0.063,0.051,0.052c0.036,0.016,0.167,0.059,0.235-0.021c0.011,0.137,0.084,0.227,0.138,0.334
	c0.074,0.147,0.083,0.207-0.036,0.318c-0.04-0.048-0.052-0.131-0.148-0.074c-0.12,0.068-0.025,0.146,0.035,0.217
	c-0.02,0-0.037,0.012-0.061,0.011c0.045,0.069,0.137,0.237,0.02,0.226c0,0.021,0.01,0.036,0.031,0.062
	c0.062-0.054,0.093-0.017,0.092,0.052c0.12-0.074,0.112,0.061,0.081,0.122c0.01,0.002,0.017-0.001,0.021-0.011
	c0,0.039-0.006,0.039-0.021,0.063c-0.017-0.033-0.11-0.072-0.102,0c0.01,0.082,0.266,0.254,0.327,0.336
	c0.017-0.166,0.171-0.16,0.259-0.258c0.052-0.056,0.019-0.143,0.118-0.13c-0.019,0.043-0.007,0.049-0.051,0.062
	c0.019,0.063-0.002,0.154,0.031,0.215c0.049,0.092,0.041,0.035,0.147,0.086c0.134,0.063,0.138,0.115,0.281,0.076
	c0.025-0.074-0.051-0.178,0.03-0.203c-0.001-0.034-0.031-0.108-0.03-0.133c0-0.024-0.04-0.017-0.01-0.058
	c0.013-0.019,0.1-0.028,0.122-0.034c-0.042-0.087-0.049-0.216-0.087-0.307c-0.044-0.104,0.006,0.018-0.087-0.041
	c-0.023-0.014-0.068-0.104-0.02-0.133c-0.02-0.07-0.089-0.211-0.072-0.305c0.012-0.063,0.037-0.109,0.041-0.175
	c0.005-0.06-0.007-0.118,0-0.179c0.009-0.069,0.05-0.212,0.123-0.25c0.079-0.042,0.05-0.01,0.051,0.063c0,0.116-0.032,0.243,0,0.336
	C72.789,187.491,72.892,187.777,73.129,187.669"/>
<path fill="#B12731" stroke="#999999" stroke-width="0.25" stroke-linejoin="round" stroke-miterlimit="10" d="M70.02,187.425
	c-0.063,0.125,0.172,0.192,0.265,0.245c0.132,0.074,0.318,0.16,0.408,0.285c-0.027-0.239,0.393,0.07,0.423,0.082
	c0.086,0.029,0.152,0.021,0.198,0.086c0.043,0.059,0.065,0.166,0.102,0.219c0.033,0.047,0.076,0.078,0.092,0.118
	c0.028,0.065,0.001,0.103,0.061,0.147c-0.071,0.063-0.135,0.119-0.183,0.203c-0.049,0.084-0.06,0.191-0.117,0.271
	c-0.09,0.12-0.22,0.083-0.291,0.146c0.081,0.051,0.136,0.129,0.194,0.181c0.118,0.102,0.167,0.145,0.081,0.291
	c-0.072,0.122-0.076,0.11,0,0.255c0.06,0.109,0.139,0.212,0.163,0.336c0.022,0.105,0.005,0.081,0.052,0.146
	c0.026,0.037,0.093,0.092,0.127,0.133c0.057,0.066,0.078,0.009,0.087,0.108c0.008,0.101-0.058,0.085-0.061,0.171
	c-0.005,0.092,0.106,0.254,0.119,0.344c0.017,0.115-0.044,0.25,0.155,0.146c0.036-0.021,0.077-0.061,0.113-0.072
	c0.029-0.012,0.063-0.017,0.092-0.027c0.043-0.019,0.087-0.021,0.142-0.051c-0.014,0.131,0.17,0.098,0.071,0.285
	c-0.042,0.079-0.104,0.155-0.163,0.225c-0.108,0.123-0.227,0.33-0.458,0.314c-0.179-0.011-0.139,0.118-0.273,0.186
	c-0.071,0.033-0.453,0.019-0.4,0.143c-0.094,0.063-0.15,0.085-0.234,0.174c-0.076,0.079-0.097,0.238-0.209,0.285
	c-0.11,0.045-0.222-0.052-0.311-0.092c-0.095-0.043-0.166-0.046-0.265-0.072c-0.101-0.025-0.17-0.063-0.234-0.121
	c-0.071-0.063-0.157-0.127-0.23-0.19c-0.102-0.091-0.097-0.077-0.229-0.123c-0.125-0.045-0.167-0.104-0.306-0.067
	c-0.111,0.029-0.17,0.074-0.224,0.158c-0.058,0.09-0.044,0.166-0.163,0.204c-0.081,0.024-0.104-0.013-0.163-0.021
	c-0.091-0.016-0.173-0.021-0.265-0.08c-0.048-0.031-0.118-0.151-0.204-0.145c0.021-0.063,0.044-0.162,0.101-0.209
	c0.065-0.055,0.178-0.048,0.25-0.079c0.197-0.084,0.341-0.282,0.382-0.487c0.023-0.109,0.069-0.264,0-0.365
	c-0.059-0.088-0.145-0.065-0.234-0.092c-0.177-0.052-0.335-0.184-0.316-0.377c0.01-0.104,0.064-0.207,0.051-0.315
	c-0.01-0.082-0.041-0.144-0.03-0.203c0.01-0.003,0.013,0,0.01,0.01c-0.003-0.021,0.002-0.041,0-0.062
	c0.021,0,0.021-0.012,0.051-0.01c-0.015-0.012-0.017-0.01-0.021-0.021c0.052,0.006,0.084-0.016,0.107-0.012
	c0.045,0.01,0.068,0.074,0.107,0.031c0.013,0.004,0.018,0.018,0.041,0.01c0.004-0.066-0.004-0.104,0-0.143
	c0.003-0.023,0.02-0.044,0.02-0.082c0.002-0.085-0.065-0.179-0.02-0.273c0.049-0.104,0.171-0.129,0.204-0.256
	c0.01-0.039-0.005-0.064,0-0.11c0.011-0.101,0.004-0.19,0.025-0.308c0.015-0.08,0.037-0.176,0.067-0.225
	c0.023-0.037,0.083-0.087,0.101-0.111c0.07-0.095,0.059-0.23,0.143-0.326c0.065-0.072,0.232-0.149,0.327-0.188
	c0.046-0.021,0.068,0.021,0.111-0.016c0.032-0.027-0.008-0.085,0.031-0.112c0.05-0.036,0.081,0.007,0.133,0
	c0.313-0.035-0.048-0.206,0.01-0.331c0.004-0.008,0.084-0.026,0.102-0.046c0.024-0.023,0.024-0.1,0.051-0.132
	C69.843,187.332,69.926,187.334,70.02,187.425"/>
<path fill="#B12731" stroke="#999999" stroke-width="0.25" stroke-linejoin="round" stroke-miterlimit="10" d="M72.915,184.938
	c0.029-0.073-0.069-0.078-0.067-0.146c0.001-0.059,0.096-0.118,0.115-0.176c0.03-0.09-0.039-0.219,0.054-0.237
	c0.025,0.043,0.248,0.216,0.285,0.214c0.094-0.003,0.067-0.174,0.082-0.254c0.028-0.156,0.119-0.289,0.132-0.428
	c0.008-0.085,0.003-0.421,0.122-0.489c0.057-0.03,0.108,0.054,0.161,0.097c0.178,0.146,0.229,0.156,0.451,0.17
	c0.269,0.014,0.469-0.395,0.713-0.349c0.279,0.054,0.366,0.353,0.714,0.302c0.096-0.015,0.156-0.051,0.224-0.093
	c0.04-0.022,0.094-0.065,0.142-0.103c0.027-0.021,0.034-0.049,0.067-0.066c0.037-0.02,0.084-0.009,0.107-0.021
	c0.05-0.021,0.123-0.062,0.153-0.098c0.017-0.019,0.005-0.06,0.025-0.084c0.03-0.035,0.067-0.041,0.087-0.084
	c0.07,0.055,0.172,0.014,0.255,0.021c0.078,0.007,0.136,0.039,0.209,0.039c0.147,0.002,0.261-0.113,0.418-0.106
	c0.17,0.009,0.237,0.037,0.244,0.22c0.002,0.041-0.033,0.161-0.025,0.174c0.051,0.07,0.16,0.004,0.214,0.029
	c0.086,0.045,0.047,0.137,0.117,0.174c0.096,0.053,0.188-0.043,0.26-0.08c-0.155,0.088-0.054,0.17-0.012,0.276
	c0.032,0.083,0,0.157,0.012,0.242c0.017,0.121,0.083,0.114,0.148,0.198c0.052,0.066,0.066,0.168,0.087,0.25
	c0.029,0.119,0.026,0.1-0.041,0.215c-0.039,0.066-0.121,0.188-0.122,0.27c-0.001,0.055,0.026,0.143,0.04,0.193
	c0.026,0.1,0.197,0.238,0.146,0.344c-0.02,0.041-0.136,0.081-0.176,0.12c-0.038,0.036-0.112,0.121-0.133,0.168
	c-0.06,0.134,0.025,0.392-0.219,0.397c-0.092,0.002-0.224-0.079-0.311-0.116c-0.095-0.042-0.217-0.063-0.316-0.099
	c-0.122-0.041-0.26-0.006-0.405-0.008c-0.106,0-0.238,0.031-0.359,0c-0.119-0.031-0.062-0.125-0.133-0.182
	c-0.045-0.035-0.174-0.014-0.224,0c-0.052,0.016-0.066,0.044-0.12,0.051c-0.039,0.006-0.077-0.017-0.114-0.013
	c-0.074,0.008-0.119,0.063-0.184,0.063c-0.247,0.008-0.237-0.406-0.336-0.541c-0.117-0.158-0.325-0.326-0.535-0.334
	c-0.11-0.004-0.204-0.011-0.311-0.021c-0.118-0.016-0.218,0.017-0.335-0.005c-0.161-0.03-0.294-0.146-0.46-0.148
	c-0.173-0.003-0.331,0.091-0.52,0.082C73.156,184.965,72.993,184.993,72.915,184.938"/>
<path fill="#B12731" stroke="#999999" stroke-width="0.25" stroke-linejoin="round" stroke-miterlimit="10" d="M92.536,176.355
	c-0.018,0.094-0.084,0.098-0.148,0.168c-0.049,0.055-0.078,0.146-0.117,0.209c-0.047,0.074-0.082,0.145-0.123,0.24
	c-0.012,0.027-0.049,0.075-0.05,0.105c-0.001,0.033,0.045,0.063,0.04,0.091c-0.007,0.04-0.064,0.021-0.071,0.065
	c-0.008,0.06,0.052,0.072,0.052,0.094c0,0.055-0.078,0.146-0.103,0.218c-0.032,0.093-0.05,0.199-0.123,0.093
	c-0.032-0.051-0.049-0.189-0.101-0.047c-0.032,0.09-0.006,0.176-0.041,0.25c-0.028,0.063-0.08,0.188-0.129,0.215
	c-0.045,0.026-0.189,0.034-0.238,0.053c-0.043,0.015-0.131,0.049-0.209,0.07c-0.124,0.034-0.129-0.051-0.209-0.053
	c-0.139-0.002-0.076,0.105-0.107,0.188c-0.033,0.096-0.086,0.047-0.046,0.14c0.021,0.045,0.079-0.006,0.046,0.076
	c-0.02,0.052-0.058,0.015-0.092,0.034c-0.145,0.088-0.063,0.297-0.117,0.466c-0.031,0.098-0.109,0.095-0.214,0.155
	c-0.201,0.119-0.345,0.221-0.494,0.402c-0.106,0.131-0.103,0.262-0.199,0.342c-0.101,0.084-0.062,0.034-0.056,0.163
	c0.001,0.021-0.036,0.062-0.026,0.112c0.004,0.021,0.052,0.047,0.067,0.091c0.042,0.126-0.034,0.118-0.097,0.175
	c-0.095,0.084-0.13,0.277-0.214,0.438c-0.087,0.166-0.256,0.261-0.347,0.396c-0.03,0.047-0.033,0.158-0.086,0.186
	c-0.057,0.023-0.126-0.066-0.178-0.104c-0.175-0.119-0.304-0.058-0.459,0.021c-0.081,0.04-0.181,0.031-0.281,0.063
	c-0.069,0.021-0.115,0.077-0.198,0.103c-0.166,0.045-0.327,0.108-0.479,0.132c-0.147,0.021-0.233-0.016-0.373-0.033
	c-0.123-0.016-0.225,0.074-0.27-0.084c-0.025-0.089,0.028-0.21,0.021-0.301c-0.009-0.104-0.043-0.186-0.051-0.285
	c-0.011-0.13,0.081-0.135,0.081-0.25c0.001-0.082-0.04-0.203-0.051-0.301c-0.01-0.102-0.028-0.182-0.038-0.26
	c-0.02-0.157-0.001-0.313-0.104-0.443c-0.107-0.135-0.132-0.033-0.286,0c-0.113,0.023-0.197-0.025-0.284-0.087
	c-0.217-0.153-0.153-0.479-0.312-0.647c-0.105-0.108-0.197-0.13-0.341-0.173c-0.147-0.044-0.206-0.139-0.281-0.214
	c-0.043-0.044-0.093-0.117-0.168-0.184c-0.052-0.047-0.19-0.118-0.26-0.131c-0.062-0.012-0.261,0.051-0.331,0.08
	c-0.126,0.053-0.168,0.101-0.311,0.045c-0.063-0.022-0.11-0.043-0.168-0.045c-0.09-0.004-0.033,0.071-0.102-0.013
	c-0.042-0.051-0.019-0.139-0.046-0.187c-0.038-0.067-0.132-0.088-0.137-0.188c-0.004-0.054,0.061-0.076,0.035-0.137
	c-0.029-0.068-0.078-0.025-0.122-0.061c-0.104-0.076-0.117-0.162-0.26-0.063c-0.089,0.063-0.111,0.155-0.25,0.063
	c-0.112-0.074-0.089-0.179-0.142-0.287c-0.106-0.217-0.397-0.272-0.464-0.488c-0.072-0.233,0.025-0.502-0.031-0.704
	c-0.003-0.013-0.052-0.045-0.061-0.065c-0.009-0.021,0.008-0.055,0-0.076c-0.029-0.072-0.008-0.074-0.077-0.1
	c-0.01-0.004-0.071,0.031-0.096,0.028c-0.025-0.005-0.039-0.062-0.041-0.062c-0.023-0.006-0.115,0.002-0.143,0.021
	c-0.056,0.034-0.036,0.062-0.089,0.116c-0.036,0.039-0.097,0.059-0.15,0.103c-0.04,0.033-0.071,0.101-0.102,0.127
	c-0.071,0.067-0.057,0.06-0.184,0.062c-0.078,0.002-0.143,0.009-0.203,0.054c-0.031,0.021-0.05,0.083-0.092,0.104
	c-0.105,0.062-0.16-0.045-0.28,0.006c-0.051,0.021,0.037,0.104-0.072,0.035c0.005,0.002-0.067-0.109-0.066-0.107
	c-0.023-0.077,0.038-0.219,0.077-0.324c0.034-0.096,0.057-0.191,0.108-0.283c0.034-0.061,0.068-0.084,0.085-0.154
	c0.011-0.045-0.022-0.082,0.005-0.134c0.027-0.049,0.099-0.077,0.133-0.137c0.064-0.108,0.077-0.134,0.198-0.204
	c0.126-0.07,0.259-0.188,0.316-0.331c0.038-0.095,0.018-0.14,0.082-0.225c0.108-0.144,0.1-0.083,0.031-0.244
	c-0.095-0.222,0.005-0.343,0.152-0.49c0.098-0.097,0.2-0.335,0.329-0.339c0.059-0.001,0.081,0.066,0.156,0.049
	c0.056-0.014,0.079-0.058,0.111-0.104c0.058-0.088,0.123-0.215,0.164-0.31c0.054-0.123,0.006-0.211,0.048-0.347
	c0.088-0.283,0.34-0.352,0.237-0.691c-0.033-0.109-0.061-0.416,0.102-0.445c0.092-0.019,0.14,0.103,0.237,0.016
	c0.045-0.04,0.043-0.13,0.084-0.182c0.061-0.075,0.17-0.145,0.243-0.217c0.07-0.072,0.135-0.146,0.196-0.223
	c0.04,0.053,0.048,0.117,0.086,0.171c0.032,0.045,0.101,0.063,0.122,0.119c0.035,0.092-0.047,0.21-0.02,0.313
	c0.037,0.137,0.201,0.207,0.265,0.342c0.028,0.058,0.037,0.139,0.076,0.183c0.038,0.042,0.16,0.054,0.214,0.076
	c0.049,0.021,0.094,0.034,0.143,0.062c0.025,0.017,0.056-0.004,0.082,0.021c0.024,0.021,0.007,0.061,0.025,0.077
	c0.142,0.134,0.196,0.014,0.362,0.055c0.076,0.021,0.328,0.146,0.367,0.204c0.077,0.12-0.044,0.262,0.015,0.361
	c0.076,0.134,0.183,0.046,0.275,0.016c0.115-0.035,0.219,0.023,0.337,0.077c0.106,0.046,0.175,0.06,0.209,0.188
	c0.031,0.123-0.016,0.268,0.107,0.342c0.13,0.08,0.218,0.029,0.29,0.18c0.053,0.109-0.001,0.171,0.074,0.268
	c0.038,0.047,0.114,0.07,0.15,0.119c0.02,0.026,0.04,0.137,0.056,0.148c0.055,0.035,0.14-0.027,0.22-0.026
	c0.324,0.002,0.518,0.341,0.866,0.316c-0.008,0.096,0.17-0.019,0.194-0.021c0.058-0.009,0.165,0,0.239,0
	c0.229,0,0.225,0.21,0.362,0.306c-0.034,0.054-0.004,0.149,0.056,0.054c0.023-0.039,0.01-0.103,0.025-0.146
	c0.021-0.058,0.073-0.113,0.102-0.168c0.092-0.162,0.081-0.345,0.194-0.516c0.095,0.064,0.233,0.016,0.337,0.066
	c0.033,0.017,0.067,0.059,0.096,0.076c0.065,0.039,0.148,0.094,0.22,0.11c0.118,0.031,0.142,0.019,0.213,0.092
	c0.051,0.056,0.086,0.121,0.139,0.209c0.032,0.058,0.043,0.171,0.106,0.209c0.116,0.072,0.082-0.053,0.204-0.038
	c0.113,0.012,0.307,0.242,0.357,0.323c0.057,0.095,0.079,0.138,0.213,0.154c0.157,0.02,0.176-0.04,0.244-0.154
	c0.071,0.072,0.127,0.138,0.204,0.187c0.052-0.063,0.099-0.057,0.163-0.013c-0.076,0.091-0.044,0.267-0.05,0.378
	c-0.005,0.084-0.114,0.34-0.077,0.397c0.057,0.091,0.354,0.063,0.413,0.021c0.03-0.022,0.015-0.084,0.081-0.093
	c0.066-0.007,0.063,0.045,0.111,0.052C92.353,176.37,92.438,176.288,92.536,176.355"/>
<path fill="#B12731" stroke="#999999" stroke-width="0.25" stroke-linejoin="round" stroke-miterlimit="10" d="M86.838,181.697
	c-0.082,0.094-0.02,0.164-0.143,0.193c-0.037,0.008-0.11-0.011-0.153-0.008c-0.128,0.014-0.145,0.008-0.265-0.033
	c-0.065-0.023-0.172-0.008-0.254-0.021c-0.039-0.008-0.068-0.038-0.102-0.041c-0.083-0.01-0.147,0.021-0.212,0.007
	c-0.106-0.026-0.192-0.108-0.308-0.129c-0.071-0.015-0.139-0.019-0.206,0.012c-0.13,0.056-0.079,0.132-0.13,0.214
	c-0.045,0.067-0.145,0.112-0.194,0.201c-0.042,0.078-0.055,0.164-0.102,0.245c-0.061,0.104-0.099,0.147-0.143,0.255
	c-0.038,0.096-0.069,0.188-0.102,0.266c-0.043,0.104-0.068,0.232-0.122,0.315c-0.048,0.074-0.114,0.136-0.143,0.216
	c-0.032,0.088-0.049,0.161-0.081,0.254c-0.033,0.096-0.091,0.187-0.115,0.281c-0.02,0.083-0.003,0.176-0.038,0.229
	c-0.029,0.046-0.145,0.115-0.204,0.146c-0.091,0.053-0.142,0.03-0.234,0.046c-0.12,0.021-0.087,0.091-0.194,0.122
	c-0.079,0.024-0.163-0.027-0.255-0.01c-0.191,0.039-0.172,0.281-0.357,0.377c-0.086,0.046-0.165,0.027-0.244,0.063
	c-0.124,0.054-0.046,0.104-0.092,0.203c-0.026,0.058-0.165,0.116-0.214,0.164c-0.064,0.063-0.121,0.145-0.173,0.192
	c-0.069,0.063-0.171,0.121-0.245,0.185c-0.059,0.051-0.125,0.125-0.173,0.161c-0.06,0.048-0.11,0.039-0.174,0.072
	c-0.106,0.056-0.147,0.157-0.254,0.214c-0.083,0.044-0.133,0.075-0.194,0.145c-0.057,0.063-0.136,0.117-0.194,0.162
	c-0.072,0.059-0.1,0.144-0.188,0.18c-0.092,0.037-0.187,0.033-0.27,0.076c-0.105,0.054-0.144,0.082-0.255,0.103
	c-0.246,0.043-0.55-0.095-0.805-0.021c-0.238,0.067-0.445,0.316-0.673,0.233c-0.07-0.024-0.066-0.062-0.163-0.062
	c-0.084,0-0.159,0.035-0.219,0.051c-0.143,0.035-0.18,0.021-0.311-0.04c-0.089-0.043-0.146-0.058-0.204-0.133
	c-0.016-0.021-0.111-0.158-0.112-0.163c-0.025-0.085,0.049-0.131,0.01-0.235c0.037,0.021,0.169,0.087,0.204,0.093
	c0.084,0.02,0.149-0.021,0.222-0.097c0.042-0.043,0.122-0.159,0.125-0.22c0.005-0.1-0.098-0.146-0.092-0.244
	c0.005-0.084,0.094-0.152,0.145-0.209c0.042-0.045,0.142-0.094,0.171-0.133c0.084-0.116-0.09-0.264-0.123-0.385
	c-0.017-0.063-0.056-0.164-0.04-0.231c0.024-0.104,0.17-0.192,0.188-0.301c0.012-0.072-0.03-0.175-0.056-0.25
	c-0.041-0.124-0.135-0.14-0.183-0.229c-0.049-0.094,0.013-0.207-0.021-0.307c-0.047-0.145-0.14-0.161-0.01-0.301
	c0.04-0.043,0.087-0.055,0.112-0.112c0.029-0.065-0.012-0.11,0.041-0.173c0.066-0.078,0.21-0.061,0.27-0.146
	c0.094-0.133-0.014-0.138-0.097-0.181c-0.235-0.122-0.044-0.288-0.03-0.464c0.004-0.063-0.045-0.154-0.051-0.225
	c-0.011-0.117,0.025-0.117,0.066-0.22c0.012-0.03-0.002-0.092,0.015-0.116c0.032-0.05,0.101-0.048,0.138-0.088
	c0.052-0.06,0.075-0.219,0.097-0.285c0.025-0.074,0.026-0.129,0.01-0.203c-0.015-0.065-0.072-0.049-0.046-0.147
	c0.017-0.063,0.066-0.08,0.102-0.13c0.047-0.066,0.068-0.146,0.117-0.206c0.034-0.041,0.092-0.062,0.133-0.097
	c0.053-0.051,0.063-0.053,0.081-0.135c0.014-0.063,0.047-0.138,0.071-0.192c0.02-0.046,0.02-0.111,0.041-0.162
	c0.036-0.087,0.099-0.142,0.143-0.22c0.08-0.146,0.012-0.164-0.01-0.291c-0.022-0.125,0.087-0.209,0.054-0.342
	c-0.043-0.17-0.184-0.256-0.105-0.425c0.033-0.067,0.091-0.092,0.071-0.19c-0.025-0.131-0.209-0.256-0.02-0.346
	c0.058-0.026,0.151,0.016,0.204-0.043c0.05-0.056,0.015-0.151,0.045-0.216c0.083-0.164,0.285-0.09,0.383-0.248
	c0.135-0.224-0.267-0.493-0.057-0.729c0.058-0.063,0.132-0.044,0.189-0.103c0.058-0.061,0.022-0.135,0.051-0.199
	c0.049-0.109,0.188-0.168,0.296-0.203c0.119-0.041,0.141-0.058,0.193-0.17c0.059,0.033,0.075,0.158,0.143,0.153
	c0.01-0.002,0.012-0.081,0.041-0.092c0.074-0.026,0.065,0.011,0.122,0.017c0.131,0.01,0.088-0.006,0.184-0.088
	c0.094-0.08,0.212-0.035,0.336-0.07c0.07-0.021,0.106-0.092,0.174-0.163c0.027-0.028,0.042-0.067,0.071-0.093
	c0.026-0.021,0.062,0,0.092-0.029c0.015-0.016,0.027-0.051,0.04-0.063c0.052-0.048-0.005-0.027,0.082-0.062
	c0.038-0.017,0.079-0.025,0.112-0.021c-0.021-0.005,0.099,0.055,0.102,0.057c0.046,0.015,0.043-0.051,0.091,0
	c0.028,0.029,0.008,0.095,0.021,0.128c0.012,0.028,0.071,0.085,0.077,0.106c0.01,0.045-0.023,0.063-0.019,0.103
	c0.005,0.034,0.027,0.086,0.028,0.116c0.007,0.129-0.023,0.215-0.006,0.354c0.006,0.047-0.003,0.064,0.012,0.114
	c0.023,0.073,0.03,0.056,0.071,0.11c0.109,0.148,0.308,0.203,0.393,0.377c0.064,0.135,0.093,0.416,0.32,0.308
	c0.042-0.021,0.081-0.136,0.174-0.134c0.063,0.002,0.144,0.08,0.198,0.123c0.029,0.021,0.068,0.009,0.087,0.062
	c0.018,0.052-0.041,0.065-0.038,0.106c0.004,0.064,0.027,0.095,0.064,0.152c0.014,0.023,0.059,0.031,0.071,0.053
	c0.015,0.027-0.001,0.072,0.01,0.104c0.004,0.013,0.036,0.104,0.038,0.106c0.077,0.056,0.023-0.019,0.1-0.017
	c0.086,0.005,0.173,0.075,0.265,0.082c0.163,0.013,0.334-0.161,0.494-0.164c0.056,0,0.185,0.05,0.229,0.071
	c0.076,0.041,0.12,0.111,0.174,0.174c0.074,0.087,0.183,0.229,0.367,0.285c0.184,0.059,0.343,0.121,0.407,0.307
	c0.071,0.202,0.072,0.438,0.296,0.551c0.094,0.049,0.142,0.071,0.25,0.041c0.14-0.041,0.154-0.115,0.249,0
	c0.091,0.108,0.107,0.248,0.107,0.389c0.001,0.143,0.033,0.285,0.056,0.447c0.012,0.078,0.042,0.145,0.031,0.215
	c-0.014,0.089-0.075,0.084-0.072,0.193c0.005,0.149,0.063,0.277,0.052,0.441C86.76,181.52,86.694,181.66,86.838,181.697"/>
<path fill="#B12731" stroke="#999999" stroke-width="0.25" stroke-linejoin="round" stroke-miterlimit="10" d="M78.174,183.563
	c-0.059,0.035-0.119,0.097-0.194,0.092c-0.155-0.008-0.06-0.086-0.138-0.156c-0.06-0.057-0.151,0.014-0.213-0.027
	c-0.062-0.043-0.034-0.096-0.026-0.156c0.025-0.19-0.027-0.229-0.194-0.25c-0.076-0.008-0.114-0.033-0.193-0.01
	c-0.066,0.021-0.132,0.09-0.204,0.107c-0.084,0.021-0.145-0.039-0.224-0.046c-0.1-0.011-0.224,0.041-0.306-0.021
	c-0.019,0.04-0.052,0.049-0.081,0.081c-0.023,0.025-0.015,0.063-0.031,0.081c-0.032,0.037-0.1,0.08-0.153,0.104
	c-0.058,0.022-0.106,0.039-0.164,0.078c-0.051,0.037-0.109,0.084-0.152,0.109c-0.069,0.042-0.127,0.077-0.224,0.094
	c-0.175,0.023-0.301-0.025-0.428-0.129c-0.083-0.064-0.242-0.199-0.347-0.193c-0.161,0.011-0.313,0.223-0.448,0.307
	c-0.106,0.064-0.299,0.092-0.428,0.051c-0.072-0.021-0.162-0.104-0.23-0.162c-0.082-0.067-0.157-0.104-0.249-0.174
	c-0.103-0.078-0.155-0.109-0.245-0.152c-0.052-0.022-0.209-0.084-0.173-0.174c0.038-0.096,0.222,0.034,0.285-0.021
	c0.073-0.063,0.011-0.283,0.031-0.356c0.05-0.19,0.228-0.404,0.326-0.576c0.091-0.157,0.195-0.311,0.275-0.474
	c-0.048-0.022-0.1-0.037-0.153-0.041c0.058-0.096,0.186-0.114,0.265-0.122c0.014-0.002,0.048,0.018,0.077,0.01
	c0.043-0.012,0.045-0.045,0.076-0.051c0.091-0.016,0.293,0.131,0.285-0.061c0.122,0.07,0.308,0.111,0.454,0.111
	c0.102,0,0.16-0.031,0.265-0.031c0.143,0,0.269,0.025,0.408,0.012c0.11-0.014,0.219-0.059,0.31-0.072
	c0.12,0.081,0.199,0.053,0.347,0.072c0.039,0.004,0.086,0.048,0.112,0.05c0.04,0.005,0.07-0.03,0.112-0.03
	c0.074,0.002,0.14,0.06,0.214,0.063c0.21,0.011,0.205-0.267,0.372-0.285c0.068-0.008,0.119,0.081,0.179,0.111
	c0.061,0.03,0.151,0.057,0.214,0.069c0.093,0.022,0.234-0.004,0.285,0.088c0.022,0.039-0.008,0.117,0.01,0.162
	c0.022,0.056,0.019,0.045,0.041,0.071c-0.001-0.001,0.142,0.116,0.153,0.118c0.063,0.009,0.107-0.081,0.184-0.082
	c0.032,0,0.186,0.072,0.203,0.098c0.062,0.086,0.017,0.17-0.013,0.262c-0.026,0.082-0.05,0.111-0.038,0.224
	c0.009,0.079,0.056,0.138,0.041,0.214c-0.019,0.1-0.087,0.157-0.071,0.274c0.023,0.184,0.157,0.082,0.224,0.184
	c0.097,0.148-0.144,0.199-0.229,0.255C78.242,183.342,78.32,183.494,78.174,183.563"/>
</svg>
