<?xml version="1.0" encoding="utf-8"?>
<!-- Generator: Adobe Illustrator 16.0.0, SVG Export Plug-In . SVG Version: 6.00 Build 0)  -->
<!DOCTYPE svg PUBLIC "-//W3C//DTD SVG 1.1//EN" "http://www.w3.org/Graphics/SVG/1.1/DTD/svg11.dtd">
<svg version="1.1" xmlns="http://www.w3.org/2000/svg" xmlns:xlink="http://www.w3.org/1999/xlink" x="0px" y="0px"
	 width="230.731px" height="400px" viewBox="0 0 230.731 400" enable-background="new 0 0 230.731 400" xml:space="preserve">
<g id="hombre">
	<path fill="#263B79" d="M113.895,48.682c-13.633,0-24.681,11.056-24.681,24.689c0,13.64,11.048,24.696,24.681,24.696
		c13.641,0,24.697-11.056,24.697-24.696C138.592,59.738,127.536,48.682,113.895,48.682z"/>
	<path fill="#263B79" d="M142.846,103.212l-55.34-0.022c-17.479,0-28.438,14.256-28.438,32.04v75.811
		c0,14.732,19.469,14.732,19.469,0v-73.776h6.192l-0.015,200.198c0,7.641,6.192,13.855,13.841,13.855
		c7.647,0,13.84-6.215,13.84-13.855l0.016-116.13h6.163l-0.045,116.13c0,7.641,6.208,13.855,13.849,13.855
		c7.64,0,13.832-6.215,13.832-13.855l0.067-200.198h6.066v73.776c0,14.836,19.365,14.836,19.32,0V135.69
		C171.664,119.288,162.041,103.212,142.846,103.212z"/>
</g>
<g id="mujer">
	<path fill="#263B79" d="M185.24,194.89l-21.516-70.739c-2.655-7.963-9.762-22.387-27.278-22.387H94.079
		c-17.683,0-24.744,14.314-27.045,22.387l-21.5,70.807c-4.474,15.224,15.05,21.063,19.667,6.854l19.365-65.183h5.213L56.472,252.172
		h31.021l0.008,89.946c0,15.487,23.197,15.487,23.197,0l-0.007-90.543h9.415v90.656c0,15.291,23.099,15.374,23.099,0v-90.06h30.923
		l-33.563-115.543h5.643l19.357,64.95C170.182,216.398,189.54,210.106,185.24,194.89z"/>
	<path fill="#263B79" d="M115.387,47.262c-13.866,0-25.1,11.241-25.1,25.106c0,13.858,11.233,25.099,25.1,25.099
		c13.865,0,25.105-11.241,25.105-25.099C140.493,58.502,129.252,47.262,115.387,47.262z"/>
</g>
</svg>
