<?xml version="1.0" encoding="utf-8"?>
<!-- Generator: Adobe Illustrator 16.0.0, SVG Export Plug-In . SVG Version: 6.00 Build 0)  -->
<!DOCTYPE svg PUBLIC "-//W3C//DTD SVG 1.1//EN" "http://www.w3.org/Graphics/SVG/1.1/DTD/svg11.dtd">
<svg version="1.1" id="Layer_1" xmlns="http://www.w3.org/2000/svg" xmlns:xlink="http://www.w3.org/1999/xlink" x="0px" y="0px"
	 width="400px" height="323.58px" viewBox="0 0 400 323.58" enable-background="new 0 0 400 323.58" xml:space="preserve">
<g>
	<path fill="#C44D5C" d="M358.467,162.65c-2.791-0.333-5.084-2.114-7.889-2.516c-1.957-0.277-3.791-0.147-5.723-0.798
		c-2.013-0.671-3.864-1.76-5.694-2.809c-0.952-0.541-2.622,0.13-3.122,0.94c-3.342,1.713-5.806,4.909-7.671,8.796
		c-33.24-6.284-55.593-33.099-85.404-46.165c-0.572-0.251-2.233,0.633-2.023,0.726c29.986,13.142,52.715,40.293,86.211,46.372
		c0.175,0.03,0.517-0.053,0.859-0.174c-3.745,8.317-4.951,19.412-6.199,25.91c-3.989,20.796-4.881,40.994-5.058,61.935
		c-3.153,0.003-6.31,0.032-9.465,0.065c-0.074-0.168-0.359-0.276-0.955-0.267c-9.621,0.158-20.551,0.053-29.53-3.755
		c-7.145-3.021-13.7-8.497-19.44-13.674c2.641-0.149,5.318-0.473,8.072-1.063c1.483-0.316,3.093-2.069,0.61-1.54
		c-11.616,2.497-22.665,0.015-34.222-1.251c-11.873-1.302-24.355-3.822-34.571-10.288c3.929-0.599,7.713-2.38,11.39-4.292
		c2.132-1.104-1.024-1.757-2.237-1.125c-4.394,2.288-9.19,4.7-14.217,3.002c3.207-1.427,5.778-4.072,8.182-6.853
		c1.448-1.676-1.981-2.026-2.952-0.901c-10.884,12.599-19.896,0.015-31.838,1.466c-0.48,0.06-0.897,0.262-1.214,0.525
		c-2.693-0.366-4.559-2.231-6.798-3.656c-1.978-1.255-4.204-2.013-6.077-3.454c-0.891-0.684-4.127,0.712-3.341,1.318
		c2.356,1.816,5.2,2.773,7.612,4.523c2,1.45,3.864,2.695,6.301,2.999c-0.191,0.178-0.308,0.403-0.274,0.662
		c0.093,0.719,0.15,1.439,0.218,2.158c-0.775,0.01-1.852,0.58-1.411,1.011c3.443,3.37,5.702,11.175,6.547,15.923
		c1.059,5.939,0.203,16.263-5.438,19.896c-0.027,0.018-0.045,0.033-0.069,0.05c-3.313,0.599-6.057-0.269-8.434-2.02
		c-1.375-3.129,0.504-6.73-1.129-9.749c-1.336-2.469-5-5.189-7.563-6.115c-0.468-0.169-1.558,0.358-1.908,0.598
		c-1.995-3.738-3.981-7.275-6.28-9.691c8.564-0.569,18.198-5.736,23.034-12.021c0.834-1.08-1.188-1.466-1.802-0.663
		c-5.351,6.955-16.902,12.479-25.425,10.786c3.461-1.556,6.575-4.604,4.821-8.745c-1.09-2.584-3.948-3.864-5.789-5.813
		c-2.824-2.996-4.086-6.705-4.288-10.737c0.743-2.143,1.377-4.33,1.745-6.637c0.541-3.392,0.87-6.934,1.779-10.071
		c-0.183,4.706,0.711,9.263,2.713,13.641c0.238,0.52,2.314-0.2,2.143-0.575c-2.44-5.351-3.261-10.95-2.448-16.774
		c0.014-0.11-0.385-0.135-0.841-0.077c1.603-2.763,4.184-4.841,8.604-5.627c0.297,0.11,0.777,0.121,1.428-0.046
		c2.993-0.767,5.989-1.278,8.995-1.638c0.391,0.129,1.038,0.089,1.393-0.153c5.006-0.52,10.041-0.643,15.135-0.744
		c7.812-0.154,18.871-2.57,25.835,1.567c0.936,0.561,4-0.897,3.355-1.28c-1.967-1.167-4.008-1.858-6.098-2.256
		c34.565-34.991,69.126-69.986,103.691-104.983c0.533-0.538-1.546-0.354-1.964,0.068c-1.245,1.261-2.49,2.521-3.735,3.782
		c-2.365-4.102-5.284-7.393-10.272-8.01c-0.055-0.007-0.131,0-0.212,0.012c1.883-1.798,3.772-3.588,5.668-5.371
		c0.321,0.063,0.705,0,1.016-0.153c0.145,0.095,0.512,0.129,0.717,0.209c0.445,0.165,0.873,0.359,1.305,0.57
		c1.017,0.5,1.97,1.103,2.868,1.795c1.76,1.358,3.222,3.052,4,5.149c0.358,0.966,2.49,0.366,2.146-0.573
		c-1.066-2.874-3.247-5.114-5.807-6.736c-1.598-1.016-4.369-2.85-6.288-1.828c-0.291,0.053-0.559,0.149-0.704,0.285
		c-18.92,17.741-37.144,36.273-55.187,54.994c-2.935-3.064-6.123-4.891-9.656-7.36c-4.331-3.026-7.462-6.208-12.784-7.381
		c-7.199-1.588-14.022,0.659-20.222,4.25c-0.399,0.232-0.479,0.436-0.381,0.591c-7.682,6.409-20.438,7.373-29.725,9.967
		c-8.752,2.445-17.42,5.179-26.084,7.907c-0.45,0.142-0.688,0.417-0.765,0.696c-20.987,3.936-6.04,29.234-4.466,42.755
		c0.023,0.202,0.309,0.272,0.66,0.256c0,2.06,0.728,3.936,2.177,5.487c0.039,0.042,0.086,0.076,0.138,0.105
		c1.686,5.993,0.509,12.868,0.041,18.97c-0.032,0.422,0.263,0.64,0.646,0.695c-0.541,3.123-0.588,6.391-1.168,9.445
		c-1.184,6.2-4.328,11.666-5.953,17.717c-0.282,0.196-0.483,0.468-0.447,0.804c0.169,1.513,0.467,2.87,0.86,4.107
		c-1.836,1.664-3.796,3.204-5.688,4.802c-0.161,0.136-0.257,0.266-0.311,0.389c-0.169,0.086-0.312,0.196-0.401,0.334
		c-4.659,7.163-8.282,14.886-12.13,22.493c-0.326,0.254-0.636,0.531-0.934,0.849c-0.912,0.972,1.15,1.259,1.785,0.586
		c0.365-0.442,0.806-0.789,1.325-1.034c0.278-0.149,0.436-0.316,0.511-0.481c6.647-2.864,13.244-5.895,19.542-9.474
		c0.195-0.11,0.242-0.185,0.2-0.234c0.081-0.037,0.15-0.076,0.196-0.119c2.949-2.725,6.307-5.098,9.612-7.454
		c9.248,9.005,11.525,30.465,27.639,27.542c0.642-0.115,0.872-0.523,0.809-0.9c0.059-0.023,0.114-0.051,0.163-0.082
		c5.522-3.555,6.729-11.276,6.613-17.434c-0.054-3.006-0.763-7.018-2.023-10.791c2.576,1.347,5.25,2.422,8.096,3.091
		c0.549,0.13,1.103,0.231,1.658,0.321c-0.094,0.085-0.167,0.178-0.192,0.282c-1.571,6.382,1.066,13.296-1.157,19.488
		c-0.109,0.301,0.225,0.417,0.656,0.405c-0.159,0.107-0.284,0.23-0.313,0.373c-0.838,4.116,3.331,5.786,6.62,6.536
		c4.18,0.954,7.164-0.049,10.537-2.546c0.958-0.708-1.185-0.701-1.708-0.315c-2.931,2.167-6.76,2.458-10.07,0.979
		c-2.065-0.926-3.738-2.479-3.24-4.94c0.064-0.309-0.254-0.43-0.66-0.425c0.148-0.098,0.272-0.208,0.32-0.34
		c2.223-6.184-0.339-12.926,1.11-19.242c2.441,0.271,4.899,0.398,7.277,1.013c0.215,0.056,0.541-0.007,0.85-0.128
		c0.094,0.028,0.228,0.042,0.416,0.033c4.69-0.199,8.824-2.546,8.891-7.268c3.524,1.941,7.249,3.488,11.094,4.724
		c-2.166,1.351-4.37,2.691-6.455,4.174c-0.573-0.014-1.78,0.18-1.846,0.649c-0.564,3.976,1.09,7.767-0.024,11.735
		c-1.01,3.58-3.405,6.448-6.645,8.254c-0.877,0.487,1.255,0.222,1.627,0.008c3.092-1.722,5.508-4.239,6.778-7.596
		c1.517-4.01,0.068-7.869,0.308-11.9c0.117-0.039,0.216-0.083,0.277-0.13c2.295-1.749,4.8-3.267,7.26-4.795
		c6.647,2.008,13.609,3.143,20.448,3.845c8.57,0.877,16.406,2.353,24.489,2.339c-0.45,0.297-0.677,0.639-0.38,0.908
		c6.732,6.084,14.523,12.574,23.304,15.407c8.137,2.629,17.3,2.959,25.879,2.877c0.047,0.493,0.494,0.909,1.499,0.896
		c4.077-0.052,8.159-0.08,12.24-0.08c0.056,0,0.107-0.009,0.161-0.013c-0.003,0.44-0.006,0.879-0.009,1.32
		c-0.427,0.141-0.789,0.34-0.962,0.582c-3.079,4.33,6.473,5.648,8.983,6.393c4.685,1.392,9.649,1.956,14.425,2.959
		c4.464,0.93,8.521,3.106,13.044,3.401c1.356,0.084,3.801-1.855,1.398-2.013c-2.759-0.183-5.519-1.697-8.19-2.434
		c-3.104-0.855-6.34-1.34-9.495-1.957c-0.751-0.148-17.028-3.772-16.926-6.013c0.705-0.216,1.303-0.629,1.305-1.129
		c0.077-17.01,1.347-32.816,3.02-49.657c1.057-10.62,3.013-43.406,13.944-49.645c2.903,1.632,5.836,3.091,9.193,3.553
		c2.217,0.305,4.212,0.312,6.298,1.245c1.497,0.664,2.854,1.229,4.495,1.431C359.095,165.596,360.872,162.941,358.467,162.65z
		 M154.066,172.597c1.26-1.637,1.889-3.687,2.564-5.733c0.489-1.479,0.865-2.949,1.079-4.424c0.243-0.122,0.427-0.278,0.46-0.461
		c0.305-1.72,2.388-3.554,3.513-4.837c1.278-1.451,2.631-2.833,4.022-4.176c2.19-1.29,4.077-3.089,5.203-5.182
		c0.159,0.574,0.346,1.153,0.6,1.75c1.308,3.06,4.775,10.326,8.506,10.923c-3.723,3.82-7.456,7.629-11.206,11.416
		C163.841,172,158.944,172.137,154.066,172.597z M158.39,155.5c-0.094-0.14-0.195-0.275-0.291-0.415
		c1.291,0.048,2.658-0.14,4.019-0.545c-0.827,0.85-1.635,1.717-2.419,2.609c-0.525,0.596-1.197,1.262-1.828,1.975
		c-0.046-0.875-0.172-1.754-0.384-2.641C158.097,156.325,158.67,155.916,158.39,155.5z M277.165,63.281
		c4.664,0.819,7.343,4.154,9.59,8.182c0.085,0.153,0.329,0.184,0.618,0.154c-32.806,33.211-65.609,66.421-98.409,99.634
		c-5.224-0.616-10.712,0.357-16.114,0.513c-0.638,0.019-1.274,0.036-1.91,0.053C206.492,135.9,240.646,98.246,277.165,63.281z
		 M126.625,161.33c0.04-0.424-0.355-0.583-0.814-0.57c-0.781-6.167-2.252-11.931-4.204-17.859
		c-2.623-7.987-6.458-20.139,6.329-22.515c0.216-0.04,0.426-0.132,0.609-0.243c0.205,0.116,0.49,0.156,0.857,0.04
		c11.333-3.566,22.668-7.139,34.18-10.079c8.418-2.144,16.669-2.814,23.271-8.796c0.281-0.255,0.37-0.494,0.337-0.697
		c9.665-5.336,18.308-4.209,27.076,2.149c4.223,3.062,8.636,5.475,12.176,9.42c-11.395,11.834-22.724,23.735-34.111,35.559
		c2.286-9.038,3.874-18.175,4.761-27.467c0.06-0.638-2.072-0.216-2.128,0.349c-0.915,9.583-2.567,19.008-4.972,28.333
		c-0.07,0.271,0.403,0.333,0.92,0.259c-3.199,3.318-6.404,6.628-9.617,9.93c-0.095-0.04-0.21-0.073-0.361-0.09
		c-1.896-0.212-3.857-4.481-4.748-5.914c-2.784-4.462-3.741-7.763-3.611-12.982c0.161-6.37-1.276-10.938-2.76-17.085
		c-0.217-0.901-2.367-0.344-2.146,0.575c1.357,5.626,3.127,9.525,2.836,15.589c-0.072,1.513-0.163,2.907-0.152,4.266
		c-0.284,0.157-0.497,0.367-0.493,0.625c0.05,2.898-2.104,5.88-4.855,7.779c-0.189,0.057-0.351,0.132-0.447,0.222
		c-0.074,0.07-0.143,0.144-0.216,0.213c-1.865,1.131-3.934,1.753-5.751,1.526c-0.275-0.035-0.736,0.125-1.112,0.337
		c-6.375-8.895-15.536-15.688-25.361-20.597c-0.621-0.309-2.591,0.596-1.708,1.035c9.982,4.984,19.15,11.871,25.495,20.994
		c-0.451,0.166-0.814,0.453-0.719,0.78c0.88,3.059,0.659,6.017-0.182,9.042c-0.66,2.354-1.356,5.49-3.102,7.363
		c-3.422,0.396-6.838,0.973-10.265,1.85c-0.03,0.008-0.055,0.017-0.083,0.025c-0.129-0.024-0.286-0.029-0.499,0.006
		c-4.537,0.748-9.206,3.152-11.646,7.173c0.48-5.152,0.825-10.522-0.773-15.314c-0.11-0.334-0.431-0.483-0.792-0.503
		C126.896,164.676,126.464,163.08,126.625,161.33z M122.278,215.24c0.755-3.047,1.882-5.914,2.996-8.778
		c0.601,2.432,1.69,4.691,3.396,6.671c1.241,1.438,2.84,2.398,4.176,3.724c3.462,3.439,3.017,8.326-2.202,10.236
		c-4.355-1.378-7.673-4.94-8.554-11.554C122.181,215.449,122.251,215.351,122.278,215.24z M104.809,246.863
		c0.127-0.253,0.254-0.507,0.381-0.76c0.053,0.171,0.208,0.314,0.413,0.412C105.338,246.631,105.074,246.748,104.809,246.863z
		 M107.207,244.137c-0.55,0.413-1.104,0.827-1.648,1.237c-0.002,0.002-0.003,0.003-0.005,0.005c0.396-0.794,0.793-1.587,1.189-2.381
		c0.25,0.322,0.471,0.662,0.665,1.021C107.338,244.052,107.27,244.09,107.207,244.137z M122.856,237.923
		c-0.092,0.085-0.101,0.147-0.055,0.194c-0.006,0.003-0.016,0.007-0.022,0.01c-4.141,2.351-8.427,4.439-12.764,6.416
		c0.001-0.023,0.02-0.047,0.011-0.07c-0.449-1.206-1.094-2.191-2.02-3.085c-0.083-0.08-0.232-0.105-0.401-0.109
		c2.303-4.588,4.665-9.144,7.351-13.525c0.02,0.437,0.04,0.879,0.179,1.299c0.284,0.849,0.817,1.487,1.515,2.041
		c0.55,0.435,2.518-0.407,1.999-0.81c-0.985-0.782-1.452-1.694-1.557-2.942c-0.068-0.783-0.061-1.393-0.449-1.992
		c1.564-1.315,3.17-2.601,4.713-3.947c2.318,5.269,6.829,7.631,12.052,7.976c0.044,0.082,0.104,0.164,0.195,0.242
		C129.931,232.252,126.157,234.874,122.856,237.923z M150.509,251.83c-2.998-3.376-5.413-8.092-7.798-12.566
		c2.675,1.047,6.644,4.042,7.575,6.724C150.951,247.908,150.527,249.88,150.509,251.83z M168.25,227.105
		c-0.254-0.144-0.741-0.072-1.163,0.093c-0.889-2.325-1.995-4.479-3.291-6.168c0.299-0.19,0.521-0.46,0.498-0.793
		c-0.087-1.172-0.207-2.336-0.357-3.503c-0.006-0.042-0.034-0.066-0.047-0.103c0.039-0.008,0.077-0.017,0.116-0.024
		c0.234,0.175,0.621,0.265,1.205,0.193c2.589-0.313,5.188,0.244,7.796,1.08c-0.372,0.036-0.744,0.132-0.92,0.273
		c-4.096,3.292-2.729,8.011,0.448,11.016C171.07,228.576,169.644,227.886,168.25,227.105z M178.306,230.91
		c-0.332-0.064-0.66-0.141-0.987-0.216c0.168-0.173,0.188-0.351-0.083-0.479c-4.274-1.971-8.19-7.945-3.443-11.764
		c0.114-0.092,0.181-0.171,0.212-0.24c1.15,0.396,2.302,0.829,3.455,1.258c-0.006,0.016-0.015,0.029-0.02,0.045
		c-0.687,2.24,0.309,5.375,1.203,7.44c0.677,1.557,1.661,2.802,2.981,3.731c-0.006,0.042-0.022,0.085-0.001,0.126
		c0.107,0.214,0.177,0.389,0.224,0.565C180.664,231.266,179.48,231.138,178.306,230.91z M194.502,225.248
		c0.558,4.035-1.651,6.764-5.81,6.938c-0.158,0.006-0.354,0.066-0.55,0.152c-0.064-0.042-0.146-0.08-0.263-0.11
		c-1.269-0.328-2.555-0.504-3.846-0.64c0.011-0.037,0.038-0.071,0.038-0.11c0-0.104-0.006-0.194-0.013-0.282
		c0.478-0.361,0.678-0.965-0.036-1.316c-1.757-0.863-2.868-2.438-3.524-4.236c-0.524-1.446-1.34-3.836-1.058-5.46
		c2.61,0.91,5.225,1.634,7.843,1.589c0.622-0.011,1.218-0.072,1.798-0.166c-0.321,0.314-0.367,0.626,0.151,0.808
		c1.614,0.564,3.201,0.832,4.765,0.883c-0.524,0.292-0.833,0.607-0.579,0.772c0.418,0.272,0.846,0.526,1.271,0.785
		C194.566,224.973,194.482,225.103,194.502,225.248z"/>
	<path fill="#C44D5C" d="M124.774,235.553c-0.554-0.168-1.042-0.161-1.609-0.245c-1.199-0.169-1.477-0.421-2.006-1.455
		c-0.466-0.915-0.648-1.806-1.771-1.904c-0.54-0.046-2.476,0.891-1.364,0.981c0.838,0.077,1.192,2.371,1.9,2.91
		c0.884,0.67,2.107,0.316,3.107,0.617C123.575,236.626,125.497,235.773,124.774,235.553z"/>
	<path fill="#C44D5C" d="M179.411,138.679c1.858-5.3,2.742-10.696,2.675-16.305c-0.003-0.431-2.153-0.093-2.146,0.575
		c0.063,5.529-0.824,10.868-2.654,16.082C177.117,139.508,179.2,139.268,179.411,138.679z"/>
	<path fill="#C44D5C" d="M201.143,162.58c-0.816,0.033-2.261,1.308-0.824,1.253c5.645-0.202,11.722-1.295,16.852,1.583
		c0.628,0.355,2.598-0.553,1.7-1.06C213.412,161.292,207.156,162.373,201.143,162.58z"/>
	<path fill="#C44D5C" d="M280.728,229.641c3.503-2.86,6.623-6.087,9.337-9.705c0.46-0.613-1.62-0.344-1.956,0.105
		c-2.634,3.513-5.646,6.683-9.043,9.46C278.192,230.213,280.313,229.984,280.728,229.641z"/>
	<path fill="#C44D5C" d="M194.418,156.046c23.91-23.87,47.434-48.127,71.341-72c0.508-0.507-1.554-0.317-1.96,0.093
		c-23.907,23.873-47.435,48.127-71.341,72C191.946,156.649,194.011,156.451,194.418,156.046z"/>
	<path fill="#C44D5C" d="M272.28,78.793c2.356-1.871,4.142-4.366,6.494-6.236c1.136-0.901-0.582-1.678-1.431-1.002
		c-2.353,1.871-4.138,4.367-6.49,6.241C269.714,78.7,271.432,79.468,272.28,78.793z"/>
	<path fill="#C44D5C" d="M92.484,257.688c-1.599,1.375-3.24,2.255-5.077,3.265c-1.132,0.624-1.848,1.444-2.875,2.195
		c-0.863,0.624-1.862,0.841-2.675,1.588c-0.989,0.904-1.589,2.101-2.16,3.296c-0.487,1.021,1.669,0.895,2.027,0.147
		c0.785-1.645,1.458-2.714,3.121-3.622c0.912-0.498,1.406-0.939,2.198-1.603c2.202-1.845,4.979-2.857,7.202-4.772
		C95.212,257.349,93.104,257.152,92.484,257.688z"/>
	<path fill="#C44D5C" d="M99.297,251.275c-0.568,0.688-1.161,1.312-1.813,1.914c-0.961,0.884,1.129,1.154,1.777,0.555
		c0.652-0.6,1.245-1.224,1.81-1.9C101.927,250.813,99.875,250.581,99.297,251.275z"/>
	<path fill="#C44D5C" d="M79.574,252.706c-3.121,4.134-6.859,7.542-11.329,10.176c-3.282,1.936-6.466,3.576-8.92,6.563
		c-0.621,0.743,1.539,0.639,2.006,0.074c3.166-3.84,8.131-5.526,12.048-8.447c3.152-2.35,5.841-5.158,8.201-8.285
		C82.175,251.994,80.019,252.117,79.574,252.706z"/>
	<path fill="#C44D5C" d="M102.386,229.027c2.942-3.223,7.248-5.688,10.789-8.226c1.178-0.846-0.646-1.161-1.339-0.67
		c-4.734,3.395-10.319,6.417-13.465,11.466c-4.071,6.529-9.716,10.357-15.778,14.993c-0.968,0.743,1.164,0.81,1.729,0.379
		c4.425-3.38,9.8-6.55,13.342-10.901C99.476,233.842,100.44,231.156,102.386,229.027z"/>
	<path fill="#C44D5C" d="M100.019,219.416c0.463-0.455-1.563-0.238-1.949,0.141c-10.821,10.54-23.458,21.789-36.757,29.005
		c-9.649,5.238-14.071,14.709-21.189,22.942c-0.449,0.522,1.595,0.263,1.949-0.141c4.622-5.347,8.181-11.904,13.016-16.995
		c4.033-4.25,9.383-5.526,14.057-8.661C80.268,238.267,90.45,228.74,100.019,219.416z"/>
</g>
</svg>
