<?xml version="1.0" encoding="utf-8"?>
<!-- Generator: Adobe Illustrator 16.0.0, SVG Export Plug-In . SVG Version: 6.00 Build 0)  -->
<!DOCTYPE svg PUBLIC "-//W3C//DTD SVG 1.1//EN" "http://www.w3.org/Graphics/SVG/1.1/DTD/svg11.dtd">
<svg version="1.1" id="Layer_1" xmlns="http://www.w3.org/2000/svg" xmlns:xlink="http://www.w3.org/1999/xlink" x="0px" y="0px"
	 width="400px" height="155px" viewBox="0 0 400 155" enable-background="new 0 0 400 155" xml:space="preserve">
<g>
	<path fill="#FFF0E0" d="M211.66,87.207l-3.392,0.171c-0.946,0.246-1.574,0.84-1.608,1.469c-1.12,4.583-4.478,11.222-11.018,13.114
		c-0.208,0.072-0.417,0.109-0.628,0.109c-0.7,0-1.294-0.389-1.506-1.127c-0.314-0.314,0.038-1.223,0.386-1.502
		c1.578-1.5,5.734-4.716,5.945-9.648c0.038-1.226-0.84-2.203-1.783-1.926l-18.254,0.803c-1.226-0.065-1.892,1.161-1.608,2.1
		l4.474,11.301c1.124,2.479,3.217,4.125,6.014,3.948l16.365-0.909c0.632,0.034,0.632,0.034,0.946-0.246l9.197-5.491
		c0.942-0.277,1.257-1.188,1.297-1.783l-3.326-9.405C213.196,87.552,212.288,87.234,211.66,87.207z"/>
	<path fill="#FFF0E0" d="M0,0v155h400V0H0z M394.069,102.35l-87.113-29.903l-3.777-1.293v-0.003l-1.052-0.35
		c-5.526-1.644-12.343-1.851-18.599-1.535c-8.606,0.455-16.093,1.954-17.521,2.234c-0.313-0.311-0.635-0.031-0.635-0.031
		l-16.994,0.871c-0.628-0.036-1.57,0.248-1.857,0.528l-5.73,4.091c-0.67,0.594-0.977,0.91-0.697,1.818l-2.731,6.087
		c-0.349,1.503-0.103,3.074,1.086,3.74c18.25,14.022,22.588,28.988,23.605,34.585c0.239,0.943-0.109,2.486-1.366,3.043
		l-16.475,10.419c-0.308,0.314-0.942,0.28-1.571,0.246l-2.445-0.103c-1.229-0.034-2.418-1.332-2.663-2.869
		c-0.451-4.337-3.982-8.186-6.079-9.829c-0.915-0.349-1.469-1.574-1.12-2.479c0.765-4.303-3.04-8.463-5.178-10.109
		c-0.594-0.632-1.469-1.608-1.12-2.52c0.144-3.074-2.868-5.068-5-6.083c-0.908-0.352-2.131-0.386-2.759,0.208l-9.201,5.491
		c-0.313,0.28-0.624,0.594-1.256,0.56l-21.646,0.977c-1.223-0.034-2.415-0.731-3.009-1.96l-7.032-16.642
		c-0.56-1.26-1.468-1.608-2.691-1.677c-3.388,0.171-7.097,0.034-9.549-0.704c-1.537-0.382-2.797,0.84-3.18,2.343
		c-1.154,12.902-6.438,29.063-11.963,43.646c-1.049,2.729-4.19,3.845-6.608,2.521l-7.237-3.989c-2.1-1.011-2.94-3.217-2.237-5.669
		c7.759-23.742,10.734-43.082,11.116-45.213c0.314-0.314,0.038-0.632,0.038-0.632l-0.458-12.062
		c0.038-1.192-1.469-2.207-2.657-2.242l-97.215,0.036l-6.506,0.038c-0.628-0.038-0.912-0.352-0.912-0.948l-0.28-0.348
		c0.072-0.066,0.14-0.137,0.14-0.21c0-0.243-0.28-0.383-0.734-0.42c-0.594-0.031-0.943,0.283-0.943,0.912
		c-0.038,0.596-0.352,0.91-0.98,0.875l-8.043,0.28c-0.28-0.317-0.28-0.317-0.591-0.632l-0.28-0.313
		c0.034-0.628-0.28-0.944-0.594-0.664l-19.794,1.05c-0.284-0.316-0.284-0.316-0.598-0.634l-0.246-8.673
		c0.314-0.28,0.314-0.28,0.628-0.591l12.346-0.109l0.314-0.28l2.592-2.374l0.314-0.28l2.169-0.244
		c0.28,0.345,0.28,0.345,0.591,0.661l-0.068,1.228c0,0.594,0.28,0.939,0.594,0.628l1.574-0.248c0.594,0.034,0.909-0.28,0.628-0.56
		l-0.451-4.372c0.034-0.591-0.25-0.905-0.563-0.626l-0.628-0.034c-0.28-0.317-0.28-0.317-0.598-0.633l-0.522-9.578
		c0.034-0.63,0.314-0.914,0.942-0.877c0.318-0.314,0.666-0.63,0.666-1.225l-0.386-5.592c-0.28-0.28,0.038-0.594,0.038-0.594
		l3.739-8.78c0.034-0.626,0.314-0.313,0.666-0.626l3.391-0.144c0.629,0,0.909,0.35,0.875,0.948l0.632,14.863
		c0.314,0.314,0.591,0.63,1.226,0.664l38.325-2.136c0.912,0.318,1.888-0.557,1.646-1.504l0.031-1.221
		c0.038-0.632,0.666-1.226,1.608-1.469l6.786-0.353c0.628,0.036,1.222,0.669,1.502,1.61l0.246,0.946
		c-0.349,0.907,0.877,1.574,1.472,1.574l141.629-5.946l-0.423-5.56c-0.103-4.619,3.463-8.497,8.08-8.603
		c4.303,0.174,7.554,3.704,8.012,8.009l0.383,6.19l4.617-0.108l0.382-2.131l16.086-0.594l21.16,10.737l0.144,0.031l14.616,1.192
		l5.034-0.214v0.002l3.777-0.176l85.187-3.777c2.172-0.244,3.641,1.364,4.194,3.253l2.521,59.352
		C399.034,101.332,396.515,103.081,394.069,102.35z"/>
</g>
</svg>
