<?xml version="1.0" encoding="utf-8"?>
<!-- Generator: Adobe Illustrator 16.0.0, SVG Export Plug-In . SVG Version: 6.00 Build 0)  -->
<!DOCTYPE svg PUBLIC "-//W3C//DTD SVG 1.1//EN" "http://www.w3.org/Graphics/SVG/1.1/DTD/svg11.dtd">
<svg version="1.1" id="Layer_1" xmlns="http://www.w3.org/2000/svg" xmlns:xlink="http://www.w3.org/1999/xlink" x="0px" y="0px"
	 width="400px" height="139.333px" viewBox="0 0 400 139.333" enable-background="new 0 0 400 139.333" xml:space="preserve">
<circle opacity="0.5" fill-rule="evenodd" clip-rule="evenodd" fill="#FFFFFF" cx="69.833" cy="86.848" r="37.84"/>
<g>
	<path fill="#FFFFFF" d="M133.54,64.423c-3.122,0-5.637,1.038-7.545,3.108c-1.9,2.075-2.848,4.756-2.848,8.051
		c0,3.408,0.91,6.133,2.726,8.191c1.828,2.047,4.385,3.07,7.667,3.07c3.215,0,5.744-1.016,7.59-3.051
		c1.856-2.031,2.782-4.768,2.782-8.215c0-3.453-0.908-6.179-2.724-8.171C139.369,65.422,136.823,64.423,133.54,64.423
		 M137.274,80.87c-0.912,1.24-2.16,1.862-3.734,1.862c-3.43,0-5.146-2.386-5.146-7.149c0-2.217,0.464-3.947,1.39-5.187
		c0.931-1.236,2.186-1.854,3.756-1.854c3.419,0.003,5.125,2.351,5.125,7.041C138.666,77.87,138.199,79.633,137.274,80.87"/>
	<path fill="#FFFFFF" d="M165.267,67.431c-1.935-2.005-4.481-3.007-7.647-3.007c-1.587,0-3.054,0.412-4.399,1.233v-10.09
		l-5.042,1.212v30.068h2.847l1.126-1.597c1.44,1.062,3.161,1.597,5.164,1.597c3.337,0,5.979-1.052,7.934-3.147
		c1.949-2.115,2.925-4.98,2.925-8.599C168.174,71.978,167.205,69.425,165.267,67.431 M161.394,80.833
		c-1.009,1.155-2.733,1.735-5.164,1.735c-1.266,0-2.268-0.44-3.009-1.313V69.973c0.784-0.845,1.917-1.271,3.409-1.271
		c4.198,0.003,6.302,2.197,6.302,6.58C162.929,77.825,162.417,79.672,161.394,80.833"/>
	<path fill="#FFFFFF" d="M187.01,80.383c0-1.502-0.419-2.789-1.256-3.852c-0.829-1.064-2.195-1.964-4.091-2.703
		c-1.895-0.75-3.136-1.354-3.716-1.795c-0.574-0.443-0.864-0.939-0.864-1.496c0-1.396,0.878-2.1,2.642-2.1
		c1.963,0.003,3.498,0.472,4.6,1.411l1.455-3.915c-1.98-1.01-4.092-1.509-6.337-1.509c-2.22,0-4.041,0.52-5.468,1.571
		c-1.423,1.038-2.143,2.487-2.143,4.359c0,2.784,1.867,4.953,5.59,6.497c1.709,0.716,2.862,1.33,3.456,1.855
		c0.594,0.527,0.887,1.199,0.887,2.018c0,1.398-0.985,2.104-2.947,2.104c-1.896,0-3.598-0.602-5.104-1.8l-1.799,4.019
		c1.36,0.729,2.468,1.205,3.33,1.436c0.877,0.24,2.031,0.359,3.474,0.359c2.557,0,4.573-0.569,6.054-1.711
		C186.262,83.971,187.01,82.389,187.01,80.383"/>
	<path fill="#FFFFFF" d="M201.001,64.423c-2.948,0-5.477,1.062-7.589,3.171c-2.099,2.113-3.143,4.87-3.143,8.27
		c0,3.459,0.952,6.158,2.864,8.098c1.921,1.92,4.532,2.886,7.829,2.886c3.522,0,6.173-0.722,7.951-2.162l-1.96-3.854
		c-1.198,1.198-2.947,1.795-5.247,1.795c-1.841,0-3.308-0.479-4.399-1.432c-1.089-0.953-1.68-2.295-1.774-4.018h15.438
		c0.278-1.25,0.426-2.186,0.426-2.807c0-2.887-0.949-5.271-2.851-7.145C206.648,65.359,204.134,64.423,201.001,64.423
		 M195.715,73.385c0.697-3.164,2.485-4.743,5.368-4.743c3.144,0,4.897,1.579,5.248,4.743H195.715z"/>
	<path fill="#FFFFFF" d="M221.104,66.806v-1.977h-5.043v21.612h5.043V74.133c0-1.537,0.455-2.834,1.354-3.898
		c0.908-1.062,1.956-1.593,3.123-1.593c1.082,0,2.067,0.293,2.976,0.887l2.135-4.317c-0.92-0.524-2.23-0.79-3.957-0.79
		C224.395,64.423,222.52,65.216,221.104,66.806"/>
	<polygon fill="#FFFFFF" points="243.311,86.842 253.316,64.829 247.969,64.829 242.423,78.024 237.254,64.829 231.725,64.829 
		241.494,86.842 	"/>
	<path fill="#FFFFFF" d="M268.807,84.284c0.198,0.631,0.59,1.215,1.166,1.756c0.579,0.535,1.232,0.809,1.959,0.809
		c0.656,0,1.243-0.092,1.758-0.268c0.506-0.16,0.976-0.604,1.391-1.33c-1.156-0.74-1.73-2.551-1.73-5.428v-4.621
		c0-4.185-0.771-7.023-2.304-8.519c-1.54-1.501-3.948-2.256-7.247-2.256c-2.392,0-4.456,0.416-6.193,1.25l1.09,3.912
		c1.277-0.628,2.867-0.946,4.764-0.946c3.213,0,4.826,1.271,4.826,3.814c-0.811-0.203-1.512-0.306-2.102-0.306
		c-3.459,0-6.127,0.705-8.008,2.12c-1.875,1.411-2.808,3.366-2.808,5.871c0,2.143,0.659,3.792,1.993,4.963
		c1.33,1.154,3.16,1.739,5.49,1.739c1.232,0,2.42-0.238,3.551-0.71C267.548,85.655,268.346,85.038,268.807,84.284 M260.409,79.922
		c0-2.607,1.991-3.914,5.973-3.914c0.433,0,1.075,0.088,1.935,0.262v2.02c0,3.027-1.508,4.541-4.534,4.541
		C261.529,82.831,260.409,81.862,260.409,79.922"/>
	<path fill="#FFFFFF" d="M291.895,86.243v-4.646c-1.047,0.659-2.183,0.987-3.391,0.987c-1.209,0-2.054-0.313-2.543-0.945
		c-0.484-0.646-0.727-1.742-0.727-3.29v-9.465h5.935v-4.055h-5.935v-6.255l-5.043,1.854v4.4h-2.508v4.055h2.508v10.936
		c0,2.249,0.58,3.985,1.733,5.207c1.156,1.217,2.813,1.82,4.966,1.82C289.057,86.846,290.725,86.64,291.895,86.243"/>
	<path fill="#FFFFFF" d="M305.425,64.423c-3.126,0-5.64,1.038-7.547,3.108c-1.899,2.075-2.851,4.756-2.851,8.051
		c0,3.408,0.908,6.133,2.725,8.191c1.83,2.047,4.387,3.07,7.673,3.07c3.21,0,5.738-1.016,7.586-3.051
		c1.854-2.031,2.784-4.768,2.784-8.215c0-3.453-0.908-6.179-2.725-8.171C311.251,65.422,308.705,64.423,305.425,64.423
		 M309.155,80.87c-0.915,1.24-2.162,1.862-3.73,1.862c-3.433,0-5.151-2.386-5.151-7.149c0-2.217,0.47-3.947,1.396-5.187
		c0.931-1.236,2.185-1.854,3.758-1.854c3.413,0.003,5.124,2.351,5.124,7.041C310.549,77.87,310.088,79.633,309.155,80.87"/>
	<path fill="#FFFFFF" d="M325.508,66.806v-1.977h-5.047v21.612h5.047V74.133c0-1.537,0.45-2.834,1.354-3.898
		c0.911-1.062,1.959-1.593,3.126-1.593c1.073,0,2.068,0.293,2.968,0.887l2.142-4.317c-0.919-0.524-2.233-0.79-3.954-0.79
		C328.794,64.423,326.922,65.216,325.508,66.806"/>
	<polygon fill="#FFFFFF" points="340.103,86.437 345.209,86.437 345.209,64.829 337.337,64.829 337.337,68.964 340.103,68.964 	"/>
	<path fill="#FFFFFF" d="M342.708,62.307c0.808,0,1.488-0.283,2.061-0.849c0.573-0.58,0.863-1.271,0.863-2.078
		c0-0.807-0.29-1.491-0.863-2.061c-0.57-0.576-1.253-0.866-2.061-0.866c-0.81,0-1.501,0.29-2.081,0.866
		c-0.563,0.569-0.846,1.254-0.846,2.061c0,0.807,0.283,1.498,0.846,2.078C341.207,62.024,341.898,62.307,342.708,62.307"/>
	<path fill="#FFFFFF" d="M371.064,75.583c0-3.453-0.904-6.179-2.723-8.171c-1.814-1.987-4.365-2.986-7.646-2.986
		c-3.123,0-5.64,1.038-7.544,3.108c-1.903,2.075-2.853,4.756-2.853,8.049c0,3.408,0.912,6.133,2.727,8.193
		c1.824,2.047,4.387,3.07,7.67,3.07c3.213,0,5.739-1.014,7.586-3.051C370.136,81.764,371.064,79.03,371.064,75.583 M364.425,80.87
		c-0.915,1.24-2.158,1.862-3.729,1.862c-3.432,0-5.146-2.386-5.146-7.149c0-2.217,0.457-3.947,1.392-5.187
		c0.933-1.236,2.18-1.854,3.755-1.854c3.415,0.003,5.123,2.351,5.123,7.041C365.818,77.87,365.354,79.633,364.425,80.87"/>
	<path fill="#FFFFFF" d="M177.042,95.182h-2.05v6.809h-0.047c-0.519-0.896-1.669-1.72-3.44-1.72c-2.754,0-5.132,2.31-5.109,6.099
		c0,3.465,2.144,5.795,4.898,5.795c1.86,0,3.231-0.961,3.842-2.234h0.068l0.096,1.979h1.835c-0.047-0.775-0.093-1.93-0.093-2.945
		V95.182L177.042,95.182z M174.992,107.124c0,0.332-0.021,0.615-0.092,0.896c-0.375,1.536-1.652,2.475-3.041,2.475
		c-2.214,0-3.365-1.908-3.365-4.213c0-2.502,1.27-4.385,3.416-4.385c1.551,0,2.682,1.087,2.99,2.379
		c0.071,0.26,0.092,0.609,0.092,0.869V107.124z"/>
	<path fill="#FFFFFF" d="M187.663,100.275c-3.323,0-5.347,2.683-5.347,6.119c0,3.438,2.095,5.771,5.604,5.771
		c1.814,0,3.087-0.397,3.817-0.728l-0.375-1.487c-0.756,0.336-1.675,0.594-3.159,0.594c-2.096,0-3.863-1.154-3.908-3.957h8.006
		c0.047-0.236,0.072-0.545,0.072-0.967C192.373,103.523,191.403,100.275,187.663,100.275 M184.319,105.101
		c0.164-1.438,1.058-3.347,3.176-3.347c2.332,0,2.897,2.052,2.875,3.347H184.319z"/>
	<rect x="205.206" y="95.186" fill="#FFFFFF" width="2.073" height="16.719"/>
	<path fill="#FFFFFF" d="M221.411,104.911c0-2.261-0.853-4.636-4.337-4.636c-1.439,0-2.822,0.397-3.77,0.983l0.471,1.392
		c0.805-0.542,1.908-0.846,2.99-0.846c2.336-0.024,2.592,1.69,2.592,2.608v0.236c-4.403-0.021-6.854,1.482-6.854,4.24
		c0,1.646,1.182,3.271,3.484,3.271c1.623,0,2.851-0.801,3.484-1.695h0.07l0.164,1.438h1.861c-0.119-0.773-0.161-1.74-0.161-2.729
		v-4.264H221.411L221.411,104.911z M219.407,108.067c0,0.188-0.024,0.426-0.099,0.656c-0.328,0.971-1.293,1.906-2.803,1.906
		c-1.031,0-1.928-0.61-1.928-1.973c0-2.22,2.566-2.617,4.826-2.566L219.407,108.067L219.407,108.067z"/>
	<path fill="#FFFFFF" d="M244.843,95.182h-2.054v6.809h-0.045c-0.521-0.896-1.67-1.72-3.438-1.72c-2.761,0-5.135,2.31-5.113,6.099
		c0,3.465,2.146,5.795,4.896,5.795c1.865,0,3.229-0.961,3.843-2.234h0.069l0.095,1.979h1.842c-0.055-0.775-0.097-1.93-0.097-2.945
		L244.843,95.182L244.843,95.182z M242.789,107.124c0,0.332-0.021,0.615-0.094,0.896c-0.375,1.536-1.648,2.475-3.035,2.475
		c-2.215,0-3.37-1.908-3.37-4.213c0-2.502,1.274-4.385,3.415-4.385c1.559,0,2.689,1.087,2.99,2.379
		c0.072,0.26,0.094,0.609,0.094,0.869V107.124z"/>
	<path fill="#FFFFFF" d="M255.464,100.275c-3.325,0-5.351,2.683-5.351,6.119c0,3.438,2.096,5.771,5.609,5.771
		c1.813,0,3.078-0.397,3.811-0.728l-0.374-1.487c-0.755,0.336-1.677,0.594-3.157,0.594c-2.096,0-3.863-1.154-3.912-3.957h8.01
		c0.053-0.236,0.072-0.545,0.072-0.967C260.172,103.523,259.201,100.275,255.464,100.275 M252.118,105.101
		c0.161-1.438,1.055-3.347,3.179-3.347c2.332,0,2.895,2.052,2.874,3.347H252.118z"/>
	<path fill="#FFFFFF" d="M277.902,100.271c-1.082,0-1.813,0.283-2.496,0.8c-0.471,0.354-0.939,0.824-1.299,1.484h-0.043
		c-0.491-1.346-1.676-2.284-3.203-2.284c-1.905,0-2.967,1.013-3.606,2.097h-0.069l-0.09-1.859h-1.816
		c0.05,0.939,0.099,1.889,0.099,3.084v8.314h2.024v-6.854c0-0.354,0.046-0.729,0.16-1.014c0.332-1.037,1.299-2.07,2.57-2.07
		c1.578,0,2.379,1.296,2.379,3.107v6.827h2.021v-7.041c0-0.372,0.072-0.729,0.168-1.036c0.377-0.984,1.268-1.857,2.469-1.857
		c1.648,0,2.477,1.296,2.477,3.511v6.427h2.025v-6.689C281.672,101.258,279.438,100.271,277.902,100.271"/>
	<path fill="#FFFFFF" d="M292.479,100.275c-3.133,0-5.649,2.235-5.649,6.024c0,3.604,2.401,5.863,5.466,5.863
		c2.73,0,5.678-1.836,5.678-6.054C297.969,102.65,295.751,100.275,292.479,100.275 M292.389,110.609
		c-2.027,0-3.438-1.886-3.438-4.376c0-2.146,1.055-4.406,3.484-4.406c2.443,0,3.407,2.426,3.407,4.354
		C295.846,108.749,294.364,110.609,292.389,110.609"/>
	<path fill="#FFFFFF" d="M308.516,101.918c1.134,0,1.907,0.278,2.403,0.543l0.472-1.58c-0.563-0.303-1.646-0.61-2.875-0.61
		c-3.719,0-6.117,2.571-6.117,6.077c0,3.484,2.234,5.814,5.673,5.814c1.527,0,2.729-0.397,3.273-0.656l-0.354-1.559
		c-0.587,0.26-1.362,0.543-2.543,0.543c-2.256,0-3.954-1.621-3.954-4.263C304.492,103.875,305.902,101.918,308.516,101.918"/>
	<path fill="#FFFFFF" d="M318.292,102.772h-0.073l-0.091-2.264h-1.816c0.069,1.059,0.1,2.211,0.1,3.556v7.841h2.071v-6.076
		c0-0.328,0.022-0.686,0.064-0.961c0.286-1.562,1.32-2.641,2.78-2.641c0.282,0,0.495,0,0.709,0.045v-1.955
		c-0.188-0.021-0.354-0.042-0.569-0.042C320.08,100.275,318.813,101.239,318.292,102.772"/>
	<path fill="#FFFFFF" d="M334.637,104.911c0-2.261-0.852-4.636-4.334-4.636c-1.438,0-2.825,0.397-3.771,0.983l0.475,1.392
		c0.796-0.542,1.907-0.846,2.989-0.846c2.333-0.024,2.588,1.69,2.588,2.608v0.236c-4.403-0.021-6.853,1.482-6.853,4.24
		c0,1.646,1.181,3.271,3.487,3.271c1.621,0,2.845-0.801,3.486-1.695h0.069l0.159,1.438h1.864c-0.118-0.773-0.164-1.74-0.164-2.729
		L334.637,104.911L334.637,104.911z M332.636,108.067c0,0.188-0.026,0.426-0.095,0.656c-0.331,0.971-1.299,1.906-2.804,1.906
		c-1.038,0-1.938-0.61-1.938-1.973c0-2.22,2.571-2.617,4.834-2.566L332.636,108.067L332.636,108.067z"/>
	<path fill="#FFFFFF" d="M345.914,101.918c1.132,0,1.911,0.278,2.403,0.543l0.475-1.58c-0.572-0.303-1.651-0.61-2.878-0.61
		c-3.719,0-6.122,2.571-6.122,6.077c0,3.484,2.239,5.814,5.676,5.814c1.529,0,2.73-0.397,3.272-0.656l-0.354-1.559
		c-0.586,0.26-1.359,0.543-2.542,0.543c-2.264,0-3.957-1.621-3.957-4.263C341.888,103.875,343.302,101.918,345.914,101.918"/>
	<rect x="353.805" y="100.504" fill="#FFFFFF" width="2.07" height="11.398"/>
	<path fill="#FFFFFF" d="M354.842,96.006c-0.773,0-1.296,0.591-1.296,1.295c0,0.714,0.492,1.275,1.247,1.275
		c0.824,0,1.316-0.563,1.316-1.275C356.109,96.573,355.589,96.006,354.842,96.006"/>
	<path fill="#FFFFFF" d="M369.961,104.911c0-2.261-0.849-4.636-4.334-4.636c-1.439,0-2.826,0.397-3.771,0.983l0.475,1.392
		c0.797-0.542,1.907-0.846,2.99-0.846c2.333-0.024,2.588,1.69,2.588,2.608v0.236c-4.404-0.021-6.851,1.482-6.851,4.24
		c0,1.646,1.179,3.271,3.485,3.271c1.628,0,2.85-0.801,3.485-1.695h0.068l0.167,1.438h1.858c-0.119-0.773-0.164-1.74-0.164-2.729
		L369.961,104.911L369.961,104.911z M367.96,108.067c0,0.188-0.028,0.426-0.095,0.656c-0.332,0.971-1.299,1.906-2.807,1.906
		c-1.035,0-1.935-0.61-1.935-1.973c0-2.22,2.57-2.617,4.834-2.566L367.96,108.067L367.96,108.067z"/>
</g>
<path fill="#FFFFFF" d="M103.12,103.029c-2.361,1.853-4.27,3.226-5.662,4.037c-3.327,1.952-6.542,2.929-9.645,2.929
	c-1.42,0-2.794-0.195-4.122-0.6c1.642-1.51,3.276-3.148,4.921-4.921l3.058-3.321l1.928-2.131l4.125-4.921l3.59-4.521l0.733-1.063
	l0.662-1.396l-0.662-0.531c-0.136,0.133-0.248,0.199-0.337,0.199c-0.354,0.133-0.819,0.709-1.399,1.729l-3.651,4.589l-2.529,3.122
	l-1.73,2.326l-1.058,0.671l-3.795,4.056c-0.047,0.041-0.133,0.129-0.269,0.266l-0.532-0.533c-2.656,2.482-4.563,4.23-5.714,5.253
	c-2.569-1.511-4.21-3.744-4.921-6.718c1.863-3.9,5.542-11.459,11.04-22.674l11.153-16.938c-2.634-3.008-5.734-5.596-9.192-7.648
	L82.896,66.84c0.131-2.969-0.556-4.984-2.064-6.049l3.662-8.246l0.212-0.498c-1.338-0.573-2.719-1.065-4.131-1.482l-1.534,3.512
	l-2.265,5.584c-0.75-0.042-1.062-0.063-0.929-0.063c-4.256,0-9.31,1.726-15.16,5.183c-5.63,3.279-11.016,7.603-16.155,12.964
	c-5.365,4.485-9.401,9.257-12.175,14.297c1.415,10.3,6.966,19.279,14.934,25.199c0.914-0.389,1.833-0.834,2.756-1.343
	c3.475-1.91,7.02-4.659,10.64-8.295c-0.18,1.155-0.286,2.106-0.33,2.86c0-0.045,0.018,0.152,0.065,0.598l-2.218,8.563l-0.769,2.976
	c1.729,0.601,3.516,1.078,5.349,1.423c1.474-0.157,3.144-0.333,5.019-0.527l2.647-2.045l1.741-1.348
	c0.093,0.305,0.236,0.727,0.414,1.24c0.163,0.457,0.351,0.99,0.58,1.619c0.222-0.045,0.559-0.09,0.999-0.135
	c-0.098-0.447-0.225-1.019-0.348-1.55c-0.272-1.205-0.583-2.539-0.979-4.166c1.105-0.626,2.188-1.284,3.255-1.998
	c1.863,0.53,3.857,0.802,5.986,0.802c4.242,0,8.63-1.263,13.153-3.725c1.392-0.762,2.787-1.605,4.203-2.596
	c0.438-0.304,0.854-0.601,1.263-0.896c1.502-2.119,2.793-4.396,3.839-6.806C104.063,102.287,103.583,102.667,103.12,103.029z
	 M44.263,112.654c-1.863-0.309-3.19-1.217-3.987-2.726l0.329-0.137c1.151-0.931,4.655-3.455,10.507-7.576
	c2.572-1.773,4.457-3.278,5.651-4.521l3.791-1.994c0.089,1.551,0.175,2.879,0.268,3.992c-1.065,1.239-2.307,2.607-3.727,4.121
	c-1.772,1.814-3.813,3.697-6.116,5.65C48.672,111.413,46.434,112.474,44.263,112.654z M52.106,110.926l1.664-1.529l3.325-3.66
	l3.924-4.055c0.044,0.488,0.11,1.219,0.201,2.197C58.115,107.028,55.078,109.372,52.106,110.926z M64.176,80.271
	c-0.687,1.505-1.072,2.569-1.162,3.19l-3.788,6.851c0,0.351-0.29,0.53-0.87,0.53c-0.574,0.179-0.929,0.396-1.058,0.668
	c-2.707,2.611-6.211,5.314-10.511,8.107c-2.572,1.639-4.785,2.752-6.648,3.325c1.288-5.668,3.988-11.235,8.116-16.685
	c2.878-3.768,6.491-7.715,10.835-11.84l4.785,1.136c0.887,0.22,1.331,0.729,1.331,1.526C65.206,77.702,64.864,78.764,64.176,80.271z
	 M79.438,63.918c1.151,1.243,1.377,3.544,0.665,6.915L79.834,70.1c-0.442-1.107-1.039-2.127-1.792-3.056L79.438,63.918z
	 M75.582,62.65l-0.933,2.13c-0.751-0.22-1.549-0.332-2.389-0.332c-1.16,0-2.532,0.154-4.128,0.465
	C70.79,63.45,73.278,62.695,75.582,62.65z M69.331,67.438c-0.091-0.042-0.222-0.104-0.401-0.195c2.128-1.021,3.88-1.419,5.254-1.199
	l-1.729,4.188C71.792,69.614,70.751,68.681,69.331,67.438z M72.26,82.467c-0.093,0.086-0.246,0.242-0.468,0.463h-0.863l6.245-14.029
	c0.358,1.114,0.489,2.508,0.403,4.188c-0.222,1.334-0.687,2.488-1.399,3.459C75.293,77.881,73.987,79.856,72.26,82.467z"/>
</svg>
