<?xml version="1.0" encoding="utf-8"?>
<!-- Generator: Adobe Illustrator 16.0.0, SVG Export Plug-In . SVG Version: 6.00 Build 0)  -->
<!DOCTYPE svg PUBLIC "-//W3C//DTD SVG 1.1//EN" "http://www.w3.org/Graphics/SVG/1.1/DTD/svg11.dtd">
<svg version="1.1" id="Layer_1" xmlns="http://www.w3.org/2000/svg" xmlns:xlink="http://www.w3.org/1999/xlink" x="0px" y="0px"
	 width="400px" height="139.333px" viewBox="0 0 400 139.333" enable-background="new 0 0 400 139.333" xml:space="preserve">
<g>
	<g>
		<path fill="#FFFFFF" d="M151.397,122.497h1.542l1.854,6.196c0.404,1.363,0.684,2.447,1.102,3.796h0.069
			c0.422-1.349,0.72-2.433,1.105-3.796l1.836-6.196h1.487l-3.64,11.479h-1.698L151.397,122.497z"/>
		<path fill="#FFFFFF" d="M161.888,122.497h1.469v11.479h-1.469V122.497z"/>
		<path fill="#FFFFFF" d="M171.04,122.286c1.556,0,2.607,0.721,3.291,1.42l-0.84,0.926c-0.578-0.61-1.294-1.064-2.433-1.064
			c-2.327,0-3.814,1.782-3.814,4.637c0,2.887,1.363,4.705,3.814,4.705c0.822,0,1.625-0.262,2.08-0.681v-2.992h-2.429v-1.207h3.76
			v4.828c-0.752,0.735-2.029,1.331-3.57,1.331c-3.007,0-5.16-2.207-5.16-5.947C165.738,124.543,167.96,122.286,171.04,122.286z"/>
		<path fill="#FFFFFF" d="M177.12,122.497h1.469v11.479h-1.469V122.497z"/>
	</g>
	<g>
		<path fill="#FFFFFF" d="M181.636,122.497h1.469v10.236h5.003v1.243h-6.473v-11.479H181.636z"/>
	</g>
	<g>
		<path fill="#FFFFFF" d="M195.355,130.478h-4.182l-1.102,3.498h-1.487l3.883-11.479h1.647l3.884,11.479h-1.538L195.355,130.478z
			 M194.988,129.304l-0.542-1.749c-0.4-1.28-0.771-2.538-1.138-3.869h-0.069c-0.367,1.331-0.735,2.589-1.138,3.869l-0.56,1.749
			H194.988z"/>
	</g>
	<g>
		<path fill="#FFFFFF" d="M199.53,122.497h2.869c3.537,0,5.429,2.049,5.429,5.688c0,3.657-1.892,5.792-5.358,5.792h-2.938
			L199.53,122.497L199.53,122.497z M202.293,132.788c2.695,0,4.027-1.697,4.027-4.604c0-2.889-1.332-4.498-4.027-4.498h-1.294v9.102
			H202.293z"/>
	</g>
	<g>
		<path fill="#FFFFFF" d="M215.331,130.478h-4.183l-1.099,3.498h-1.489l3.883-11.479h1.65l3.885,11.479h-1.543L215.331,130.478z
			 M214.967,129.304l-0.545-1.749c-0.4-1.28-0.771-2.538-1.135-3.869h-0.072c-0.363,1.331-0.734,2.589-1.135,3.869l-0.561,1.749
			H214.967z"/>
		<path fill="#FFFFFF" d="M223.04,122.497h1.729l2.227,6.16l0.82,2.346h0.074l0.799-2.346l2.203-6.16h1.717v11.479h-1.381v-6.315
			c0-1.015,0.123-2.382,0.195-3.396h-0.072l-0.908,2.557l-2.205,5.999h-0.844l-2.203-5.999l-0.908-2.557h-0.072
			c0.072,1.015,0.174,2.382,0.174,3.396v6.315h-1.345V122.497L223.04,122.497z"/>
		<path fill="#FFFFFF" d="M235.68,122.497h1.469v11.479h-1.469V122.497z"/>
		<path fill="#FFFFFF" d="M240.202,122.497h1.506l4.16,7.211l1.243,2.379h0.072c-0.072-1.152-0.197-2.45-0.197-3.658v-5.932h1.383
			v11.479h-1.506l-4.146-7.229l-1.243-2.358h-0.064c0.064,1.151,0.174,2.378,0.174,3.585v6.003h-1.382V122.497z"/>
		<path fill="#FFFFFF" d="M251.438,122.497h6.619v1.227h-5.149v3.604h4.342v1.244h-4.342v4.163h5.323v1.243h-6.793V122.497
			L251.438,122.497z"/>
		<path fill="#FFFFFF" d="M260.58,122.497h2.865c3.533,0,5.425,2.049,5.425,5.688c0,3.657-1.892,5.792-5.353,5.792h-2.938
			L260.58,122.497L260.58,122.497z M263.344,132.788c2.69,0,4.021-1.697,4.021-4.604c0-2.889-1.331-4.498-4.021-4.498h-1.295v9.102
			H263.344z"/>
		<path fill="#FFFFFF" d="M271.241,122.497h1.469v6.771c0,2.768,1.171,3.641,2.662,3.641c1.521,0,2.728-0.873,2.728-3.641v-6.771
			h1.403v6.738c0,3.689-1.789,4.952-4.131,4.952c-2.351,0-4.132-1.263-4.132-4.952L271.241,122.497L271.241,122.497z"/>
		<path fill="#FFFFFF" d="M286.957,122.286c1.367,0,2.45,0.666,3.134,1.42l-0.821,0.926c-0.61-0.646-1.346-1.064-2.291-1.064
			c-2.188,0-3.644,1.782-3.644,4.637c0,2.887,1.382,4.705,3.571,4.705c1.083,0,1.891-0.455,2.625-1.275l0.822,0.895
			c-0.896,1.047-2.029,1.661-3.484,1.661c-2.887,0-5.039-2.207-5.039-5.948C281.83,124.543,284.02,122.286,286.957,122.286z"/>
	</g>
	<g>
		<path fill="#FFFFFF" d="M297.654,130.478h-4.182l-1.099,3.498h-1.491l3.885-11.479h1.649l3.884,11.479h-1.542L297.654,130.478z
			 M297.291,129.304l-0.546-1.749c-0.399-1.28-0.771-2.538-1.134-3.869h-0.073c-0.363,1.331-0.733,2.589-1.134,3.869l-0.562,1.749
			H297.291z"/>
	</g>
	<g>
		<path fill="#FFFFFF" d="M306.134,122.286c1.36,0,2.451,0.666,3.128,1.42l-0.821,0.926c-0.61-0.646-1.347-1.064-2.291-1.064
			c-2.188,0-3.636,1.782-3.636,4.637c0,2.887,1.381,4.705,3.563,4.705c1.091,0,1.891-0.455,2.625-1.275l0.822,0.895
			c-0.889,1.047-2.029,1.661-3.478,1.661c-2.887,0-5.04-2.207-5.04-5.948C301.007,124.543,303.188,122.286,306.134,122.286z"/>
		<path fill="#FFFFFF" d="M311.581,122.497h1.47v11.479h-1.47V122.497z"/>
		<path fill="#FFFFFF" d="M315.429,128.184c0-3.678,2.028-5.898,4.916-5.898c2.872,0,4.901,2.24,4.901,5.898
			c0,3.689-2.029,6.003-4.901,6.003C317.457,134.187,315.429,131.875,315.429,128.184z M323.74,128.184
			c0-2.852-1.346-4.618-3.396-4.618c-2.064,0-3.411,1.769-3.411,4.618c0,2.869,1.347,4.725,3.411,4.725
			C322.396,132.909,323.74,131.053,323.74,128.184z M320.643,121.622h-1.207l1.558-1.961h1.649L320.643,121.622z"/>
		<path fill="#FFFFFF" d="M327.639,122.497h1.506l4.159,7.211l1.244,2.379h0.072c-0.072-1.152-0.196-2.45-0.196-3.658v-5.932h1.382
			v11.479H334.3l-4.145-7.229l-1.244-2.358h-0.065c0.065,1.151,0.176,2.378,0.176,3.585v6.003h-1.383V122.497z"/>
	</g>
	<path fill="#FFFFFF" d="M127.94,77.833c-14.054,9.108-28.646,8.614-28.646,8.614s-0.396-1.862-0.236-5.069
		c0.16-3.209,1.909-2.305,3.178-4.842c0.458-0.925,0.858-1.558,1.575-3.718c0.032-0.087-0.84-15.464-1.062-21.992
		c-0.116-3.516-0.778-9.385-1.553-15.09c-0.458-3.385-1.487-6.062-1.96-9.272c-0.687-4.633-1.487-9.861-1.487-9.861
		c-0.571,1.473-1.389,6.996-2.214,13.229c-0.393,2.993-0.789,6.149-1.156,9.098c-0.785,6.243-2.734,22.966-3.029,23.875
		c-0.447,1.374-0.495-0.367-0.495-0.367S92.011,44.9,92.36,37.209c0.171-3.763,0.455-7.894,0.923-11.857
		c0.353-2.978,0.808-5.858,1.396-8.421c0,0,2.011-6.065,2.651-6.185c0.64-0.124,2.956,3.821,3.742,7.331
		c1.767,7.923,2.814,8.941,4.167,17.265c1.284,7.912,2.455,14.523,2.614,15.606c0.571,3.931,0.288,16.178-0.702,21.05
		c-0.236,1.334-0.305,1.817-1.174,2.697c-2.036,2.063-3.483,4.516-3.483,6.123c0,1.604-0.269,1.574,0.112,2.506
		c0,0,2.684,4.021,18.12-5.183c0,0,4.829-2.526,4.829-8.104V13.622c0,0-15.309-5.178-27.097-5.178
		c-11.789,0-26.556,5.167-26.556,5.167v56.176c0,3.458,0.502,9.941,5.444,12.152c0,0-13.152-4.498-13.152-12.225V8.836
		c0,0,20.072-3.691,34.271-3.691c14.196,0,34.624,3.691,34.624,3.691v60.95C133.089,75.042,127.94,77.833,127.94,77.833"/>
	<path fill="#FFFFFF" d="M315.014,29.137V17.461c-0.486-0.142-1.024-0.214-1.629-0.214c-2.851,0-4.275,2.058-4.275,6.17
		c0,4.055,1.338,6.083,4.007,6.083C313.996,29.501,314.628,29.381,315.014,29.137 M318.679,30.679
		c-1.402,0.782-3.287,1.174-5.665,1.174c-2.385,0-4.238-0.724-5.563-2.167c-1.323-1.447-1.985-3.465-1.985-6.054
		c0-2.607,0.662-4.691,1.985-6.232c1.287-1.487,2.996-2.233,5.12-2.233c0.944,0,1.76,0.109,2.442,0.313V8.927h3.665V30.679z"/>
	<path fill="#FFFFFF" d="M331.995,21.894c0-3.073-1.069-4.611-3.2-4.611c-1.127,0-1.992,0.455-2.596,1.36
		c-0.655,0.982-0.968,2.411-0.933,4.276L331.995,21.894z M335.428,23.331l-9.935,1.447c0.298,3.004,1.773,4.509,4.422,4.509
		c1.563,0,2.931-0.295,4.095-0.887l0.872,2.313c-1.389,0.764-3.171,1.142-5.358,1.142c-2.327,0-4.167-0.731-5.514-2.196
		c-1.338-1.465-2.015-3.552-2.015-6.258c0-2.629,0.618-4.68,1.854-6.156c1.236-1.473,2.925-2.21,5.069-2.21
		c2.167,0,3.817,0.709,4.945,2.124C334.983,18.567,335.5,20.625,335.428,23.331"/>
	<rect x="145.012" y="39.235" fill="#FFFFFF" width="5.76" height="35.605"/>
	<path fill="#FFFFFF" d="M171.622,62.1c0-6.356-1.622-9.534-4.858-9.534c-3.236,0-4.861,3.178-4.861,9.534
		c0,6.196,1.625,9.294,4.861,9.294C170,71.394,171.622,68.295,171.622,62.1 M177.334,62.143c0,3.931-0.866,7.062-2.596,9.389
		c-1.887,2.514-4.545,3.771-7.975,3.771c-3.429,0-6.09-1.258-7.974-3.771c-1.73-2.327-2.596-5.458-2.596-9.389
		c0-3.963,0.866-7.108,2.596-9.436c1.884-2.512,4.545-3.771,7.974-3.771c3.462,0,6.12,1.258,7.975,3.771
		C176.469,55.035,177.334,58.18,177.334,62.143"/>
	<path fill="#FFFFFF" d="M197.075,67.518c0,2.138-0.833,3.963-2.501,5.477c-1.669,1.504-3.858,2.262-6.563,2.262
		c-2.895,0-5.24-0.611-7.036-1.84l1.513-3.669c1.229,0.975,2.818,1.462,4.771,1.462c1.163,0,2.105-0.338,2.833-1.016
		c0.724-0.676,1.087-1.531,1.087-2.571c0-1.073-0.284-1.909-0.847-2.523c-0.567-0.615-1.527-1.175-2.88-1.676
		c-3.869-1.48-5.803-3.854-5.803-7.127c0-2.077,0.746-3.826,2.24-5.24c1.495-1.414,3.433-2.12,5.825-2.12
		c2.575,0,4.774,0.596,6.596,1.792l-1.407,3.353c-1.167-0.949-2.513-1.421-4.051-1.421c-1.131,0-2.018,0.323-2.662,0.967
		s-0.967,1.436-0.967,2.381c0,1.666,1.258,3.003,3.774,4.007C195.046,61.656,197.075,64.154,197.075,67.518"/>
	<path fill="#FFFFFF" d="M229.191,61.965l-3.644-12.425c-0.51-1.745-0.813-3.167-0.924-4.262h-0.103
		c-0.168,0.924-0.494,2.342-0.975,4.262l-3.796,12.425H229.191z M239.548,74.836h-6.712l-2.721-9.072h-11.389l-2.822,9.072h-5.84
		l11.694-35.292h6.152L239.548,74.836z"/>
	<path fill="#FFFFFF" d="M263.234,74.836h-5.76V56.813c0-2.833-1.527-4.247-4.574-4.247c-1.447,0-2.765,0.236-3.957,0.706v21.566
		h-5.76V50.773c2.61-1.226,5.928-1.844,9.948-1.844c3.558,0,6.188,0.793,7.884,2.367c1.477,1.32,2.219,3.131,2.219,5.425V74.836
		L263.234,74.836z"/>
	<path fill="#FFFFFF" d="M283.43,71.056V52.758c-0.748-0.222-1.606-0.331-2.545-0.331c-4.473,0-6.705,3.222-6.705,9.668
		c0,6.356,2.094,9.527,6.275,9.527C281.846,71.624,282.833,71.438,283.43,71.056 M289.189,73.463
		c-2.203,1.225-5.164,1.838-8.873,1.838c-3.744,0-6.662-1.129-8.733-3.395c-2.08-2.266-3.12-5.426-3.12-9.484
		c0-4.091,1.04-7.345,3.12-9.767c2.015-2.324,4.69-3.491,8.021-3.491c1.483,0,2.756,0.156,3.826,0.477v-10.29h5.76V73.463z"/>
	<path fill="#FFFFFF" d="M310.003,59.692c0-4.814-1.665-7.218-4.996-7.218c-1.767,0-3.12,0.706-4.065,2.124
		c-1.031,1.545-1.52,3.774-1.461,6.701L310.003,59.692z M315.399,61.958l-15.577,2.266c0.473,4.716,2.785,7.075,6.93,7.075
		c2.459,0,4.597-0.469,6.422-1.415l1.367,3.632c-2.167,1.188-4.967,1.782-8.399,1.782c-3.65,0-6.522-1.146-8.633-3.44
		c-2.108-2.298-3.163-5.567-3.163-9.81c0-4.12,0.967-7.338,2.901-9.647s4.589-3.469,7.956-3.469c3.396,0,5.971,1.109,7.738,3.331
		C314.701,54.482,315.522,57.714,315.399,61.958"/>
	<path fill="#FFFFFF" d="M335.181,67.518c0,2.138-0.837,3.963-2.502,5.477c-1.666,1.504-3.861,2.262-6.566,2.262
		c-2.888,0-5.236-0.611-7.032-1.84l1.513-3.669c1.229,0.975,2.821,1.462,4.771,1.462c1.164,0,2.108-0.338,2.829-1.016
		c0.728-0.676,1.091-1.531,1.091-2.571c0-1.073-0.283-1.909-0.852-2.523c-0.566-0.615-1.526-1.175-2.88-1.676
		c-3.869-1.48-5.804-3.854-5.804-7.127c0-2.077,0.749-3.826,2.24-5.24c1.498-1.414,3.438-2.12,5.825-2.12
		c2.58,0,4.784,0.596,6.604,1.792l-1.411,3.353c-1.164-0.949-2.517-1.421-4.051-1.421c-1.135,0-2.021,0.323-2.662,0.967
		c-0.646,0.644-0.967,1.436-0.967,2.381c0,1.666,1.258,3.003,3.773,4.007C333.151,61.656,335.181,64.154,335.181,67.518"/>
	<path fill="#FFFFFF" d="M175.393,31.61h-3.669V20.105c0-1.804-0.971-2.709-2.92-2.709c-0.923,0-1.764,0.149-2.527,0.451V31.61
		h-3.669V16.258c1.665-0.782,3.785-1.174,6.349-1.174c2.265,0,3.938,0.502,5.018,1.505c0.945,0.84,1.418,1.996,1.418,3.461V31.61z"
		/>
	<path fill="#FFFFFF" d="M183.102,31.606h-3.662V15.378h3.662V31.606z M183.298,10.764c0,0.501-0.196,0.931-0.589,1.284
		s-0.869,0.527-1.433,0.527c-0.56,0-1.033-0.175-1.429-0.527c-0.389-0.353-0.585-0.782-0.585-1.284s0.196-0.931,0.585-1.294
		c0.396-0.36,0.869-0.542,1.429-0.542c0.564,0,1.04,0.175,1.433,0.527S183.298,10.244,183.298,10.764"/>
	<path fill="#FFFFFF" d="M199.821,15.378L194.61,31.61h-3.494l-5.298-16.232h3.913l2.862,10.476
		c0.222,0.782,0.349,1.523,0.389,2.225h0.062c0.098-0.582,0.24-1.324,0.421-2.225l2.92-10.476H199.821z"/>
	<path fill="#FFFFFF" d="M211.768,21.945c0-3.072-1.068-4.607-3.191-4.607c-1.128,0-1.993,0.451-2.598,1.356
		c-0.662,0.978-0.975,2.407-0.938,4.272L211.768,21.945z M215.191,23.381l-9.934,1.443c0.307,3.007,1.781,4.509,4.43,4.509
		c1.563,0,2.931-0.298,4.095-0.883l0.872,2.313c-1.383,0.76-3.172,1.142-5.359,1.142c-2.327,0-4.167-0.734-5.506-2.196
		c-1.352-1.469-2.02-3.549-2.02-6.262c0-2.629,0.613-4.68,1.851-6.152c1.237-1.477,2.926-2.215,5.071-2.215
		c2.166,0,3.811,0.709,4.938,2.124C214.756,18.614,215.271,20.676,215.191,23.381"/>
	<path fill="#FFFFFF" d="M226.355,15.102l-0.728,2.687c-0.546-0.182-1.104-0.272-1.688-0.272c-0.705,0-1.287,0.131-1.752,0.393
		v13.698h-3.666V16.247C220.313,15.385,222.923,15,226.355,15.102"/>
	<path fill="#FFFFFF" d="M238.059,26.945c0,1.363-0.531,2.531-1.602,3.491c-1.063,0.967-2.458,1.447-4.182,1.447
		c-1.848,0-3.346-0.389-4.494-1.175l0.967-2.349c0.777,0.625,1.797,0.938,3.048,0.938c0.733,0,1.338-0.218,1.804-0.647
		c0.459-0.433,0.69-0.981,0.69-1.644c0-0.68-0.183-1.222-0.538-1.607c-0.363-0.393-0.975-0.749-1.84-1.069
		c-2.467-0.945-3.702-2.461-3.702-4.552c0-1.324,0.479-2.437,1.433-3.338c0.953-0.906,2.189-1.356,3.717-1.356
		c1.645,0,3.048,0.382,4.211,1.142l-0.908,2.135c-0.742-0.604-1.602-0.906-2.582-0.906c-0.721,0-1.287,0.208-1.702,0.618
		c-0.407,0.415-0.616,0.917-0.616,1.52c0,1.065,0.807,1.92,2.413,2.56C236.764,23.199,238.059,24.796,238.059,26.945"/>
	<path fill="#FFFFFF" d="M245.046,31.606h-3.665V15.378h3.665V31.606z M245.234,10.764c0,0.501-0.195,0.931-0.582,1.284
		c-0.399,0.353-0.873,0.527-1.439,0.527c-0.561,0-1.031-0.175-1.425-0.527c-0.394-0.353-0.582-0.782-0.582-1.284
		s0.188-0.931,0.582-1.294c0.394-0.36,0.864-0.542,1.425-0.542c0.566,0,1.04,0.175,1.439,0.527
		C245.039,9.807,245.234,10.244,245.234,10.764"/>
	<path fill="#FFFFFF" d="M258.049,29.188V17.509c-0.479-0.138-1.025-0.211-1.629-0.211c-2.852,0-4.275,2.058-4.275,6.17
		c0,4.055,1.338,6.08,4.008,6.08C257.031,29.548,257.664,29.432,258.049,29.188 M261.714,30.73
		c-1.403,0.782-3.294,1.174-5.657,1.174c-2.386,0-4.246-0.723-5.57-2.17c-1.323-1.444-1.985-3.462-1.985-6.051
		c0-2.611,0.662-4.691,1.985-6.236c1.287-1.483,2.996-2.229,5.119-2.229c0.945,0,1.761,0.105,2.443,0.309V8.978h3.665V30.73z"/>
	<path fill="#FFFFFF" d="M273.91,29.414v-6.69c-1.92,0.244-3.28,0.614-4.087,1.12c-0.996,0.622-1.498,1.622-1.498,3.007
		c0,2.011,1.134,3.015,3.389,3.015C272.579,29.865,273.307,29.712,273.91,29.414 M277.343,30.73
		c-1.462,0.782-3.418,1.174-5.868,1.174c-4.414,0-6.617-1.644-6.617-4.934c0-1.964,0.894-3.437,2.676-4.422
		c1.402-0.763,3.527-1.283,6.378-1.563v-0.873c0-1.786-1.069-2.676-3.222-2.676c-1.338,0-2.69,0.327-4.059,0.985l-0.844-2.109
		c1.688-0.818,3.541-1.229,5.57-1.229c3.992,0,5.984,1.865,5.984,5.596L277.343,30.73L277.343,30.73z"/>
	<path fill="#FFFFFF" d="M290.208,29.188V17.509c-0.479-0.138-1.024-0.211-1.63-0.211c-2.852,0-4.275,2.058-4.275,6.17
		c0,4.055,1.338,6.08,4.008,6.08C289.189,29.548,289.829,29.432,290.208,29.188 M293.873,30.73
		c-1.403,0.782-3.295,1.174-5.658,1.174c-2.393,0-4.247-0.723-5.57-2.17c-1.324-1.444-1.984-3.462-1.984-6.051
		c0-2.611,0.66-4.691,1.984-6.236c1.287-1.483,2.996-2.229,5.119-2.229c0.946,0,1.762,0.105,2.444,0.309V8.978h3.665V30.73z"/>
	<path fill="#FFFFFF" d="M144.965,9.011h3.905v17.454c0,1.916,1.033,2.873,3.098,2.873c0.982,0,1.876-0.156,2.687-0.477V9.011h3.905
		v21.545c-1.771,0.833-4.018,1.247-6.752,1.247c-2.407,0-4.189-0.531-5.341-1.6c-1.004-0.895-1.502-2.124-1.502-3.68V9.011z"/>
	<path fill="#FFFFFF" d="M259.707,108.542c-0.777,0.607-1.912,0.912-3.389,0.912c-2.139,0-3.769-0.9-4.881-2.711
		c-0.931-1.507-1.389-3.404-1.389-5.691c0-2.229,0.473-4.116,1.434-5.666c1.127-1.824,2.748-2.737,4.856-2.737
		c1.39,0,2.517,0.306,3.367,0.913l-0.647,1.805c-0.64-0.379-1.353-0.568-2.131-0.568c-1.402,0-2.421,0.742-3.062,2.215
		c-0.466,1.059-0.69,2.396-0.69,4.02c0,1.549,0.239,2.868,0.734,3.951c0.654,1.447,1.658,2.171,3.018,2.171
		c0.778,0,1.471-0.188,2.065-0.563L259.707,108.542z"/>
	<path fill="#FFFFFF" d="M268.005,103.297c0-2.916-0.749-4.375-2.239-4.375s-2.232,1.459-2.232,4.375
		c0,2.844,0.742,4.266,2.232,4.266S268.005,106.141,268.005,103.297 M270.63,103.331c0,1.725-0.362,3.121-1.104,4.188
		c-0.857,1.247-2.108,1.869-3.76,1.869c-1.65,0-2.901-0.622-3.761-1.869c-0.733-1.067-1.104-2.465-1.104-4.188
		c0-1.733,0.371-3.142,1.104-4.211c0.845-1.246,2.095-1.869,3.761-1.869s2.916,0.623,3.76,1.869
		C270.268,100.189,270.63,101.596,270.63,103.331"/>
	<rect x="273.125" y="92.735" fill="#FFFFFF" width="2.669" height="16.439"/>
	<path fill="#FFFFFF" d="M285.379,103.297c0-2.916-0.749-4.375-2.24-4.375c-1.49,0-2.231,1.459-2.231,4.375
		c0,2.844,0.741,4.266,2.231,4.266C284.63,107.563,285.379,106.141,285.379,103.297 M288.004,103.331
		c0,1.725-0.371,3.121-1.105,4.188c-0.856,1.247-2.107,1.869-3.76,1.869c-1.65,0-2.9-0.622-3.752-1.869
		c-0.742-1.067-1.113-2.465-1.113-4.188c0-1.733,0.371-3.142,1.113-4.211c0.836-1.246,2.088-1.869,3.752-1.869
		c1.666,0,2.916,0.623,3.76,1.869C287.633,100.189,288.004,101.596,288.004,103.331"/>
	<path fill="#FFFFFF" d="M306.199,109.174h-2.646v-8.32c0-1.271-0.662-1.909-1.979-1.909c-0.764,0-1.418,0.267-1.956,0.804v9.426
		h-2.647v-8.366c0-1.24-0.734-1.862-2.188-1.862c-0.641,0-1.223,0.105-1.738,0.324v9.904h-2.646V98.098
		c1.17-0.563,2.633-0.848,4.386-0.848c1.644,0,2.864,0.426,3.644,1.283c0.932-0.857,2.182-1.283,3.76-1.283
		c1.156,0,2.117,0.313,2.873,0.935c0.764,0.622,1.142,1.506,1.142,2.651v8.338H306.199z"/>
	<path fill="#FFFFFF" d="M315.93,103.209c0-2.9-0.9-4.353-2.689-4.353c-0.641,0-1.171,0.116-1.585,0.351v8.334
		c0.355,0.16,0.807,0.238,1.345,0.238C314.956,107.782,315.93,106.256,315.93,103.209 M318.556,103.047
		c0,1.927-0.458,3.438-1.366,4.541c-0.982,1.199-2.415,1.8-4.299,1.8c-1.709,0-2.996-0.28-3.868-0.845V92.756h2.633v5.039
		c0.689-0.319,1.461-0.479,2.298-0.479c1.52,0,2.698,0.601,3.52,1.8C318.199,100.161,318.556,101.469,318.556,103.047"/>
	<path fill="#FFFFFF" d="M323.683,109.174h-2.669V97.465h2.669V109.174z M323.813,94.145c0,0.375-0.146,0.688-0.437,0.936
		s-0.633,0.366-1.018,0.366c-0.395,0-0.735-0.118-1.025-0.366c-0.291-0.248-0.43-0.561-0.43-0.936c0-0.374,0.139-0.689,0.43-0.945
		c0.29-0.254,0.632-0.382,1.025-0.382c0.385,0,0.727,0.124,1.018,0.371S323.813,93.752,323.813,94.145"/>
	<path fill="#FFFFFF" d="M332.584,107.584v-4.817c-1.295,0.155-2.211,0.385-2.749,0.673c-0.873,0.465-1.309,1.232-1.309,2.303
		c0,1.445,0.82,2.17,2.465,2.17C331.617,107.913,332.147,107.807,332.584,107.584 M335.057,108.542
		c-1.055,0.563-2.466,0.852-4.231,0.852c-3.187,0-4.778-1.189-4.778-3.563c0-1.521,0.764-2.641,2.284-3.367
		c0.938-0.447,2.354-0.769,4.254-0.957v-0.629c0-1.287-0.771-1.932-2.32-1.932c-0.975,0-1.947,0.236-2.931,0.713l-0.61-1.517
		c1.214-0.593,2.554-0.892,4.021-0.892c2.872,0,4.313,1.347,4.313,4.041L335.057,108.542L335.057,108.542z"/>
</g>
</svg>
